<ttFont>
    <TTGlyph name="A" xMin="-115" yMin="0" xMax="1346" yMax="1462">
      <contour>
        <pt x="408" y="489" on="1"/>
        <pt x="285" y="274" on="1"/>
        <pt x="246" y="206" on="0"/>
        <pt x="246" y="160" on="1"/>
        <pt x="246" y="86" on="0"/>
        <pt x="360" y="86" on="1"/>
        <pt x="408" y="86" on="1"/>
        <pt x="391" y="0" on="1"/>
        <pt x="-115" y="0" on="1"/>
        <pt x="-98" y="86" on="1"/>
        <pt x="-59" y="86" on="1"/>
        <pt x="-4" y="86" on="0"/>
        <pt x="70" y="143" on="0"/>
        <pt x="131" y="246" on="1"/>
        <pt x="844" y="1462" on="1"/>
        <pt x="1004" y="1462" on="1"/>
        <pt x="1198" y="195" on="1"/>
        <pt x="1208" y="131" on="0"/>
        <pt x="1258" y="86" on="0"/>
        <pt x="1319" y="86" on="1"/>
        <pt x="1346" y="86" on="1"/>
        <pt x="1329" y="0" on="1"/>
        <pt x="772" y="0" on="1"/>
        <pt x="788" y="86" on="1"/>
        <pt x="836" y="86" on="1"/>
        <pt x="983" y="86" on="0"/>
        <pt x="983" y="190" on="1"/>
        <pt x="983" y="232" on="0"/>
        <pt x="979" y="260" on="1"/>
        <pt x="946" y="489" on="1"/>
      </contour>
      <contour>
        <pt x="881" y="950" on="1"/>
        <pt x="850" y="1168" on="0"/>
        <pt x="848" y="1274" on="1"/>
        <pt x="801" y="1163" on="0"/>
        <pt x="688" y="969" on="1"/>
        <pt x="469" y="592" on="1"/>
        <pt x="932" y="592" on="1"/>
      </contour>
    </TTGlyph>
    <TTGlyph name="AE" xMin="-127" yMin="0" xMax="1970" yMax="1462">
      <contour>
        <pt x="-127" y="0" on="1"/>
        <pt x="-98" y="86" on="1"/>
        <pt x="-59" y="86" on="1"/>
        <pt x="-5" y="86" on="0"/>
        <pt x="76" y="142" on="0"/>
        <pt x="152" y="246" on="1"/>
        <pt x="967" y="1364" on="1"/>
        <pt x="793" y="1376" on="1"/>
        <pt x="811" y="1462" on="1"/>
        <pt x="1970" y="1462" on="1"/>
        <pt x="1905" y="1104" on="1"/>
        <pt x="1798" y="1104" on="1"/>
        <pt x="1808" y="1174" on="0"/>
        <pt x="1808" y="1223" on="1"/>
        <pt x="1808" y="1360" on="0"/>
        <pt x="1663" y="1360" on="1"/>
        <pt x="1319" y="1360" on="1"/>
        <pt x="1202" y="815" on="1"/>
        <pt x="1696" y="815" on="1"/>
        <pt x="1675" y="715" on="1"/>
        <pt x="1182" y="715" on="1"/>
        <pt x="1051" y="102" on="1"/>
        <pt x="1446" y="102" on="1"/>
        <pt x="1618" y="102" on="0"/>
        <pt x="1677" y="270" on="1"/>
        <pt x="1710" y="358" on="1"/>
        <pt x="1817" y="358" on="1"/>
        <pt x="1726" y="0" on="1"/>
        <pt x="629" y="0" on="1"/>
        <pt x="645" y="86" on="1"/>
        <pt x="672" y="86" on="1"/>
        <pt x="775" y="86" on="0"/>
        <pt x="857" y="157" on="0"/>
        <pt x="870" y="223" on="1"/>
        <pt x="926" y="489" on="1"/>
        <pt x="463" y="489" on="1"/>
        <pt x="309" y="274" on="1"/>
        <pt x="254" y="197" on="0"/>
        <pt x="254" y="154" on="1"/>
        <pt x="254" y="86" on="0"/>
        <pt x="358" y="86" on="1"/>
        <pt x="406" y="86" on="1"/>
        <pt x="377" y="0" on="1"/>
      </contour>
      <contour>
        <pt x="1110" y="1360" on="1"/>
        <pt x="1071" y="1360" on="1"/>
        <pt x="974" y="1192" on="0"/>
        <pt x="811" y="969" on="1"/>
        <pt x="539" y="592" on="1"/>
        <pt x="948" y="592" on="1"/>
      </contour>
    </TTGlyph>
    <TTGlyph name="Aacute" xMin="-115" yMin="0" xMax="1346" yMax="1907">
      <component glyphName="A" x="0" y="0" flags="0x1204"/>
      <component glyphName="acute" x="330" y="338" flags="0x1004"/>
    </TTGlyph>
    <TTGlyph name="Acircumflex" xMin="-115" yMin="0" xMax="1346" yMax="1907">
      <component glyphName="A" x="0" y="0" flags="0x1204"/>
      <component glyphName="circumflex" x="236" y="338" flags="0x1004"/>
    </TTGlyph>
    <TTGlyph name="Adieresis" xMin="-115" yMin="0" xMax="1346" yMax="1864">
      <component glyphName="A" x="0" y="0" flags="0x1204"/>
      <component glyphName="dieresis" x="242" y="338" flags="0x1004"/>
    </TTGlyph>
    <TTGlyph name="Agrave" xMin="-115" yMin="0" xMax="1346" yMax="1907">
      <component glyphName="A" x="0" y="0" flags="0x1204"/>
      <component glyphName="grave" x="94" y="338" flags="0x1004"/>
    </TTGlyph>
    <TTGlyph name="Aring" xMin="-115" yMin="0" xMax="1346" yMax="1808">
      <component glyphName="A" x="0" y="0" flags="0x1204"/>
      <component glyphName="ring" x="410" y="141" flags="0x1004"/>
    </TTGlyph>
    <TTGlyph name="Atilde" xMin="-115" yMin="0" xMax="1346" yMax="1841">
      <component glyphName="A" x="0" y="0" flags="0x1204"/>
      <component glyphName="tilde" x="201" y="338" flags="0x1004"/>
    </TTGlyph>
    <TTGlyph name="B" xMin="-43" yMin="0" xMax="1276" yMax="1462">
      <contour>
        <pt x="-27" y="86" on="1"/>
        <pt x="0" y="86" on="1"/>
        <pt x="170" y="86" on="0"/>
        <pt x="201" y="233" on="1"/>
        <pt x="414" y="1237" on="1"/>
        <pt x="422" y="1275" on="0"/>
        <pt x="422" y="1294" on="1"/>
        <pt x="422" y="1376" on="0"/>
        <pt x="274" y="1376" on="1"/>
        <pt x="248" y="1376" on="1"/>
        <pt x="266" y="1462" on="1"/>
        <pt x="797" y="1462" on="1"/>
        <pt x="1276" y="1462" on="0"/>
        <pt x="1276" y="1155" on="1"/>
        <pt x="1276" y="852" on="0"/>
        <pt x="942" y="774" on="1"/>
        <pt x="940" y="766" on="1"/>
        <pt x="1190" y="716" on="0"/>
        <pt x="1190" y="467" on="1"/>
        <pt x="1190" y="242" on="0"/>
        <pt x="888" y="0" on="0"/>
        <pt x="600" y="0" on="1"/>
        <pt x="-43" y="0" on="1"/>
      </contour>
      <contour>
        <pt x="530" y="817" on="1"/>
        <pt x="688" y="817" on="1"/>
        <pt x="1053" y="817" on="0"/>
        <pt x="1053" y="1128" on="1"/>
        <pt x="1053" y="1360" on="0"/>
        <pt x="770" y="1360" on="1"/>
        <pt x="647" y="1360" on="1"/>
      </contour>
      <contour>
        <pt x="379" y="102" on="1"/>
        <pt x="578" y="102" on="1"/>
        <pt x="969" y="102" on="0"/>
        <pt x="969" y="481" on="1"/>
        <pt x="969" y="715" on="0"/>
        <pt x="682" y="715" on="1"/>
        <pt x="510" y="715" on="1"/>
      </contour>
    </TTGlyph>
    <TTGlyph name="C" xMin="106" yMin="-20" xMax="1329" yMax="1483">
      <contour>
        <pt x="1073" y="299" on="1"/>
        <pt x="1100" y="280" on="0"/>
        <pt x="1100" y="231" on="1"/>
        <pt x="1100" y="133" on="0"/>
        <pt x="872" y="-20" on="0"/>
        <pt x="672" y="-20" on="1"/>
        <pt x="405" y="-20" on="0"/>
        <pt x="106" y="266" on="0"/>
        <pt x="106" y="528" on="1"/>
        <pt x="106" y="916" on="0"/>
        <pt x="590" y="1483" on="0"/>
        <pt x="950" y="1483" on="1"/>
        <pt x="1129" y="1483" on="0"/>
        <pt x="1329" y="1360" on="0"/>
        <pt x="1329" y="1255" on="1"/>
        <pt x="1329" y="1182" on="0"/>
        <pt x="1219" y="1096" on="0"/>
        <pt x="1128" y="1096" on="1"/>
        <pt x="1128" y="1374" on="0"/>
        <pt x="924" y="1374" on="1"/>
        <pt x="671" y="1374" on="0"/>
        <pt x="330" y="823" on="0"/>
        <pt x="330" y="496" on="1"/>
        <pt x="330" y="113" on="0"/>
        <pt x="694" y="113" on="1"/>
        <pt x="931" y="113" on="0"/>
      </contour>
    </TTGlyph>
    <TTGlyph name="Ccedilla" xMin="106" yMin="-492" xMax="1329" yMax="1483">
      <component glyphName="C" x="0" y="0" flags="0x1204"/>
      <component glyphName="cedilla" x="262" y="0" flags="0x1004"/>
    </TTGlyph>
    <TTGlyph name="D" xMin="-43" yMin="0" xMax="1421" yMax="1462">
      <contour>
        <pt x="-27" y="86" on="1"/>
        <pt x="0" y="86" on="1"/>
        <pt x="170" y="86" on="0"/>
        <pt x="201" y="233" on="1"/>
        <pt x="414" y="1237" on="1"/>
        <pt x="422" y="1275" on="0"/>
        <pt x="422" y="1294" on="1"/>
        <pt x="422" y="1376" on="0"/>
        <pt x="274" y="1376" on="1"/>
        <pt x="248" y="1376" on="1"/>
        <pt x="266" y="1462" on="1"/>
        <pt x="840" y="1462" on="1"/>
        <pt x="1119" y="1462" on="0"/>
        <pt x="1421" y="1173" on="0"/>
        <pt x="1421" y="905" on="1"/>
        <pt x="1421" y="513" on="0"/>
        <pt x="975" y="0" on="0"/>
        <pt x="602" y="0" on="1"/>
        <pt x="-43" y="0" on="1"/>
      </contour>
      <contour>
        <pt x="557" y="104" on="1"/>
        <pt x="853" y="104" on="0"/>
        <pt x="1198" y="558" on="0"/>
        <pt x="1198" y="928" on="1"/>
        <pt x="1198" y="1360" on="0"/>
        <pt x="809" y="1360" on="1"/>
        <pt x="647" y="1360" on="1"/>
        <pt x="379" y="104" on="1"/>
      </contour>
    </TTGlyph>
    <TTGlyph name="E" xMin="-43" yMin="0" xMax="1298" yMax="1462">
      <contour>
        <pt x="379" y="102" on="1"/>
        <pt x="774" y="102" on="1"/>
        <pt x="947" y="102" on="0"/>
        <pt x="1006" y="270" on="1"/>
        <pt x="1038" y="358" on="1"/>
        <pt x="1145" y="358" on="1"/>
        <pt x="1055" y="0" on="1"/>
        <pt x="-43" y="0" on="1"/>
        <pt x="-27" y="86" on="1"/>
        <pt x="0" y="86" on="1"/>
        <pt x="104" y="86" on="0"/>
        <pt x="185" y="159" on="0"/>
        <pt x="199" y="223" on="1"/>
        <pt x="412" y="1229" on="1"/>
        <pt x="418" y="1257" on="0"/>
        <pt x="418" y="1278" on="1"/>
        <pt x="418" y="1326" on="0"/>
        <pt x="362" y="1376" on="0"/>
        <pt x="274" y="1376" on="1"/>
        <pt x="248" y="1376" on="1"/>
        <pt x="266" y="1462" on="1"/>
        <pt x="1298" y="1462" on="1"/>
        <pt x="1233" y="1104" on="1"/>
        <pt x="1126" y="1104" on="1"/>
        <pt x="1132" y="1167" on="1"/>
        <pt x="1137" y="1215" on="0"/>
        <pt x="1137" y="1223" on="1"/>
        <pt x="1137" y="1360" on="0"/>
        <pt x="991" y="1360" on="1"/>
        <pt x="647" y="1360" on="1"/>
        <pt x="530" y="815" on="1"/>
        <pt x="1024" y="815" on="1"/>
        <pt x="1004" y="715" on="1"/>
        <pt x="510" y="715" on="1"/>
      </contour>
    </TTGlyph>
    <TTGlyph name="Eacute" xMin="-43" yMin="0" xMax="1298" yMax="1907">
      <component glyphName="E" x="0" y="0" flags="0x1204"/>
      <component glyphName="acute" x="217" y="338" flags="0x1004"/>
    </TTGlyph>
    <TTGlyph name="Ecircumflex" xMin="-43" yMin="0" xMax="1298" yMax="1907">
      <component glyphName="E" x="0" y="0" flags="0x1204"/>
      <component glyphName="circumflex" x="170" y="338" flags="0x1004"/>
    </TTGlyph>
    <TTGlyph name="Edieresis" xMin="-43" yMin="0" xMax="1298" yMax="1864">
      <component glyphName="E" x="0" y="0" flags="0x1204"/>
      <component glyphName="dieresis" x="129" y="338" flags="0x1004"/>
    </TTGlyph>
    <TTGlyph name="Egrave" xMin="-43" yMin="0" xMax="1298" yMax="1907">
      <component glyphName="E" x="0" y="0" flags="0x1204"/>
      <component glyphName="grave" x="20" y="338" flags="0x1004"/>
    </TTGlyph>
    <TTGlyph name="Eth" xMin="-43" yMin="0" xMax="1462" yMax="1462">
      <contour>
        <pt x="-27" y="86" on="1"/>
        <pt x="0" y="86" on="1"/>
        <pt x="170" y="86" on="0"/>
        <pt x="201" y="233" on="1"/>
        <pt x="303" y="715" on="1"/>
        <pt x="104" y="715" on="1"/>
        <pt x="127" y="815" on="1"/>
        <pt x="324" y="815" on="1"/>
        <pt x="414" y="1237" on="1"/>
        <pt x="422" y="1275" on="0"/>
        <pt x="422" y="1294" on="1"/>
        <pt x="422" y="1376" on="0"/>
        <pt x="274" y="1376" on="1"/>
        <pt x="248" y="1376" on="1"/>
        <pt x="266" y="1462" on="1"/>
        <pt x="881" y="1462" on="1"/>
        <pt x="1160" y="1462" on="0"/>
        <pt x="1462" y="1173" on="0"/>
        <pt x="1462" y="905" on="1"/>
        <pt x="1462" y="513" on="0"/>
        <pt x="1016" y="0" on="0"/>
        <pt x="643" y="0" on="1"/>
        <pt x="-43" y="0" on="1"/>
      </contour>
      <contour>
        <pt x="598" y="104" on="1"/>
        <pt x="892" y="104" on="0"/>
        <pt x="1239" y="556" on="0"/>
        <pt x="1239" y="928" on="1"/>
        <pt x="1239" y="1360" on="0"/>
        <pt x="850" y="1360" on="1"/>
        <pt x="647" y="1360" on="1"/>
        <pt x="530" y="815" on="1"/>
        <pt x="918" y="815" on="1"/>
        <pt x="895" y="715" on="1"/>
        <pt x="508" y="715" on="1"/>
        <pt x="379" y="104" on="1"/>
      </contour>
    </TTGlyph>
    <TTGlyph name="F" xMin="-43" yMin="0" xMax="1298" yMax="1462">
      <contour>
        <pt x="-27" y="86" on="1"/>
        <pt x="0" y="86" on="1"/>
        <pt x="96" y="86" on="0"/>
        <pt x="180" y="152" on="0"/>
        <pt x="199" y="223" on="1"/>
        <pt x="414" y="1237" on="1"/>
        <pt x="422" y="1275" on="0"/>
        <pt x="422" y="1294" on="1"/>
        <pt x="422" y="1376" on="0"/>
        <pt x="274" y="1376" on="1"/>
        <pt x="248" y="1376" on="1"/>
        <pt x="266" y="1462" on="1"/>
        <pt x="1298" y="1462" on="1"/>
        <pt x="1233" y="1104" on="1"/>
        <pt x="1126" y="1104" on="1"/>
        <pt x="1130" y="1140" on="1"/>
        <pt x="1131" y="1159" on="0"/>
        <pt x="1133" y="1176" on="1"/>
        <pt x="1137" y="1210" on="0"/>
        <pt x="1137" y="1223" on="1"/>
        <pt x="1137" y="1360" on="0"/>
        <pt x="983" y="1360" on="1"/>
        <pt x="647" y="1360" on="1"/>
        <pt x="520" y="768" on="1"/>
        <pt x="1014" y="768" on="1"/>
        <pt x="993" y="668" on="1"/>
        <pt x="500" y="668" on="1"/>
        <pt x="408" y="233" on="1"/>
        <pt x="401" y="200" on="0"/>
        <pt x="401" y="182" on="1"/>
        <pt x="401" y="86" on="0"/>
        <pt x="543" y="86" on="1"/>
        <pt x="610" y="86" on="1"/>
        <pt x="594" y="0" on="1"/>
        <pt x="-43" y="0" on="1"/>
      </contour>
    </TTGlyph>
    <TTGlyph name="G" xMin="106" yMin="-20" xMax="1430" yMax="1483">
      <contour>
        <pt x="1430" y="676" on="1"/>
        <pt x="1411" y="590" on="1"/>
        <pt x="1403" y="590" on="1"/>
        <pt x="1321" y="590" on="0"/>
        <pt x="1245" y="517" on="0"/>
        <pt x="1229" y="442" on="1"/>
        <pt x="1151" y="74" on="1"/>
        <pt x="934" y="-20" on="0"/>
        <pt x="688" y="-20" on="1"/>
        <pt x="408" y="-20" on="0"/>
        <pt x="106" y="267" on="0"/>
        <pt x="106" y="528" on="1"/>
        <pt x="106" y="935" on="0"/>
        <pt x="606" y="1483" on="0"/>
        <pt x="987" y="1483" on="1"/>
        <pt x="1191" y="1483" on="0"/>
        <pt x="1419" y="1359" on="0"/>
        <pt x="1419" y="1262" on="1"/>
        <pt x="1419" y="1186" on="0"/>
        <pt x="1297" y="1100" on="0"/>
        <pt x="1202" y="1100" on="1"/>
        <pt x="1202" y="1232" on="0"/>
        <pt x="1068" y="1374" on="0"/>
        <pt x="944" y="1374" on="1"/>
        <pt x="691" y="1374" on="0"/>
        <pt x="330" y="851" on="0"/>
        <pt x="330" y="496" on="1"/>
        <pt x="330" y="96" on="0"/>
        <pt x="725" y="96" on="1"/>
        <pt x="840" y="96" on="0"/>
        <pt x="956" y="125" on="1"/>
        <pt x="1024" y="451" on="1"/>
        <pt x="1032" y="489" on="0"/>
        <pt x="1032" y="508" on="1"/>
        <pt x="1032" y="590" on="0"/>
        <pt x="885" y="590" on="1"/>
        <pt x="866" y="590" on="1"/>
        <pt x="885" y="676" on="1"/>
      </contour>
    </TTGlyph>
    <TTGlyph name="H" xMin="-43" yMin="0" xMax="1735" yMax="1462">
      <contour>
        <pt x="829" y="0" on="1"/>
        <pt x="846" y="86" on="1"/>
        <pt x="872" y="86" on="1"/>
        <pt x="970" y="86" on="0"/>
        <pt x="1058" y="159" on="0"/>
        <pt x="1073" y="233" on="1"/>
        <pt x="1174" y="713" on="1"/>
        <pt x="508" y="713" on="1"/>
        <pt x="406" y="225" on="1"/>
        <pt x="397" y="182" on="0"/>
        <pt x="397" y="168" on="1"/>
        <pt x="397" y="86" on="0"/>
        <pt x="545" y="86" on="1"/>
        <pt x="571" y="86" on="1"/>
        <pt x="553" y="0" on="1"/>
        <pt x="-43" y="0" on="1"/>
        <pt x="-27" y="86" on="1"/>
        <pt x="0" y="86" on="1"/>
        <pt x="99" y="86" on="0"/>
        <pt x="185" y="161" on="0"/>
        <pt x="201" y="233" on="1"/>
        <pt x="414" y="1237" on="1"/>
        <pt x="422" y="1275" on="0"/>
        <pt x="422" y="1294" on="1"/>
        <pt x="422" y="1376" on="0"/>
        <pt x="274" y="1376" on="1"/>
        <pt x="248" y="1376" on="1"/>
        <pt x="266" y="1462" on="1"/>
        <pt x="862" y="1462" on="1"/>
        <pt x="844" y="1376" on="1"/>
        <pt x="817" y="1376" on="1"/>
        <pt x="719" y="1376" on="0"/>
        <pt x="633" y="1302" on="0"/>
        <pt x="618" y="1229" on="1"/>
        <pt x="530" y="815" on="1"/>
        <pt x="1196" y="815" on="1"/>
        <pt x="1286" y="1237" on="1"/>
        <pt x="1294" y="1275" on="0"/>
        <pt x="1294" y="1294" on="1"/>
        <pt x="1294" y="1376" on="0"/>
        <pt x="1147" y="1376" on="1"/>
        <pt x="1120" y="1376" on="1"/>
        <pt x="1139" y="1462" on="1"/>
        <pt x="1735" y="1462" on="1"/>
        <pt x="1716" y="1376" on="1"/>
        <pt x="1690" y="1376" on="1"/>
        <pt x="1592" y="1376" on="0"/>
        <pt x="1506" y="1301" on="0"/>
        <pt x="1491" y="1229" on="1"/>
        <pt x="1278" y="225" on="1"/>
        <pt x="1270" y="187" on="0"/>
        <pt x="1270" y="168" on="1"/>
        <pt x="1270" y="86" on="0"/>
        <pt x="1417" y="86" on="1"/>
        <pt x="1444" y="86" on="1"/>
        <pt x="1425" y="0" on="1"/>
      </contour>
    </TTGlyph>
    <TTGlyph name="I" xMin="-43" yMin="0" xMax="862" yMax="1462">
      <contour>
        <pt x="862" y="1462" on="1"/>
        <pt x="844" y="1376" on="1"/>
        <pt x="817" y="1376" on="1"/>
        <pt x="719" y="1376" on="0"/>
        <pt x="633" y="1302" on="0"/>
        <pt x="618" y="1229" on="1"/>
        <pt x="406" y="225" on="1"/>
        <pt x="397" y="182" on="0"/>
        <pt x="397" y="168" on="1"/>
        <pt x="397" y="86" on="0"/>
        <pt x="545" y="86" on="1"/>
        <pt x="571" y="86" on="1"/>
        <pt x="553" y="0" on="1"/>
        <pt x="-43" y="0" on="1"/>
        <pt x="-27" y="86" on="1"/>
        <pt x="0" y="86" on="1"/>
        <pt x="170" y="86" on="0"/>
        <pt x="201" y="233" on="1"/>
        <pt x="414" y="1237" on="1"/>
        <pt x="422" y="1275" on="0"/>
        <pt x="422" y="1294" on="1"/>
        <pt x="422" y="1376" on="0"/>
        <pt x="274" y="1376" on="1"/>
        <pt x="248" y="1376" on="1"/>
        <pt x="266" y="1462" on="1"/>
      </contour>
    </TTGlyph>
    <TTGlyph name="Iacute" xMin="-43" yMin="0" xMax="914" yMax="1907">
      <component glyphName="I" x="0" y="0" flags="0x1204"/>
      <component glyphName="acute" x="-32" y="338" flags="0x1004"/>
    </TTGlyph>
    <TTGlyph name="Icircumflex" xMin="-43" yMin="0" xMax="884" yMax="1907">
      <component glyphName="I" x="0" y="0" flags="0x1204"/>
      <component glyphName="circumflex" x="-101" y="338" flags="0x1004"/>
    </TTGlyph>
    <TTGlyph name="Idieresis" xMin="-43" yMin="0" xMax="904" yMax="1864">
      <component glyphName="I" x="0" y="0" flags="0x1204"/>
      <component glyphName="dieresis" x="-110" y="338" flags="0x1004"/>
    </TTGlyph>
    <TTGlyph name="Igrave" xMin="-43" yMin="0" xMax="862" yMax="1907">
      <component glyphName="I" x="0" y="0" flags="0x1204"/>
      <component glyphName="grave" x="-222" y="338" flags="0x1004"/>
    </TTGlyph>
    <TTGlyph name="J" xMin="-317" yMin="-492" xMax="852" yMax="1462">
      <contour>
        <pt x="852" y="1462" on="1"/>
        <pt x="834" y="1376" on="1"/>
        <pt x="807" y="1376" on="1"/>
        <pt x="709" y="1376" on="0"/>
        <pt x="623" y="1302" on="0"/>
        <pt x="608" y="1229" on="1"/>
        <pt x="342" y="-16" on="1"/>
        <pt x="288" y="-267" on="0"/>
        <pt x="53" y="-492" on="0"/>
        <pt x="-150" y="-492" on="1"/>
        <pt x="-241" y="-492" on="0"/>
        <pt x="-317" y="-469" on="1"/>
        <pt x="-289" y="-377" on="1"/>
        <pt x="-238" y="-395" on="0"/>
        <pt x="-156" y="-395" on="1"/>
        <pt x="-37" y="-395" on="0"/>
        <pt x="95" y="-217" on="0"/>
        <pt x="137" y="-18" on="1"/>
        <pt x="403" y="1237" on="1"/>
        <pt x="412" y="1279" on="0"/>
        <pt x="412" y="1294" on="1"/>
        <pt x="412" y="1376" on="0"/>
        <pt x="264" y="1376" on="1"/>
        <pt x="238" y="1376" on="1"/>
        <pt x="256" y="1462" on="1"/>
      </contour>
    </TTGlyph>
    <TTGlyph name="K" xMin="-43" yMin="0" xMax="1554" yMax="1462">
      <contour>
        <pt x="-27" y="86" on="1"/>
        <pt x="0" y="86" on="1"/>
        <pt x="99" y="86" on="0"/>
        <pt x="185" y="161" on="0"/>
        <pt x="201" y="233" on="1"/>
        <pt x="414" y="1237" on="1"/>
        <pt x="422" y="1275" on="0"/>
        <pt x="422" y="1294" on="1"/>
        <pt x="422" y="1376" on="0"/>
        <pt x="274" y="1376" on="1"/>
        <pt x="248" y="1376" on="1"/>
        <pt x="266" y="1462" on="1"/>
        <pt x="862" y="1462" on="1"/>
        <pt x="844" y="1376" on="1"/>
        <pt x="817" y="1376" on="1"/>
        <pt x="719" y="1376" on="0"/>
        <pt x="633" y="1302" on="0"/>
        <pt x="618" y="1229" on="1"/>
        <pt x="530" y="815" on="1"/>
        <pt x="494" y="664" on="1"/>
        <pt x="1022" y="1149" on="1"/>
        <pt x="1176" y="1290" on="0"/>
        <pt x="1176" y="1333" on="1"/>
        <pt x="1176" y="1378" on="0"/>
        <pt x="1085" y="1378" on="1"/>
        <pt x="1102" y="1462" on="1"/>
        <pt x="1554" y="1462" on="1"/>
        <pt x="1538" y="1378" on="1"/>
        <pt x="1485" y="1378" on="0"/>
        <pt x="1355" y="1307" on="0"/>
        <pt x="1223" y="1186" on="1"/>
        <pt x="850" y="848" on="1"/>
        <pt x="1098" y="250" on="1"/>
        <pt x="1166" y="86" on="0"/>
        <pt x="1292" y="86" on="1"/>
        <pt x="1298" y="86" on="1"/>
        <pt x="1280" y="0" on="1"/>
        <pt x="1251" y="0" on="1"/>
        <pt x="1089" y="0" on="0"/>
        <pt x="931" y="67" on="0"/>
        <pt x="883" y="190" on="1"/>
        <pt x="684" y="696" on="1"/>
        <pt x="473" y="549" on="1"/>
        <pt x="406" y="225" on="1"/>
        <pt x="397" y="181" on="0"/>
        <pt x="397" y="168" on="1"/>
        <pt x="397" y="86" on="0"/>
        <pt x="545" y="86" on="1"/>
        <pt x="571" y="86" on="1"/>
        <pt x="553" y="0" on="1"/>
        <pt x="-43" y="0" on="1"/>
      </contour>
    </TTGlyph>
    <TTGlyph name="L" xMin="-41" yMin="0" xMax="1161" yMax="1462">
      <contour>
        <pt x="-23" y="86" on="1"/>
        <pt x="4" y="86" on="1"/>
        <pt x="100" y="86" on="0"/>
        <pt x="184" y="161" on="0"/>
        <pt x="201" y="233" on="1"/>
        <pt x="414" y="1237" on="1"/>
        <pt x="422" y="1275" on="0"/>
        <pt x="422" y="1294" on="1"/>
        <pt x="422" y="1376" on="0"/>
        <pt x="274" y="1376" on="1"/>
        <pt x="248" y="1376" on="1"/>
        <pt x="266" y="1462" on="1"/>
        <pt x="862" y="1462" on="1"/>
        <pt x="844" y="1376" on="1"/>
        <pt x="817" y="1376" on="1"/>
        <pt x="720" y="1376" on="0"/>
        <pt x="636" y="1307" on="0"/>
        <pt x="621" y="1237" on="1"/>
        <pt x="379" y="102" on="1"/>
        <pt x="782" y="102" on="1"/>
        <pt x="939" y="102" on="0"/>
        <pt x="1001" y="287" on="1"/>
        <pt x="1055" y="440" on="1"/>
        <pt x="1161" y="440" on="1"/>
        <pt x="1055" y="0" on="1"/>
        <pt x="-41" y="0" on="1"/>
      </contour>
    </TTGlyph>
    <TTGlyph name="M" xMin="-41" yMin="0" xMax="2032" yMax="1462">
      <contour>
        <pt x="1178" y="0" on="1"/>
        <pt x="1196" y="86" on="1"/>
        <pt x="1202" y="86" on="1"/>
        <pt x="1289" y="86" on="0"/>
        <pt x="1359" y="151" on="0"/>
        <pt x="1376" y="215" on="1"/>
        <pt x="1610" y="1309" on="1"/>
        <pt x="862" y="0" on="1"/>
        <pt x="752" y="0" on="1"/>
        <pt x="553" y="1309" on="1"/>
        <pt x="324" y="225" on="1"/>
        <pt x="315" y="182" on="0"/>
        <pt x="315" y="168" on="1"/>
        <pt x="315" y="86" on="0"/>
        <pt x="463" y="86" on="1"/>
        <pt x="489" y="86" on="1"/>
        <pt x="471" y="0" on="1"/>
        <pt x="-41" y="0" on="1"/>
        <pt x="-23" y="86" on="1"/>
        <pt x="4" y="86" on="1"/>
        <pt x="106" y="86" on="0"/>
        <pt x="185" y="158" on="0"/>
        <pt x="199" y="223" on="1"/>
        <pt x="414" y="1237" on="1"/>
        <pt x="422" y="1275" on="0"/>
        <pt x="422" y="1294" on="1"/>
        <pt x="422" y="1376" on="0"/>
        <pt x="274" y="1376" on="1"/>
        <pt x="248" y="1376" on="1"/>
        <pt x="266" y="1462" on="1"/>
        <pt x="731" y="1462" on="1"/>
        <pt x="905" y="295" on="1"/>
        <pt x="1575" y="1462" on="1"/>
        <pt x="2032" y="1462" on="1"/>
        <pt x="2013" y="1376" on="1"/>
        <pt x="1987" y="1376" on="1"/>
        <pt x="1889" y="1376" on="0"/>
        <pt x="1803" y="1301" on="0"/>
        <pt x="1788" y="1229" on="1"/>
        <pt x="1575" y="225" on="1"/>
        <pt x="1567" y="187" on="0"/>
        <pt x="1567" y="168" on="1"/>
        <pt x="1567" y="86" on="0"/>
        <pt x="1714" y="86" on="1"/>
        <pt x="1741" y="86" on="1"/>
        <pt x="1722" y="0" on="1"/>
      </contour>
    </TTGlyph>
    <TTGlyph name="N" xMin="-41" yMin="0" xMax="1694" yMax="1462">
      <contour>
        <pt x="1327" y="1237" on="1"/>
        <pt x="1335" y="1275" on="0"/>
        <pt x="1335" y="1294" on="1"/>
        <pt x="1335" y="1376" on="0"/>
        <pt x="1188" y="1376" on="1"/>
        <pt x="1161" y="1376" on="1"/>
        <pt x="1180" y="1462" on="1"/>
        <pt x="1694" y="1462" on="1"/>
        <pt x="1675" y="1376" on="1"/>
        <pt x="1649" y="1376" on="1"/>
        <pt x="1551" y="1376" on="0"/>
        <pt x="1466" y="1301" on="0"/>
        <pt x="1450" y="1229" on="1"/>
        <pt x="1190" y="0" on="1"/>
        <pt x="1057" y="0" on="1"/>
        <pt x="530" y="1200" on="1"/>
        <pt x="324" y="225" on="1"/>
        <pt x="315" y="182" on="0"/>
        <pt x="315" y="168" on="1"/>
        <pt x="315" y="86" on="0"/>
        <pt x="463" y="86" on="1"/>
        <pt x="489" y="86" on="1"/>
        <pt x="471" y="0" on="1"/>
        <pt x="-41" y="0" on="1"/>
        <pt x="-23" y="86" on="1"/>
        <pt x="4" y="86" on="1"/>
        <pt x="100" y="86" on="0"/>
        <pt x="184" y="161" on="0"/>
        <pt x="201" y="233" on="1"/>
        <pt x="414" y="1237" on="1"/>
        <pt x="422" y="1275" on="0"/>
        <pt x="422" y="1294" on="1"/>
        <pt x="422" y="1376" on="0"/>
        <pt x="274" y="1376" on="1"/>
        <pt x="248" y="1376" on="1"/>
        <pt x="266" y="1462" on="1"/>
        <pt x="639" y="1462" on="1"/>
        <pt x="1135" y="332" on="1"/>
      </contour>
    </TTGlyph>
    <TTGlyph name="Ntilde" xMin="-41" yMin="0" xMax="1694" yMax="1841">
      <component glyphName="N" x="0" y="0" flags="0x1204"/>
      <component glyphName="tilde" x="319" y="338" flags="0x1004"/>
    </TTGlyph>
    <TTGlyph name="O" xMin="106" yMin="-23" xMax="1456" yMax="1485">
      <contour>
        <pt x="926" y="1485" on="1"/>
        <pt x="1164" y="1485" on="0"/>
        <pt x="1456" y="1189" on="0"/>
        <pt x="1456" y="922" on="1"/>
        <pt x="1456" y="571" on="0"/>
        <pt x="1000" y="-23" on="0"/>
        <pt x="643" y="-23" on="1"/>
        <pt x="400" y="-23" on="0"/>
        <pt x="106" y="284" on="0"/>
        <pt x="106" y="545" on="1"/>
        <pt x="106" y="897" on="0"/>
        <pt x="566" y="1485" on="0"/>
      </contour>
      <contour>
        <pt x="655" y="90" on="1"/>
        <pt x="910" y="90" on="0"/>
        <pt x="1231" y="655" on="0"/>
        <pt x="1231" y="977" on="1"/>
        <pt x="1231" y="1168" on="0"/>
        <pt x="1062" y="1374" on="0"/>
        <pt x="909" y="1374" on="1"/>
        <pt x="653" y="1374" on="0"/>
        <pt x="330" y="807" on="0"/>
        <pt x="330" y="487" on="1"/>
        <pt x="330" y="295" on="0"/>
        <pt x="504" y="90" on="0"/>
      </contour>
    </TTGlyph>
    <TTGlyph name="Oacute" xMin="106" yMin="-23" xMax="1456" yMax="1907">
      <component glyphName="O" x="0" y="0" flags="0x1204"/>
      <component glyphName="acute" x="319" y="338" flags="0x1004"/>
    </TTGlyph>
    <TTGlyph name="Ocircumflex" xMin="106" yMin="-23" xMax="1456" yMax="1907">
      <component glyphName="O" x="0" y="0" flags="0x1204"/>
      <component glyphName="circumflex" x="258" y="338" flags="0x1004"/>
    </TTGlyph>
    <TTGlyph name="Odieresis" xMin="106" yMin="-23" xMax="1456" yMax="1864">
      <component glyphName="O" x="0" y="0" flags="0x1204"/>
      <component glyphName="dieresis" x="266" y="338" flags="0x1004"/>
    </TTGlyph>
    <TTGlyph name="Ograve" xMin="106" yMin="-23" xMax="1456" yMax="1907">
      <component glyphName="O" x="0" y="0" flags="0x1204"/>
      <component glyphName="grave" x="193" y="338" flags="0x1004"/>
    </TTGlyph>
    <TTGlyph name="Oslash" xMin="106" yMin="-82" xMax="1456" yMax="1546">
      <contour>
        <pt x="1217" y="1409" on="1"/>
        <pt x="1323" y="1546" on="1"/>
        <pt x="1442" y="1546" on="1"/>
        <pt x="1292" y="1352" on="1"/>
        <pt x="1456" y="1200" on="0"/>
        <pt x="1456" y="922" on="1"/>
        <pt x="1456" y="571" on="0"/>
        <pt x="1000" y="-23" on="0"/>
        <pt x="643" y="-23" on="1"/>
        <pt x="478" y="-23" on="0"/>
        <pt x="354" y="51" on="1"/>
        <pt x="258" y="-82" on="1"/>
        <pt x="137" y="-82" on="1"/>
        <pt x="274" y="109" on="1"/>
        <pt x="106" y="265" on="0"/>
        <pt x="106" y="545" on="1"/>
        <pt x="106" y="897" on="0"/>
        <pt x="566" y="1485" on="0"/>
        <pt x="926" y="1485" on="1"/>
        <pt x="1091" y="1485" on="0"/>
      </contour>
      <contour>
        <pt x="379" y="250" on="1"/>
        <pt x="1130" y="1288" on="1"/>
        <pt x="1046" y="1374" on="0"/>
        <pt x="909" y="1374" on="1"/>
        <pt x="653" y="1374" on="0"/>
        <pt x="330" y="807" on="0"/>
        <pt x="330" y="487" on="1"/>
        <pt x="330" y="348" on="0"/>
      </contour>
      <contour>
        <pt x="1188" y="1204" on="1"/>
        <pt x="438" y="168" on="1"/>
        <pt x="524" y="90" on="0"/>
        <pt x="655" y="90" on="1"/>
        <pt x="910" y="90" on="0"/>
        <pt x="1231" y="655" on="0"/>
        <pt x="1231" y="977" on="1"/>
        <pt x="1231" y="1106" on="0"/>
      </contour>
    </TTGlyph>
    <TTGlyph name="Otilde" xMin="106" yMin="-23" xMax="1456" yMax="1841">
      <component glyphName="O" x="0" y="0" flags="0x1204"/>
      <component glyphName="tilde" x="244" y="338" flags="0x1004"/>
    </TTGlyph>
    <TTGlyph name="P" xMin="-41" yMin="0" xMax="1257" yMax="1462">
      <contour>
        <pt x="-41" y="0" on="1"/>
        <pt x="-23" y="86" on="1"/>
        <pt x="4" y="86" on="1"/>
        <pt x="100" y="86" on="0"/>
        <pt x="186" y="160" on="0"/>
        <pt x="201" y="233" on="1"/>
        <pt x="414" y="1237" on="1"/>
        <pt x="422" y="1275" on="0"/>
        <pt x="422" y="1294" on="1"/>
        <pt x="422" y="1376" on="0"/>
        <pt x="274" y="1376" on="1"/>
        <pt x="248" y="1376" on="1"/>
        <pt x="266" y="1462" on="1"/>
        <pt x="791" y="1462" on="1"/>
        <pt x="1013" y="1462" on="0"/>
        <pt x="1257" y="1256" on="0"/>
        <pt x="1257" y="1067" on="1"/>
        <pt x="1257" y="834" on="0"/>
        <pt x="944" y="569" on="0"/>
        <pt x="631" y="569" on="1"/>
        <pt x="479" y="569" on="1"/>
        <pt x="406" y="225" on="1"/>
        <pt x="397" y="183" on="0"/>
        <pt x="397" y="168" on="1"/>
        <pt x="397" y="86" on="0"/>
        <pt x="545" y="86" on="1"/>
        <pt x="612" y="86" on="1"/>
        <pt x="594" y="0" on="1"/>
      </contour>
      <contour>
        <pt x="500" y="666" on="1"/>
        <pt x="608" y="666" on="1"/>
        <pt x="1040" y="666" on="0"/>
        <pt x="1040" y="1065" on="1"/>
        <pt x="1040" y="1364" on="0"/>
        <pt x="741" y="1364" on="1"/>
        <pt x="647" y="1364" on="1"/>
      </contour>
    </TTGlyph>
    <TTGlyph name="Q" xMin="106" yMin="-463" xMax="1456" yMax="1485">
      <contour>
        <pt x="752" y="-14" on="1"/>
        <pt x="761" y="-197" on="0"/>
        <pt x="866" y="-362" on="0"/>
        <pt x="973" y="-362" on="1"/>
        <pt x="1047" y="-362" on="0"/>
        <pt x="1112" y="-344" on="1"/>
        <pt x="1126" y="-430" on="1"/>
        <pt x="1023" y="-463" on="0"/>
        <pt x="924" y="-463" on="1"/>
        <pt x="547" y="-463" on="0"/>
        <pt x="530" y="-12" on="1"/>
        <pt x="331" y="22" on="0"/>
        <pt x="106" y="320" on="0"/>
        <pt x="106" y="545" on="1"/>
        <pt x="106" y="897" on="0"/>
        <pt x="566" y="1485" on="0"/>
        <pt x="926" y="1485" on="1"/>
        <pt x="1164" y="1485" on="0"/>
        <pt x="1456" y="1189" on="0"/>
        <pt x="1456" y="922" on="1"/>
        <pt x="1456" y="611" on="0"/>
        <pt x="1074" y="36" on="0"/>
      </contour>
      <contour>
        <pt x="655" y="90" on="1"/>
        <pt x="910" y="90" on="0"/>
        <pt x="1231" y="655" on="0"/>
        <pt x="1231" y="977" on="1"/>
        <pt x="1231" y="1168" on="0"/>
        <pt x="1062" y="1374" on="0"/>
        <pt x="909" y="1374" on="1"/>
        <pt x="653" y="1374" on="0"/>
        <pt x="330" y="807" on="0"/>
        <pt x="330" y="487" on="1"/>
        <pt x="330" y="295" on="0"/>
        <pt x="504" y="90" on="0"/>
      </contour>
    </TTGlyph>
    <TTGlyph name="R" xMin="-76" yMin="0" xMax="1237" yMax="1462">
      <contour>
        <pt x="461" y="645" on="1"/>
        <pt x="371" y="225" on="1"/>
        <pt x="362" y="183" on="0"/>
        <pt x="362" y="168" on="1"/>
        <pt x="362" y="86" on="0"/>
        <pt x="510" y="86" on="1"/>
        <pt x="578" y="86" on="1"/>
        <pt x="559" y="0" on="1"/>
        <pt x="-76" y="0" on="1"/>
        <pt x="-57" y="86" on="1"/>
        <pt x="-31" y="86" on="1"/>
        <pt x="71" y="86" on="0"/>
        <pt x="150" y="158" on="0"/>
        <pt x="164" y="223" on="1"/>
        <pt x="379" y="1237" on="1"/>
        <pt x="387" y="1275" on="0"/>
        <pt x="387" y="1294" on="1"/>
        <pt x="387" y="1376" on="0"/>
        <pt x="240" y="1376" on="1"/>
        <pt x="213" y="1376" on="1"/>
        <pt x="231" y="1462" on="1"/>
        <pt x="768" y="1462" on="1"/>
        <pt x="1237" y="1462" on="0"/>
        <pt x="1237" y="1114" on="1"/>
        <pt x="1237" y="776" on="0"/>
        <pt x="858" y="686" on="1"/>
        <pt x="1006" y="248" on="1"/>
        <pt x="1042" y="143" on="0"/>
        <pt x="1116" y="86" on="0"/>
        <pt x="1174" y="86" on="1"/>
        <pt x="1190" y="86" on="1"/>
        <pt x="1174" y="0" on="1"/>
        <pt x="1147" y="0" on="1"/>
        <pt x="971" y="0" on="0"/>
        <pt x="825" y="93" on="0"/>
        <pt x="782" y="240" on="1"/>
        <pt x="664" y="645" on="1"/>
      </contour>
      <contour>
        <pt x="481" y="741" on="1"/>
        <pt x="639" y="741" on="1"/>
        <pt x="822" y="741" on="0"/>
        <pt x="1020" y="928" on="0"/>
        <pt x="1020" y="1102" on="1"/>
        <pt x="1020" y="1238" on="0"/>
        <pt x="899" y="1364" on="0"/>
        <pt x="752" y="1364" on="1"/>
        <pt x="612" y="1364" on="1"/>
      </contour>
    </TTGlyph>
    <TTGlyph name="S" xMin="14" yMin="-20" xMax="1133" yMax="1483">
      <contour>
        <pt x="172" y="428" on="1"/>
        <pt x="172" y="271" on="0"/>
        <pt x="338" y="80" on="0"/>
        <pt x="483" y="80" on="1"/>
        <pt x="626" y="80" on="0"/>
        <pt x="795" y="222" on="0"/>
        <pt x="795" y="344" on="1"/>
        <pt x="795" y="441" on="0"/>
        <pt x="698" y="575" on="0"/>
        <pt x="537" y="666" on="1"/>
        <pt x="373" y="761" on="0"/>
        <pt x="246" y="961" on="0"/>
        <pt x="246" y="1087" on="1"/>
        <pt x="246" y="1264" on="0"/>
        <pt x="514" y="1483" on="0"/>
        <pt x="743" y="1483" on="1"/>
        <pt x="921" y="1483" on="0"/>
        <pt x="1133" y="1359" on="0"/>
        <pt x="1133" y="1262" on="1"/>
        <pt x="1133" y="1120" on="0"/>
        <pt x="952" y="1120" on="1"/>
        <pt x="952" y="1240" on="0"/>
        <pt x="838" y="1380" on="0"/>
        <pt x="727" y="1380" on="1"/>
        <pt x="605" y="1380" on="0"/>
        <pt x="449" y="1240" on="0"/>
        <pt x="449" y="1122" on="1"/>
        <pt x="449" y="1035" on="0"/>
        <pt x="532" y="908" on="0"/>
        <pt x="702" y="809" on="1"/>
        <pt x="863" y="715" on="0"/>
        <pt x="1006" y="529" on="0"/>
        <pt x="1006" y="410" on="1"/>
        <pt x="1006" y="207" on="0"/>
        <pt x="722" y="-20" on="0"/>
        <pt x="469" y="-20" on="1"/>
        <pt x="260" y="-20" on="0"/>
        <pt x="14" y="145" on="0"/>
        <pt x="14" y="272" on="1"/>
        <pt x="14" y="343" on="0"/>
        <pt x="103" y="428" on="0"/>
      </contour>
    </TTGlyph>
    <TTGlyph name="T" xMin="156" yMin="0" xMax="1395" yMax="1462">
      <contour>
        <pt x="657" y="225" on="1"/>
        <pt x="649" y="187" on="0"/>
        <pt x="649" y="168" on="1"/>
        <pt x="649" y="86" on="0"/>
        <pt x="797" y="86" on="1"/>
        <pt x="844" y="86" on="1"/>
        <pt x="825" y="0" on="1"/>
        <pt x="188" y="0" on="1"/>
        <pt x="207" y="86" on="1"/>
        <pt x="254" y="86" on="1"/>
        <pt x="357" y="86" on="0"/>
        <pt x="437" y="157" on="0"/>
        <pt x="451" y="223" on="1"/>
        <pt x="692" y="1360" on="1"/>
        <pt x="496" y="1360" on="1"/>
        <pt x="350" y="1360" on="0"/>
        <pt x="291" y="1192" on="1"/>
        <pt x="262" y="1104" on="1"/>
        <pt x="156" y="1104" on="1"/>
        <pt x="242" y="1462" on="1"/>
        <pt x="1395" y="1462" on="1"/>
        <pt x="1329" y="1104" on="1"/>
        <pt x="1223" y="1104" on="1"/>
        <pt x="1233" y="1184" on="0"/>
        <pt x="1233" y="1229" on="1"/>
        <pt x="1233" y="1360" on="0"/>
        <pt x="1098" y="1360" on="1"/>
        <pt x="899" y="1360" on="1"/>
      </contour>
    </TTGlyph>
    <TTGlyph name="Thorn" xMin="-41" yMin="0" xMax="1202" yMax="1462">
      <contour>
        <pt x="-41" y="0" on="1"/>
        <pt x="-23" y="86" on="1"/>
        <pt x="4" y="86" on="1"/>
        <pt x="100" y="86" on="0"/>
        <pt x="186" y="160" on="0"/>
        <pt x="201" y="233" on="1"/>
        <pt x="414" y="1237" on="1"/>
        <pt x="422" y="1275" on="0"/>
        <pt x="422" y="1294" on="1"/>
        <pt x="422" y="1376" on="0"/>
        <pt x="274" y="1376" on="1"/>
        <pt x="248" y="1376" on="1"/>
        <pt x="266" y="1462" on="1"/>
        <pt x="883" y="1462" on="1"/>
        <pt x="864" y="1376" on="1"/>
        <pt x="817" y="1376" on="1"/>
        <pt x="714" y="1376" on="0"/>
        <pt x="632" y="1299" on="0"/>
        <pt x="618" y="1229" on="1"/>
        <pt x="614" y="1208" on="1"/>
        <pt x="735" y="1208" on="1"/>
        <pt x="957" y="1208" on="0"/>
        <pt x="1202" y="1002" on="0"/>
        <pt x="1202" y="813" on="1"/>
        <pt x="1202" y="580" on="0"/>
        <pt x="887" y="315" on="0"/>
        <pt x="575" y="315" on="1"/>
        <pt x="424" y="315" on="1"/>
        <pt x="406" y="225" on="1"/>
        <pt x="397" y="180" on="0"/>
        <pt x="397" y="168" on="1"/>
        <pt x="397" y="86" on="0"/>
        <pt x="545" y="86" on="1"/>
        <pt x="592" y="86" on="1"/>
        <pt x="573" y="0" on="1"/>
      </contour>
      <contour>
        <pt x="444" y="412" on="1"/>
        <pt x="553" y="412" on="1"/>
        <pt x="985" y="412" on="0"/>
        <pt x="985" y="811" on="1"/>
        <pt x="985" y="1110" on="0"/>
        <pt x="686" y="1110" on="1"/>
        <pt x="592" y="1110" on="1"/>
      </contour>
    </TTGlyph>
    <TTGlyph name="U" xMin="197" yMin="-20" xMax="1630" yMax="1462">
      <contour>
        <pt x="205" y="1376" on="1"/>
        <pt x="223" y="1462" on="1"/>
        <pt x="819" y="1462" on="1"/>
        <pt x="803" y="1376" on="1"/>
        <pt x="776" y="1376" on="1"/>
        <pt x="680" y="1376" on="0"/>
        <pt x="592" y="1303" on="0"/>
        <pt x="575" y="1229" on="1"/>
        <pt x="422" y="506" on="1"/>
        <pt x="397" y="388" on="0"/>
        <pt x="397" y="315" on="1"/>
        <pt x="397" y="102" on="0"/>
        <pt x="692" y="102" on="1"/>
        <pt x="858" y="102" on="0"/>
        <pt x="1052" y="250" on="0"/>
        <pt x="1090" y="422" on="1"/>
        <pt x="1264" y="1237" on="1"/>
        <pt x="1272" y="1274" on="0"/>
        <pt x="1272" y="1294" on="1"/>
        <pt x="1272" y="1376" on="0"/>
        <pt x="1124" y="1376" on="1"/>
        <pt x="1098" y="1376" on="1"/>
        <pt x="1116" y="1462" on="1"/>
        <pt x="1630" y="1462" on="1"/>
        <pt x="1614" y="1376" on="1"/>
        <pt x="1587" y="1376" on="1"/>
        <pt x="1491" y="1376" on="0"/>
        <pt x="1403" y="1303" on="0"/>
        <pt x="1386" y="1229" on="1"/>
        <pt x="1214" y="418" on="1"/>
        <pt x="1121" y="-20" on="0"/>
        <pt x="662" y="-20" on="1"/>
        <pt x="436" y="-20" on="0"/>
        <pt x="197" y="164" on="0"/>
        <pt x="197" y="334" on="1"/>
        <pt x="197" y="417" on="0"/>
        <pt x="219" y="516" on="1"/>
        <pt x="371" y="1237" on="1"/>
        <pt x="379" y="1275" on="0"/>
        <pt x="379" y="1294" on="1"/>
        <pt x="379" y="1376" on="0"/>
        <pt x="231" y="1376" on="1"/>
      </contour>
    </TTGlyph>
    <TTGlyph name="Uacute" xMin="197" yMin="-20" xMax="1630" yMax="1907">
      <component glyphName="U" x="0" y="0" flags="0x1204"/>
      <component glyphName="acute" x="356" y="338" flags="0x1004"/>
    </TTGlyph>
    <TTGlyph name="Ucircumflex" xMin="197" yMin="-20" xMax="1630" yMax="1907">
      <component glyphName="U" x="0" y="0" flags="0x1204"/>
      <component glyphName="circumflex" x="299" y="338" flags="0x1004"/>
    </TTGlyph>
    <TTGlyph name="Udieresis" xMin="197" yMin="-20" xMax="1630" yMax="1864">
      <component glyphName="U" x="0" y="0" flags="0x1204"/>
      <component glyphName="dieresis" x="260" y="338" flags="0x1004"/>
    </TTGlyph>
    <TTGlyph name="Ugrave" xMin="197" yMin="-20" xMax="1630" yMax="1907">
      <component glyphName="U" x="0" y="0" flags="0x1204"/>
      <component glyphName="grave" x="152" y="338" flags="0x1004"/>
    </TTGlyph>
    <TTGlyph name="V" xMin="168" yMin="0" xMax="1569" yMax="1462">
      <contour>
        <pt x="639" y="201" on="1"/>
        <pt x="715" y="378" on="0"/>
        <pt x="805" y="537" on="1"/>
        <pt x="1169" y="1188" on="1"/>
        <pt x="1208" y="1258" on="0"/>
        <pt x="1208" y="1303" on="1"/>
        <pt x="1208" y="1376" on="0"/>
        <pt x="1094" y="1376" on="1"/>
        <pt x="1047" y="1376" on="1"/>
        <pt x="1063" y="1462" on="1"/>
        <pt x="1569" y="1462" on="1"/>
        <pt x="1550" y="1376" on="1"/>
        <pt x="1511" y="1376" on="1"/>
        <pt x="1442" y="1376" on="0"/>
        <pt x="1373" y="1306" on="0"/>
        <pt x="1323" y="1217" on="1"/>
        <pt x="641" y="0" on="1"/>
        <pt x="492" y="0" on="1"/>
        <pt x="317" y="1268" on="1"/>
        <pt x="309" y="1329" on="0"/>
        <pt x="258" y="1376" on="0"/>
        <pt x="195" y="1376" on="1"/>
        <pt x="168" y="1376" on="1"/>
        <pt x="186" y="1462" on="1"/>
        <pt x="743" y="1462" on="1"/>
        <pt x="727" y="1376" on="1"/>
        <pt x="680" y="1376" on="1"/>
        <pt x="614" y="1376" on="0"/>
        <pt x="532" y="1321" on="0"/>
        <pt x="532" y="1272" on="1"/>
        <pt x="532" y="1237" on="0"/>
        <pt x="537" y="1202" on="1"/>
        <pt x="618" y="537" on="1"/>
        <pt x="639" y="365" on="0"/>
      </contour>
    </TTGlyph>
    <TTGlyph name="W" xMin="182" yMin="0" xMax="2306" yMax="1462">
      <contour>
        <pt x="1915" y="1188" on="1"/>
        <pt x="1954" y="1266" on="0"/>
        <pt x="1954" y="1303" on="1"/>
        <pt x="1954" y="1376" on="0"/>
        <pt x="1839" y="1376" on="1"/>
        <pt x="1790" y="1376" on="1"/>
        <pt x="1806" y="1462" on="1"/>
        <pt x="2306" y="1462" on="1"/>
        <pt x="2288" y="1376" on="1"/>
        <pt x="2249" y="1376" on="1"/>
        <pt x="2183" y="1376" on="0"/>
        <pt x="2108" y="1312" on="0"/>
        <pt x="2060" y="1217" on="1"/>
        <pt x="1456" y="0" on="1"/>
        <pt x="1268" y="0" on="1"/>
        <pt x="1176" y="1135" on="1"/>
        <pt x="625" y="0" on="1"/>
        <pt x="438" y="0" on="1"/>
        <pt x="332" y="1268" on="1"/>
        <pt x="327" y="1323" on="0"/>
        <pt x="277" y="1376" on="0"/>
        <pt x="209" y="1376" on="1"/>
        <pt x="182" y="1376" on="1"/>
        <pt x="201" y="1462" on="1"/>
        <pt x="758" y="1462" on="1"/>
        <pt x="739" y="1376" on="1"/>
        <pt x="692" y="1376" on="1"/>
        <pt x="545" y="1376" on="0"/>
        <pt x="545" y="1272" on="1"/>
        <pt x="545" y="1230" on="0"/>
        <pt x="549" y="1202" on="1"/>
        <pt x="598" y="547" on="1"/>
        <pt x="612" y="360" on="0"/>
        <pt x="612" y="201" on="1"/>
        <pt x="698" y="403" on="0"/>
        <pt x="780" y="569" on="1"/>
        <pt x="1210" y="1448" on="1"/>
        <pt x="1358" y="1448" on="1"/>
        <pt x="1425" y="561" on="1"/>
        <pt x="1440" y="360" on="0"/>
        <pt x="1436" y="201" on="1"/>
        <pt x="1526" y="410" on="0"/>
        <pt x="1589" y="537" on="1"/>
      </contour>
    </TTGlyph>
    <TTGlyph name="X" xMin="-100" yMin="0" xMax="1477" yMax="1462">
      <contour>
        <pt x="1458" y="1376" on="1"/>
        <pt x="1440" y="1376" on="1"/>
        <pt x="1384" y="1376" on="0"/>
        <pt x="1295" y="1316" on="0"/>
        <pt x="1208" y="1223" on="1"/>
        <pt x="821" y="795" on="1"/>
        <pt x="1067" y="195" on="1"/>
        <pt x="1112" y="86" on="0"/>
        <pt x="1208" y="86" on="1"/>
        <pt x="1235" y="86" on="1"/>
        <pt x="1217" y="0" on="1"/>
        <pt x="664" y="0" on="1"/>
        <pt x="682" y="86" on="1"/>
        <pt x="705" y="86" on="1"/>
        <pt x="766" y="86" on="0"/>
        <pt x="836" y="127" on="0"/>
        <pt x="836" y="158" on="1"/>
        <pt x="836" y="200" on="0"/>
        <pt x="797" y="299" on="1"/>
        <pt x="664" y="625" on="1"/>
        <pt x="358" y="285" on="1"/>
        <pt x="276" y="194" on="0"/>
        <pt x="276" y="141" on="1"/>
        <pt x="276" y="86" on="0"/>
        <pt x="397" y="86" on="1"/>
        <pt x="403" y="86" on="1"/>
        <pt x="385" y="0" on="1"/>
        <pt x="-100" y="0" on="1"/>
        <pt x="-82" y="86" on="1"/>
        <pt x="-74" y="86" on="1"/>
        <pt x="-7" y="86" on="0"/>
        <pt x="98" y="156" on="0"/>
        <pt x="168" y="233" on="1"/>
        <pt x="621" y="727" on="1"/>
        <pt x="401" y="1272" on="1"/>
        <pt x="359" y="1376" on="0"/>
        <pt x="242" y="1376" on="1"/>
        <pt x="215" y="1376" on="1"/>
        <pt x="233" y="1462" on="1"/>
        <pt x="788" y="1462" on="1"/>
        <pt x="770" y="1376" on="1"/>
        <pt x="723" y="1376" on="1"/>
        <pt x="627" y="1376" on="0"/>
        <pt x="627" y="1319" on="1"/>
        <pt x="627" y="1290" on="0"/>
        <pt x="664" y="1196" on="1"/>
        <pt x="780" y="897" on="1"/>
        <pt x="1036" y="1192" on="1"/>
        <pt x="1114" y="1282" on="0"/>
        <pt x="1114" y="1325" on="1"/>
        <pt x="1114" y="1376" on="0"/>
        <pt x="1016" y="1376" on="1"/>
        <pt x="1010" y="1376" on="1"/>
        <pt x="1028" y="1462" on="1"/>
        <pt x="1477" y="1462" on="1"/>
      </contour>
    </TTGlyph>
    <TTGlyph name="Y" xMin="158" yMin="0" xMax="1473" yMax="1462">
      <contour>
        <pt x="729" y="1462" on="1"/>
        <pt x="711" y="1376" on="1"/>
        <pt x="608" y="1376" on="1"/>
        <pt x="524" y="1376" on="0"/>
        <pt x="524" y="1321" on="1"/>
        <pt x="524" y="1281" on="0"/>
        <pt x="551" y="1202" on="1"/>
        <pt x="643" y="928" on="1"/>
        <pt x="692" y="782" on="0"/>
        <pt x="698" y="682" on="1"/>
        <pt x="718" y="720" on="0"/>
        <pt x="852" y="897" on="1"/>
        <pt x="1047" y="1157" on="1"/>
        <pt x="1122" y="1257" on="0"/>
        <pt x="1122" y="1323" on="1"/>
        <pt x="1122" y="1376" on="0"/>
        <pt x="1024" y="1376" on="1"/>
        <pt x="948" y="1376" on="1"/>
        <pt x="967" y="1462" on="1"/>
        <pt x="1473" y="1462" on="1"/>
        <pt x="1454" y="1376" on="1"/>
        <pt x="1415" y="1376" on="1"/>
        <pt x="1376" y="1376" on="0"/>
        <pt x="1299" y="1313" on="0"/>
        <pt x="1229" y="1221" on="1"/>
        <pt x="752" y="596" on="1"/>
        <pt x="672" y="225" on="1"/>
        <pt x="664" y="188" on="0"/>
        <pt x="664" y="168" on="1"/>
        <pt x="664" y="86" on="0"/>
        <pt x="811" y="86" on="1"/>
        <pt x="858" y="86" on="1"/>
        <pt x="840" y="0" on="1"/>
        <pt x="203" y="0" on="1"/>
        <pt x="221" y="86" on="1"/>
        <pt x="268" y="86" on="1"/>
        <pt x="371" y="86" on="0"/>
        <pt x="451" y="157" on="0"/>
        <pt x="465" y="223" on="1"/>
        <pt x="545" y="600" on="1"/>
        <pt x="307" y="1268" on="1"/>
        <pt x="284" y="1333" on="0"/>
        <pt x="239" y="1376" on="0"/>
        <pt x="184" y="1376" on="1"/>
        <pt x="158" y="1376" on="1"/>
        <pt x="176" y="1462" on="1"/>
      </contour>
    </TTGlyph>
    <TTGlyph name="Yacute" xMin="158" yMin="0" xMax="1473" yMax="1907">
      <component glyphName="Y" x="0" y="0" flags="0x1204"/>
      <component glyphName="acute" x="262" y="338" flags="0x1004"/>
    </TTGlyph>
    <TTGlyph name="Z" xMin="-35" yMin="0" xMax="1292" yMax="1462">
      <contour>
        <pt x="1276" y="1378" on="1"/>
        <pt x="244" y="102" on="1"/>
        <pt x="791" y="102" on="1"/>
        <pt x="943" y="102" on="0"/>
        <pt x="997" y="270" on="1"/>
        <pt x="1026" y="358" on="1"/>
        <pt x="1133" y="358" on="1"/>
        <pt x="1047" y="0" on="1"/>
        <pt x="-35" y="0" on="1"/>
        <pt x="-18" y="82" on="1"/>
        <pt x="1012" y="1360" on="1"/>
        <pt x="535" y="1360" on="1"/>
        <pt x="384" y="1360" on="0"/>
        <pt x="330" y="1192" on="1"/>
        <pt x="301" y="1104" on="1"/>
        <pt x="195" y="1104" on="1"/>
        <pt x="281" y="1462" on="1"/>
        <pt x="1292" y="1462" on="1"/>
      </contour>
    </TTGlyph>
    <TTGlyph name="a" xMin="88" yMin="-20" xMax="1176" yMax="1118">
      <contour>
        <pt x="748" y="309" on="1"/>
        <pt x="735" y="309" on="1"/>
        <pt x="588" y="-20" on="0"/>
        <pt x="352" y="-20" on="1"/>
        <pt x="227" y="-20" on="0"/>
        <pt x="88" y="177" on="0"/>
        <pt x="88" y="354" on="1"/>
        <pt x="88" y="636" on="0"/>
        <pt x="439" y="1118" on="0"/>
        <pt x="698" y="1118" on="1"/>
        <pt x="837" y="1118" on="0"/>
        <pt x="938" y="1044" on="1"/>
        <pt x="1028" y="1096" on="1"/>
        <pt x="1094" y="1096" on="1"/>
        <pt x="954" y="440" on="1"/>
        <pt x="924" y="299" on="0"/>
        <pt x="924" y="213" on="1"/>
        <pt x="924" y="109" on="0"/>
        <pt x="991" y="109" on="1"/>
        <pt x="1049" y="109" on="0"/>
        <pt x="1139" y="162" on="1"/>
        <pt x="1176" y="102" on="1"/>
        <pt x="1029" y="-20" on="0"/>
        <pt x="887" y="-20" on="1"/>
        <pt x="727" y="-20" on="0"/>
        <pt x="727" y="150" on="1"/>
        <pt x="727" y="215" on="0"/>
      </contour>
      <contour>
        <pt x="864" y="952" on="1"/>
        <pt x="817" y="1026" on="0"/>
        <pt x="709" y="1026" on="1"/>
        <pt x="534" y="1026" on="0"/>
        <pt x="297" y="581" on="0"/>
        <pt x="297" y="346" on="1"/>
        <pt x="297" y="109" on="0"/>
        <pt x="426" y="109" on="1"/>
        <pt x="528" y="109" on="0"/>
        <pt x="752" y="411" on="0"/>
        <pt x="788" y="590" on="1"/>
      </contour>
    </TTGlyph>
    <TTGlyph name="aacute" xMin="88" yMin="-20" xMax="1176" yMax="1569">
      <component glyphName="a" x="0" y="0" flags="0x1204"/>
      <component glyphName="acute" x="129" y="0" flags="0x1004"/>
    </TTGlyph>
    <TTGlyph name="acircumflex" xMin="88" yMin="-20" xMax="1176" yMax="1569">
      <component glyphName="a" x="0" y="0" flags="0x1204"/>
      <component glyphName="circumflex" x="29" y="0" flags="0x1004"/>
    </TTGlyph>
    <TTGlyph name="acute" xMin="502" yMin="1241" xMax="946" yMax="1569">
      <contour>
        <pt x="508" y="1268" on="1"/>
        <pt x="625" y="1403" on="0"/>
        <pt x="727" y="1569" on="1"/>
        <pt x="946" y="1569" on="1"/>
        <pt x="940" y="1548" on="1"/>
        <pt x="783" y="1365" on="0"/>
        <pt x="584" y="1241" on="1"/>
        <pt x="502" y="1241" on="1"/>
      </contour>
    </TTGlyph>
    <TTGlyph name="adieresis" xMin="88" yMin="-20" xMax="1176" yMax="1526">
      <component glyphName="a" x="0" y="0" flags="0x1204"/>
      <component glyphName="dieresis" x="-9" y="0" flags="0x1004"/>
    </TTGlyph>
    <TTGlyph name="ae" xMin="88" yMin="-20" xMax="1626" yMax="1118">
      <contour>
        <pt x="1477" y="256" on="1"/>
        <pt x="1497" y="242" on="0"/>
        <pt x="1497" y="205" on="1"/>
        <pt x="1497" y="121" on="0"/>
        <pt x="1304" y="-20" on="0"/>
        <pt x="1143" y="-20" on="1"/>
        <pt x="1002" y="-20" on="0"/>
        <pt x="798" y="130" on="0"/>
        <pt x="764" y="274" on="1"/>
        <pt x="648" y="-20" on="0"/>
        <pt x="397" y="-20" on="1"/>
        <pt x="257" y="-20" on="0"/>
        <pt x="88" y="196" on="0"/>
        <pt x="88" y="387" on="1"/>
        <pt x="88" y="665" on="0"/>
        <pt x="417" y="1118" on="0"/>
        <pt x="686" y="1118" on="1"/>
        <pt x="847" y="1118" on="0"/>
        <pt x="999" y="991" on="1"/>
        <pt x="1152" y="1118" on="0"/>
        <pt x="1354" y="1118" on="1"/>
        <pt x="1484" y="1118" on="0"/>
        <pt x="1626" y="994" on="0"/>
        <pt x="1626" y="883" on="1"/>
        <pt x="1626" y="717" on="0"/>
        <pt x="1281" y="471" on="0"/>
        <pt x="1032" y="471" on="1"/>
        <pt x="997" y="471" on="1"/>
        <pt x="979" y="471" on="0"/>
        <pt x="961" y="473" on="1"/>
        <pt x="956" y="448" on="0"/>
        <pt x="956" y="387" on="1"/>
        <pt x="956" y="109" on="0"/>
        <pt x="1182" y="109" on="1"/>
        <pt x="1353" y="109" on="0"/>
      </contour>
      <contour>
        <pt x="905" y="893" on="1"/>
        <pt x="808" y="1026" on="0"/>
        <pt x="696" y="1026" on="1"/>
        <pt x="523" y="1026" on="0"/>
        <pt x="297" y="592" on="0"/>
        <pt x="297" y="365" on="1"/>
        <pt x="297" y="243" on="0"/>
        <pt x="388" y="109" on="0"/>
        <pt x="469" y="109" on="1"/>
        <pt x="571" y="109" on="0"/>
        <pt x="721" y="307" on="0"/>
        <pt x="750" y="475" on="1"/>
        <pt x="788" y="708" on="0"/>
      </contour>
      <contour>
        <pt x="979" y="567" on="1"/>
        <pt x="999" y="567" on="1"/>
        <pt x="1180" y="567" on="0"/>
        <pt x="1415" y="743" on="0"/>
        <pt x="1415" y="883" on="1"/>
        <pt x="1415" y="1020" on="0"/>
        <pt x="1296" y="1020" on="1"/>
        <pt x="1196" y="1020" on="0"/>
        <pt x="1023" y="765" on="0"/>
      </contour>
    </TTGlyph>
    <TTGlyph name="agrave" xMin="88" yMin="-20" xMax="1176" yMax="1569">
      <component glyphName="a" x="0" y="0" flags="0x1204"/>
      <component glyphName="grave" x="-124" y="0" flags="0x1004"/>
    </TTGlyph>
    <TTGlyph name="ampersand" xMin="72" yMin="-20" xMax="1540" yMax="1483">
      <contour>
        <pt x="1096" y="0" on="1"/>
        <pt x="973" y="170" on="1"/>
        <pt x="788" y="-20" on="0"/>
        <pt x="520" y="-20" on="1"/>
        <pt x="309" y="-20" on="0"/>
        <pt x="72" y="189" on="0"/>
        <pt x="72" y="362" on="1"/>
        <pt x="72" y="521" on="0"/>
        <pt x="264" y="741" on="0"/>
        <pt x="502" y="829" on="1"/>
        <pt x="403" y="996" on="0"/>
        <pt x="403" y="1130" on="1"/>
        <pt x="403" y="1300" on="0"/>
        <pt x="626" y="1483" on="0"/>
        <pt x="840" y="1483" on="1"/>
        <pt x="1006" y="1483" on="0"/>
        <pt x="1186" y="1339" on="0"/>
        <pt x="1186" y="1217" on="1"/>
        <pt x="1186" y="1084" on="0"/>
        <pt x="1036" y="920" on="0"/>
        <pt x="739" y="813" on="1"/>
        <pt x="1026" y="420" on="1"/>
        <pt x="1113" y="584" on="0"/>
        <pt x="1155" y="782" on="1"/>
        <pt x="1171" y="862" on="1"/>
        <pt x="1540" y="862" on="1"/>
        <pt x="1522" y="776" on="1"/>
        <pt x="1503" y="776" on="1"/>
        <pt x="1401" y="776" on="0"/>
        <pt x="1309" y="715" on="0"/>
        <pt x="1268" y="658" on="0"/>
        <pt x="1186" y="487" on="1"/>
        <pt x="1147" y="406" on="0"/>
        <pt x="1096" y="326" on="1"/>
        <pt x="1208" y="172" on="1"/>
        <pt x="1271" y="86" on="0"/>
        <pt x="1409" y="86" on="1"/>
        <pt x="1427" y="86" on="1"/>
        <pt x="1409" y="0" on="1"/>
      </contour>
      <contour>
        <pt x="682" y="895" on="1"/>
        <pt x="855" y="960" on="0"/>
        <pt x="999" y="1091" on="0"/>
        <pt x="999" y="1202" on="1"/>
        <pt x="999" y="1283" on="0"/>
        <pt x="904" y="1382" on="0"/>
        <pt x="825" y="1382" on="1"/>
        <pt x="600" y="1382" on="0"/>
        <pt x="600" y="1145" on="1"/>
        <pt x="600" y="1031" on="0"/>
      </contour>
      <contour>
        <pt x="909" y="258" on="1"/>
        <pt x="561" y="741" on="1"/>
        <pt x="401" y="668" on="0"/>
        <pt x="274" y="503" on="0"/>
        <pt x="274" y="367" on="1"/>
        <pt x="274" y="248" on="0"/>
        <pt x="417" y="94" on="0"/>
        <pt x="541" y="94" on="1"/>
        <pt x="753" y="94" on="0"/>
      </contour>
    </TTGlyph>
    <TTGlyph name="aring" xMin="88" yMin="-20" xMax="1176" yMax="1667">
      <component glyphName="a" x="0" y="0" flags="0x1204"/>
      <component glyphName="ring" x="233" y="0" flags="0x1004"/>
    </TTGlyph>
    <TTGlyph name="asciicircum" xMin="121" yMin="545" xMax="1055" yMax="1462">
      <contour>
        <pt x="552" y="1462" on="1"/>
        <pt x="624" y="1462" on="1"/>
        <pt x="1055" y="545" on="1"/>
        <pt x="918" y="545" on="1"/>
        <pt x="588" y="1274" on="1"/>
        <pt x="258" y="545" on="1"/>
        <pt x="121" y="545" on="1"/>
      </contour>
    </TTGlyph>
    <TTGlyph name="asciitilde" xMin="129" yMin="551" xMax="1051" yMax="909">
      <contour>
        <pt x="250" y="551" on="1"/>
        <pt x="129" y="551" on="1"/>
        <pt x="157" y="909" on="0"/>
        <pt x="387" y="909" on="1"/>
        <pt x="481" y="909" on="0"/>
        <pt x="635" y="774" on="1"/>
        <pt x="742" y="672" on="0"/>
        <pt x="803" y="672" on="1"/>
        <pt x="860" y="672" on="0"/>
        <pt x="914" y="796" on="0"/>
        <pt x="928" y="909" on="1"/>
        <pt x="1051" y="909" on="1"/>
        <pt x="1012" y="551" on="0"/>
        <pt x="793" y="551" on="1"/>
        <pt x="696" y="551" on="0"/>
        <pt x="555" y="680" on="1"/>
        <pt x="437" y="788" on="0"/>
        <pt x="379" y="788" on="1"/>
        <pt x="319" y="788" on="0"/>
        <pt x="261" y="671" on="0"/>
      </contour>
    </TTGlyph>
    <TTGlyph name="asterisk" xMin="238" yMin="764" xMax="1106" yMax="1567">
      <contour>
        <pt x="281" y="1354" on="1"/>
        <pt x="385" y="1497" on="1"/>
        <pt x="651" y="1237" on="1"/>
        <pt x="668" y="1567" on="1"/>
        <pt x="842" y="1530" on="1"/>
        <pt x="719" y="1225" on="1"/>
        <pt x="1069" y="1348" on="1"/>
        <pt x="1106" y="1176" on="1"/>
        <pt x="745" y="1149" on="1"/>
        <pt x="1063" y="979" on="1"/>
        <pt x="961" y="840" on="1"/>
        <pt x="690" y="1092" on="1"/>
        <pt x="678" y="764" on="1"/>
        <pt x="504" y="801" on="1"/>
        <pt x="623" y="1106" on="1"/>
        <pt x="274" y="981" on="1"/>
        <pt x="238" y="1153" on="1"/>
        <pt x="596" y="1182" on="1"/>
      </contour>
    </TTGlyph>
    <TTGlyph name="at" xMin="133" yMin="-291" xMax="1778" yMax="1462">
      <contour>
        <pt x="1135" y="344" on="1"/>
        <pt x="1124" y="344" on="1"/>
        <pt x="1027" y="158" on="0"/>
        <pt x="848" y="158" on="1"/>
        <pt x="709" y="158" on="0"/>
        <pt x="537" y="344" on="0"/>
        <pt x="537" y="508" on="1"/>
        <pt x="537" y="726" on="0"/>
        <pt x="819" y="1083" on="0"/>
        <pt x="1059" y="1083" on="1"/>
        <pt x="1173" y="1083" on="0"/>
        <pt x="1251" y="1022" on="1"/>
        <pt x="1333" y="1065" on="1"/>
        <pt x="1382" y="1065" on="1"/>
        <pt x="1278" y="543" on="1"/>
        <pt x="1264" y="473" on="0"/>
        <pt x="1264" y="406" on="1"/>
        <pt x="1264" y="343" on="0"/>
        <pt x="1331" y="266" on="0"/>
        <pt x="1389" y="266" on="1"/>
        <pt x="1490" y="266" on="0"/>
        <pt x="1653" y="571" on="0"/>
        <pt x="1653" y="809" on="1"/>
        <pt x="1653" y="1064" on="0"/>
        <pt x="1341" y="1358" on="0"/>
        <pt x="1073" y="1358" on="1"/>
        <pt x="755" y="1358" on="0"/>
        <pt x="295" y="847" on="0"/>
        <pt x="295" y="451" on="1"/>
        <pt x="295" y="146" on="0"/>
        <pt x="621" y="-184" on="0"/>
        <pt x="905" y="-184" on="1"/>
        <pt x="1187" y="-184" on="0"/>
        <pt x="1425" y="-14" on="1"/>
        <pt x="1473" y="-88" on="1"/>
        <pt x="1198" y="-291" on="0"/>
        <pt x="885" y="-291" on="1"/>
        <pt x="533" y="-291" on="0"/>
        <pt x="133" y="98" on="0"/>
        <pt x="133" y="446" on="1"/>
        <pt x="133" y="885" on="0"/>
        <pt x="673" y="1462" on="0"/>
        <pt x="1085" y="1462" on="1"/>
        <pt x="1407" y="1462" on="0"/>
        <pt x="1778" y="1103" on="0"/>
        <pt x="1778" y="803" on="1"/>
        <pt x="1778" y="525" on="0"/>
        <pt x="1529" y="158" on="0"/>
        <pt x="1376" y="158" on="1"/>
        <pt x="1198" y="158" on="0"/>
      </contour>
      <contour>
        <pt x="1182" y="938" on="1"/>
        <pt x="1153" y="999" on="0"/>
        <pt x="1067" y="999" on="1"/>
        <pt x="913" y="999" on="0"/>
        <pt x="727" y="663" on="0"/>
        <pt x="727" y="479" on="1"/>
        <pt x="727" y="371" on="0"/>
        <pt x="814" y="266" on="0"/>
        <pt x="883" y="266" on="1"/>
        <pt x="1055" y="266" on="0"/>
        <pt x="1104" y="522" on="1"/>
      </contour>
    </TTGlyph>
    <TTGlyph name="atilde" xMin="88" yMin="-20" xMax="1176" yMax="1503">
      <component glyphName="a" x="0" y="0" flags="0x1204"/>
      <component glyphName="tilde" x="-3" y="0" flags="0x1004"/>
    </TTGlyph>
    <TTGlyph name="b" xMin="55" yMin="-20" xMax="1063" yMax="1556">
      <contour>
        <pt x="213" y="53" on="1"/>
        <pt x="121" y="-6" on="1"/>
        <pt x="55" y="-6" on="1"/>
        <pt x="326" y="1266" on="1"/>
        <pt x="344" y="1350" on="0"/>
        <pt x="344" y="1374" on="1"/>
        <pt x="344" y="1470" on="0"/>
        <pt x="201" y="1470" on="1"/>
        <pt x="184" y="1470" on="1"/>
        <pt x="203" y="1556" on="1"/>
        <pt x="590" y="1556" on="1"/>
        <pt x="492" y="1096" on="1"/>
        <pt x="471" y="997" on="0"/>
        <pt x="418" y="825" on="1"/>
        <pt x="428" y="825" on="1"/>
        <pt x="579" y="1118" on="0"/>
        <pt x="803" y="1118" on="1"/>
        <pt x="925" y="1118" on="0"/>
        <pt x="1063" y="930" on="0"/>
        <pt x="1063" y="748" on="1"/>
        <pt x="1063" y="463" on="0"/>
        <pt x="711" y="-20" on="0"/>
        <pt x="453" y="-20" on="1"/>
        <pt x="306" y="-20" on="0"/>
      </contour>
      <contour>
        <pt x="285" y="145" on="1"/>
        <pt x="347" y="72" on="0"/>
        <pt x="444" y="72" on="1"/>
        <pt x="622" y="72" on="0"/>
        <pt x="854" y="526" on="0"/>
        <pt x="854" y="750" on="1"/>
        <pt x="854" y="989" on="0"/>
        <pt x="725" y="989" on="1"/>
        <pt x="613" y="989" on="0"/>
        <pt x="400" y="678" on="0"/>
        <pt x="373" y="551" on="1"/>
      </contour>
    </TTGlyph>
    <TTGlyph name="backslash" xMin="231" yMin="-248" xMax="438" yMax="1556">
      <contour>
        <pt x="231" y="1556" on="1"/>
        <pt x="350" y="1556" on="1"/>
        <pt x="438" y="-248" on="1"/>
        <pt x="317" y="-248" on="1"/>
      </contour>
    </TTGlyph>
    <TTGlyph name="bar" xMin="526" yMin="-492" xMax="649" yMax="1556">
      <contour>
        <pt x="649" y="-492" on="1"/>
        <pt x="526" y="-492" on="1"/>
        <pt x="526" y="1556" on="1"/>
        <pt x="649" y="1556" on="1"/>
      </contour>
    </TTGlyph>
    <TTGlyph name="braceleft" xMin="139" yMin="-262" xMax="811" yMax="1556">
      <contour>
        <pt x="676" y="-262" on="1"/>
        <pt x="537" y="-262" on="0"/>
        <pt x="381" y="-108" on="0"/>
        <pt x="381" y="33" on="1"/>
        <pt x="381" y="389" on="1"/>
        <pt x="381" y="599" on="0"/>
        <pt x="139" y="606" on="1"/>
        <pt x="139" y="692" on="1"/>
        <pt x="381" y="697" on="0"/>
        <pt x="381" y="907" on="1"/>
        <pt x="381" y="1264" on="1"/>
        <pt x="381" y="1556" on="0"/>
        <pt x="676" y="1556" on="1"/>
        <pt x="811" y="1556" on="1"/>
        <pt x="811" y="1468" on="1"/>
        <pt x="750" y="1468" on="1"/>
        <pt x="582" y="1468" on="0"/>
        <pt x="582" y="1253" on="1"/>
        <pt x="582" y="903" on="1"/>
        <pt x="582" y="689" on="0"/>
        <pt x="354" y="651" on="1"/>
        <pt x="354" y="649" on="1"/>
        <pt x="582" y="610" on="0"/>
        <pt x="582" y="395" on="1"/>
        <pt x="582" y="41" on="1"/>
        <pt x="582" y="-174" on="0"/>
        <pt x="750" y="-174" on="1"/>
        <pt x="811" y="-174" on="1"/>
        <pt x="811" y="-262" on="1"/>
      </contour>
    </TTGlyph>
    <TTGlyph name="braceright" xMin="129" yMin="-262" xMax="801" yMax="1556">
      <contour>
        <pt x="129" y="-174" on="1"/>
        <pt x="190" y="-174" on="1"/>
        <pt x="358" y="-174" on="0"/>
        <pt x="358" y="41" on="1"/>
        <pt x="358" y="395" on="1"/>
        <pt x="358" y="610" on="0"/>
        <pt x="586" y="649" on="1"/>
        <pt x="586" y="651" on="1"/>
        <pt x="358" y="689" on="0"/>
        <pt x="358" y="903" on="1"/>
        <pt x="358" y="1253" on="1"/>
        <pt x="358" y="1468" on="0"/>
        <pt x="190" y="1468" on="1"/>
        <pt x="129" y="1468" on="1"/>
        <pt x="129" y="1556" on="1"/>
        <pt x="264" y="1556" on="1"/>
        <pt x="559" y="1556" on="0"/>
        <pt x="559" y="1264" on="1"/>
        <pt x="559" y="907" on="1"/>
        <pt x="559" y="697" on="0"/>
        <pt x="801" y="692" on="1"/>
        <pt x="801" y="606" on="1"/>
        <pt x="559" y="599" on="0"/>
        <pt x="559" y="389" on="1"/>
        <pt x="559" y="33" on="1"/>
        <pt x="559" y="-108" on="0"/>
        <pt x="403" y="-262" on="0"/>
        <pt x="264" y="-262" on="1"/>
        <pt x="129" y="-262" on="1"/>
      </contour>
    </TTGlyph>
    <TTGlyph name="bracketleft" xMin="10" yMin="-262" xMax="854" yMax="1556">
      <contour>
        <pt x="10" y="-262" on="1"/>
        <pt x="397" y="1556" on="1"/>
        <pt x="854" y="1556" on="1"/>
        <pt x="836" y="1470" on="1"/>
        <pt x="748" y="1470" on="1"/>
        <pt x="652" y="1470" on="0"/>
        <pt x="565" y="1398" on="0"/>
        <pt x="549" y="1323" on="1"/>
        <pt x="258" y="-37" on="1"/>
        <pt x="250" y="-74" on="0"/>
        <pt x="250" y="-94" on="1"/>
        <pt x="250" y="-176" on="0"/>
        <pt x="397" y="-176" on="1"/>
        <pt x="485" y="-176" on="1"/>
        <pt x="467" y="-262" on="1"/>
      </contour>
    </TTGlyph>
    <TTGlyph name="bracketright" xMin="-96" yMin="-262" xMax="745" yMax="1556">
      <contour>
        <pt x="-96" y="-262" on="1"/>
        <pt x="-78" y="-176" on="1"/>
        <pt x="10" y="-176" on="1"/>
        <pt x="106" y="-176" on="0"/>
        <pt x="192" y="-102" on="0"/>
        <pt x="207" y="-29" on="1"/>
        <pt x="498" y="1331" on="1"/>
        <pt x="506" y="1368" on="0"/>
        <pt x="506" y="1389" on="1"/>
        <pt x="506" y="1470" on="0"/>
        <pt x="358" y="1470" on="1"/>
        <pt x="270" y="1470" on="1"/>
        <pt x="289" y="1556" on="1"/>
        <pt x="745" y="1556" on="1"/>
        <pt x="358" y="-262" on="1"/>
      </contour>
    </TTGlyph>
    <TTGlyph name="brokenbar" xMin="526" yMin="-492" xMax="649" yMax="1556">
      <contour>
        <pt x="649" y="737" on="1"/>
        <pt x="526" y="737" on="1"/>
        <pt x="526" y="1556" on="1"/>
        <pt x="649" y="1556" on="1"/>
      </contour>
      <contour>
        <pt x="649" y="-492" on="1"/>
        <pt x="526" y="-492" on="1"/>
        <pt x="526" y="328" on="1"/>
        <pt x="649" y="328" on="1"/>
      </contour>
    </TTGlyph>
    <TTGlyph name="bullet" xMin="117" yMin="432" xMax="657" yMax="1026">
      <contour>
        <pt x="387" y="1026" on="1"/>
        <pt x="657" y="1026" on="0"/>
        <pt x="657" y="729" on="1"/>
        <pt x="657" y="432" on="0"/>
        <pt x="387" y="432" on="1"/>
        <pt x="117" y="432" on="0"/>
        <pt x="117" y="729" on="1"/>
        <pt x="117" y="1026" on="0"/>
      </contour>
    </TTGlyph>
    <TTGlyph name="c" xMin="88" yMin="-20" xMax="997" yMax="1118">
      <contour>
        <pt x="821" y="256" on="1"/>
        <pt x="842" y="243" on="0"/>
        <pt x="842" y="205" on="1"/>
        <pt x="842" y="123" on="0"/>
        <pt x="649" y="-20" on="0"/>
        <pt x="487" y="-20" on="1"/>
        <pt x="308" y="-20" on="0"/>
        <pt x="88" y="206" on="0"/>
        <pt x="88" y="403" on="1"/>
        <pt x="88" y="671" on="0"/>
        <pt x="434" y="1118" on="0"/>
        <pt x="698" y="1118" on="1"/>
        <pt x="839" y="1118" on="0"/>
        <pt x="997" y="1006" on="0"/>
        <pt x="997" y="922" on="1"/>
        <pt x="997" y="860" on="0"/>
        <pt x="898" y="778" on="0"/>
        <pt x="815" y="778" on="1"/>
        <pt x="815" y="887" on="0"/>
        <pt x="731" y="1020" on="0"/>
        <pt x="657" y="1020" on="1"/>
        <pt x="514" y="1020" on="0"/>
        <pt x="301" y="592" on="0"/>
        <pt x="301" y="387" on="1"/>
        <pt x="301" y="109" on="0"/>
        <pt x="526" y="109" on="1"/>
        <pt x="705" y="109" on="0"/>
      </contour>
    </TTGlyph>
    <TTGlyph name="ccedilla" xMin="88" yMin="-492" xMax="997" yMax="1118">
      <component glyphName="c" x="0" y="0" flags="0x1204"/>
      <component glyphName="cedilla" x="100" y="0" flags="0x1004"/>
    </TTGlyph>
    <TTGlyph name="cedilla" xMin="72" yMin="-492" xMax="551" yMax="18">
      <contour>
        <pt x="387" y="-70" on="1"/>
        <pt x="461" y="-80" on="0"/>
        <pt x="551" y="-176" on="0"/>
        <pt x="551" y="-240" on="1"/>
        <pt x="551" y="-359" on="0"/>
        <pt x="378" y="-492" on="0"/>
        <pt x="225" y="-492" on="1"/>
        <pt x="146" y="-492" on="0"/>
        <pt x="72" y="-469" on="1"/>
        <pt x="94" y="-365" on="1"/>
        <pt x="164" y="-381" on="0"/>
        <pt x="231" y="-381" on="1"/>
        <pt x="383" y="-381" on="0"/>
        <pt x="383" y="-256" on="1"/>
        <pt x="383" y="-154" on="0"/>
        <pt x="252" y="-141" on="1"/>
        <pt x="330" y="18" on="1"/>
        <pt x="426" y="18" on="1"/>
      </contour>
    </TTGlyph>
    <TTGlyph name="cent" xMin="172" yMin="0" xMax="1081" yMax="1462">
      <contour>
        <pt x="496" y="182" on="1"/>
        <pt x="340" y="208" on="0"/>
        <pt x="172" y="428" on="0"/>
        <pt x="172" y="600" on="1"/>
        <pt x="172" y="849" on="0"/>
        <pt x="482" y="1288" on="0"/>
        <pt x="733" y="1313" on="1"/>
        <pt x="766" y="1462" on="1"/>
        <pt x="868" y="1462" on="1"/>
        <pt x="836" y="1311" on="1"/>
        <pt x="952" y="1300" on="0"/>
        <pt x="1081" y="1193" on="0"/>
        <pt x="1081" y="1118" on="1"/>
        <pt x="1081" y="1056" on="0"/>
        <pt x="982" y="975" on="0"/>
        <pt x="899" y="975" on="1"/>
        <pt x="899" y="1141" on="0"/>
        <pt x="811" y="1196" on="1"/>
        <pt x="623" y="305" on="1"/>
        <pt x="792" y="311" on="0"/>
        <pt x="905" y="453" on="1"/>
        <pt x="926" y="438" on="0"/>
        <pt x="926" y="401" on="1"/>
        <pt x="926" y="322" on="0"/>
        <pt x="750" y="182" on="0"/>
        <pt x="596" y="176" on="1"/>
        <pt x="559" y="0" on="1"/>
        <pt x="457" y="0" on="1"/>
      </contour>
      <contour>
        <pt x="524" y="319" on="1"/>
        <pt x="713" y="1212" on="1"/>
        <pt x="575" y="1187" on="0"/>
        <pt x="385" y="773" on="0"/>
        <pt x="385" y="584" on="1"/>
        <pt x="385" y="370" on="0"/>
      </contour>
    </TTGlyph>
    <TTGlyph name="circumflex" xMin="375" yMin="1241" xMax="985" yMax="1569">
      <contour>
        <pt x="381" y="1268" on="1"/>
        <pt x="567" y="1451" on="0"/>
        <pt x="651" y="1569" on="1"/>
        <pt x="846" y="1569" on="1"/>
        <pt x="875" y="1452" on="0"/>
        <pt x="985" y="1268" on="1"/>
        <pt x="979" y="1241" on="1"/>
        <pt x="907" y="1241" on="1"/>
        <pt x="812" y="1306" on="0"/>
        <pt x="725" y="1425" on="1"/>
        <pt x="575" y="1298" on="0"/>
        <pt x="463" y="1241" on="1"/>
        <pt x="375" y="1241" on="1"/>
      </contour>
    </TTGlyph>
    <TTGlyph name="colon" xMin="66" yMin="-16" xMax="512" yMax="1108">
      <contour>
        <pt x="377" y="825" on="1"/>
        <pt x="250" y="825" on="0"/>
        <pt x="250" y="950" on="1"/>
        <pt x="250" y="1021" on="0"/>
        <pt x="323" y="1108" on="0"/>
        <pt x="385" y="1108" on="1"/>
        <pt x="512" y="1108" on="0"/>
        <pt x="512" y="983" on="1"/>
        <pt x="512" y="909" on="0"/>
        <pt x="439" y="825" on="0"/>
      </contour>
      <contour>
        <pt x="193" y="-16" on="1"/>
        <pt x="66" y="-16" on="0"/>
        <pt x="66" y="109" on="1"/>
        <pt x="66" y="180" on="0"/>
        <pt x="139" y="266" on="0"/>
        <pt x="201" y="266" on="1"/>
        <pt x="261" y="266" on="0"/>
        <pt x="328" y="198" on="0"/>
        <pt x="328" y="141" on="1"/>
        <pt x="328" y="68" on="0"/>
        <pt x="255" y="-16" on="0"/>
      </contour>
    </TTGlyph>
    <TTGlyph name="comma" xMin="-57" yMin="-299" xMax="313" yMax="262">
      <contour>
        <pt x="-57" y="-299" on="1"/>
        <pt x="-49" y="-213" on="1"/>
        <pt x="160" y="-166" on="0"/>
        <pt x="160" y="-41" on="1"/>
        <pt x="160" y="-5" on="0"/>
        <pt x="94" y="37" on="1"/>
        <pt x="27" y="79" on="0"/>
        <pt x="27" y="141" on="1"/>
        <pt x="27" y="196" on="0"/>
        <pt x="97" y="262" on="0"/>
        <pt x="154" y="262" on="1"/>
        <pt x="223" y="262" on="0"/>
        <pt x="313" y="171" on="0"/>
        <pt x="313" y="94" on="1"/>
        <pt x="313" y="-56" on="0"/>
        <pt x="123" y="-263" on="0"/>
      </contour>
    </TTGlyph>
    <TTGlyph name="copyright" xMin="129" yMin="-20" xMax="1634" yMax="1485">
      <contour>
        <pt x="881" y="1485" on="1"/>
        <pt x="1190" y="1485" on="0"/>
        <pt x="1634" y="1042" on="0"/>
        <pt x="1634" y="731" on="1"/>
        <pt x="1634" y="422" on="0"/>
        <pt x="1192" y="-20" on="0"/>
        <pt x="881" y="-20" on="1"/>
        <pt x="569" y="-20" on="0"/>
        <pt x="129" y="422" on="0"/>
        <pt x="129" y="731" on="1"/>
        <pt x="129" y="1042" on="0"/>
        <pt x="571" y="1485" on="0"/>
      </contour>
      <contour>
        <pt x="881" y="92" on="1"/>
        <pt x="1145" y="92" on="0"/>
        <pt x="1522" y="468" on="0"/>
        <pt x="1522" y="731" on="1"/>
        <pt x="1522" y="995" on="0"/>
        <pt x="1145" y="1372" on="0"/>
        <pt x="881" y="1372" on="1"/>
        <pt x="616" y="1372" on="0"/>
        <pt x="242" y="994" on="0"/>
        <pt x="242" y="731" on="1"/>
        <pt x="242" y="469" on="0"/>
        <pt x="616" y="92" on="0"/>
      </contour>
      <contour>
        <pt x="1169" y="504" on="1"/>
        <pt x="1198" y="483" on="0"/>
        <pt x="1198" y="440" on="1"/>
        <pt x="1198" y="376" on="0"/>
        <pt x="1031" y="276" on="0"/>
        <pt x="891" y="276" on="1"/>
        <pt x="697" y="276" on="0"/>
        <pt x="481" y="516" on="0"/>
        <pt x="481" y="733" on="1"/>
        <pt x="481" y="943" on="0"/>
        <pt x="715" y="1186" on="0"/>
        <pt x="920" y="1186" on="1"/>
        <pt x="1052" y="1186" on="0"/>
        <pt x="1200" y="1106" on="0"/>
        <pt x="1200" y="1040" on="1"/>
        <pt x="1200" y="997" on="0"/>
        <pt x="1122" y="944" on="0"/>
        <pt x="1061" y="944" on="1"/>
        <pt x="1061" y="1100" on="0"/>
        <pt x="915" y="1100" on="1"/>
        <pt x="649" y="1100" on="0"/>
        <pt x="649" y="733" on="1"/>
        <pt x="649" y="556" on="0"/>
        <pt x="787" y="365" on="0"/>
        <pt x="918" y="365" on="1"/>
        <pt x="1088" y="365" on="0"/>
      </contour>
    </TTGlyph>
    <TTGlyph name="currency" xMin="147" yMin="293" xMax="1028" yMax="1176">
      <contour>
        <pt x="283" y="952" on="1"/>
        <pt x="147" y="1087" on="1"/>
        <pt x="233" y="1174" on="1"/>
        <pt x="367" y="1038" on="1"/>
        <pt x="466" y="1110" on="0"/>
        <pt x="588" y="1110" on="1"/>
        <pt x="704" y="1110" on="0"/>
        <pt x="805" y="1038" on="1"/>
        <pt x="942" y="1176" on="1"/>
        <pt x="1028" y="1087" on="1"/>
        <pt x="893" y="952" on="1"/>
        <pt x="965" y="853" on="0"/>
        <pt x="965" y="733" on="1"/>
        <pt x="965" y="613" on="0"/>
        <pt x="893" y="514" on="1"/>
        <pt x="1028" y="379" on="1"/>
        <pt x="944" y="293" on="1"/>
        <pt x="807" y="428" on="1"/>
        <pt x="703" y="358" on="0"/>
        <pt x="588" y="358" on="1"/>
        <pt x="464" y="358" on="0"/>
        <pt x="369" y="428" on="1"/>
        <pt x="233" y="293" on="1"/>
        <pt x="147" y="379" on="1"/>
        <pt x="281" y="514" on="1"/>
        <pt x="213" y="613" on="0"/>
        <pt x="213" y="733" on="1"/>
        <pt x="213" y="857" on="0"/>
      </contour>
      <contour>
        <pt x="588" y="471" on="1"/>
        <pt x="696" y="471" on="0"/>
        <pt x="850" y="626" on="0"/>
        <pt x="850" y="733" on="1"/>
        <pt x="850" y="843" on="0"/>
        <pt x="698" y="997" on="0"/>
        <pt x="588" y="997" on="1"/>
        <pt x="480" y="997" on="0"/>
        <pt x="328" y="843" on="0"/>
        <pt x="328" y="733" on="1"/>
        <pt x="328" y="626" on="0"/>
        <pt x="481" y="471" on="0"/>
      </contour>
    </TTGlyph>
    <TTGlyph name="d" xMin="88" yMin="-20" xMax="1192" yMax="1556">
      <contour>
        <pt x="748" y="309" on="1"/>
        <pt x="735" y="309" on="1"/>
        <pt x="588" y="-20" on="0"/>
        <pt x="352" y="-20" on="1"/>
        <pt x="227" y="-20" on="0"/>
        <pt x="88" y="177" on="0"/>
        <pt x="88" y="354" on="1"/>
        <pt x="88" y="636" on="0"/>
        <pt x="439" y="1118" on="0"/>
        <pt x="698" y="1118" on="1"/>
        <pt x="813" y="1118" on="0"/>
        <pt x="899" y="1069" on="1"/>
        <pt x="915" y="1163" on="0"/>
        <pt x="922" y="1184" on="1"/>
        <pt x="942" y="1282" on="1"/>
        <pt x="956" y="1351" on="0"/>
        <pt x="956" y="1374" on="1"/>
        <pt x="956" y="1470" on="0"/>
        <pt x="813" y="1470" on="1"/>
        <pt x="797" y="1470" on="1"/>
        <pt x="815" y="1556" on="1"/>
        <pt x="1192" y="1556" on="1"/>
        <pt x="954" y="440" on="1"/>
        <pt x="924" y="299" on="0"/>
        <pt x="924" y="213" on="1"/>
        <pt x="924" y="109" on="0"/>
        <pt x="991" y="109" on="1"/>
        <pt x="1049" y="109" on="0"/>
        <pt x="1139" y="162" on="1"/>
        <pt x="1176" y="102" on="1"/>
        <pt x="1029" y="-20" on="0"/>
        <pt x="887" y="-20" on="1"/>
        <pt x="727" y="-20" on="0"/>
        <pt x="727" y="150" on="1"/>
        <pt x="727" y="215" on="0"/>
      </contour>
      <contour>
        <pt x="864" y="952" on="1"/>
        <pt x="817" y="1026" on="0"/>
        <pt x="709" y="1026" on="1"/>
        <pt x="534" y="1026" on="0"/>
        <pt x="297" y="581" on="0"/>
        <pt x="297" y="346" on="1"/>
        <pt x="297" y="109" on="0"/>
        <pt x="426" y="109" on="1"/>
        <pt x="528" y="109" on="0"/>
        <pt x="752" y="411" on="0"/>
        <pt x="788" y="590" on="1"/>
      </contour>
    </TTGlyph>
    <TTGlyph name="degree" xMin="172" yMin="842" xMax="793" yMax="1462">
      <contour>
        <pt x="481" y="1462" on="1"/>
        <pt x="609" y="1462" on="0"/>
        <pt x="793" y="1280" on="0"/>
        <pt x="793" y="1151" on="1"/>
        <pt x="793" y="1024" on="0"/>
        <pt x="611" y="842" on="0"/>
        <pt x="481" y="842" on="1"/>
        <pt x="353" y="842" on="0"/>
        <pt x="172" y="1023" on="0"/>
        <pt x="172" y="1151" on="1"/>
        <pt x="172" y="1281" on="0"/>
        <pt x="355" y="1462" on="0"/>
      </contour>
      <contour>
        <pt x="481" y="963" on="1"/>
        <pt x="560" y="963" on="0"/>
        <pt x="670" y="1073" on="0"/>
        <pt x="670" y="1151" on="1"/>
        <pt x="670" y="1231" on="0"/>
        <pt x="559" y="1341" on="0"/>
        <pt x="481" y="1341" on="1"/>
        <pt x="406" y="1341" on="0"/>
        <pt x="295" y="1232" on="0"/>
        <pt x="295" y="1151" on="1"/>
        <pt x="295" y="1073" on="0"/>
        <pt x="406" y="963" on="0"/>
      </contour>
    </TTGlyph>
    <TTGlyph name="dieresis" xMin="412" yMin="1294" xMax="1014" yMax="1526">
      <contour>
        <pt x="514" y="1294" on="1"/>
        <pt x="412" y="1294" on="0"/>
        <pt x="412" y="1397" on="1"/>
        <pt x="412" y="1526" on="0"/>
        <pt x="522" y="1526" on="1"/>
        <pt x="625" y="1526" on="0"/>
        <pt x="625" y="1423" on="1"/>
        <pt x="625" y="1294" on="0"/>
      </contour>
      <contour>
        <pt x="903" y="1294" on="1"/>
        <pt x="801" y="1294" on="0"/>
        <pt x="801" y="1397" on="1"/>
        <pt x="801" y="1526" on="0"/>
        <pt x="911" y="1526" on="1"/>
        <pt x="1014" y="1526" on="0"/>
        <pt x="1014" y="1423" on="1"/>
        <pt x="1014" y="1294" on="0"/>
      </contour>
    </TTGlyph>
    <TTGlyph name="divide" xMin="150" yMin="231" xMax="1028" yMax="1233">
      <contour>
        <pt x="590" y="1233" on="1"/>
        <pt x="694" y="1233" on="0"/>
        <pt x="694" y="1120" on="1"/>
        <pt x="694" y="1008" on="0"/>
        <pt x="590" y="1008" on="1"/>
        <pt x="485" y="1008" on="0"/>
        <pt x="485" y="1120" on="1"/>
        <pt x="485" y="1233" on="0"/>
      </contour>
      <contour>
        <pt x="1028" y="672" on="1"/>
        <pt x="150" y="672" on="1"/>
        <pt x="150" y="793" on="1"/>
        <pt x="1028" y="793" on="1"/>
      </contour>
      <contour>
        <pt x="590" y="457" on="1"/>
        <pt x="694" y="457" on="0"/>
        <pt x="694" y="344" on="1"/>
        <pt x="694" y="231" on="0"/>
        <pt x="590" y="231" on="1"/>
        <pt x="485" y="231" on="0"/>
        <pt x="485" y="344" on="1"/>
        <pt x="485" y="457" on="0"/>
      </contour>
    </TTGlyph>
    <TTGlyph name="dollar" xMin="49" yMin="-162" xMax="1092" yMax="1556">
      <contour>
        <pt x="412" y="76" on="1"/>
        <pt x="242" y="88" on="0"/>
        <pt x="49" y="240" on="0"/>
        <pt x="49" y="352" on="1"/>
        <pt x="49" y="429" on="0"/>
        <pt x="150" y="520" on="0"/>
        <pt x="207" y="520" on="1"/>
        <pt x="207" y="385" on="0"/>
        <pt x="328" y="200" on="0"/>
        <pt x="432" y="178" on="1"/>
        <pt x="539" y="680" on="1"/>
        <pt x="268" y="815" on="0"/>
        <pt x="268" y="1030" on="1"/>
        <pt x="268" y="1197" on="0"/>
        <pt x="491" y="1391" on="0"/>
        <pt x="694" y="1401" on="1"/>
        <pt x="727" y="1556" on="1"/>
        <pt x="829" y="1556" on="1"/>
        <pt x="797" y="1401" on="1"/>
        <pt x="1092" y="1375" on="0"/>
        <pt x="1092" y="1196" on="1"/>
        <pt x="1092" y="1055" on="0"/>
        <pt x="926" y="1055" on="1"/>
        <pt x="926" y="1275" on="0"/>
        <pt x="776" y="1309" on="1"/>
        <pt x="672" y="817" on="1"/>
        <pt x="694" y="805" on="1"/>
        <pt x="879" y="704" on="0"/>
        <pt x="979" y="558" on="0"/>
        <pt x="979" y="469" on="1"/>
        <pt x="979" y="301" on="0"/>
        <pt x="732" y="87" on="0"/>
        <pt x="512" y="74" on="1"/>
        <pt x="463" y="-162" on="1"/>
        <pt x="360" y="-162" on="1"/>
      </contour>
      <contour>
        <pt x="580" y="864" on="1"/>
        <pt x="674" y="1311" on="1"/>
        <pt x="459" y="1275" on="0"/>
        <pt x="459" y="1059" on="1"/>
        <pt x="459" y="940" on="0"/>
      </contour>
      <contour>
        <pt x="633" y="635" on="1"/>
        <pt x="535" y="174" on="1"/>
        <pt x="651" y="184" on="0"/>
        <pt x="784" y="322" on="0"/>
        <pt x="784" y="424" on="1"/>
        <pt x="784" y="556" on="0"/>
      </contour>
    </TTGlyph>
    <TTGlyph name="dotlessi" xMin="127" yMin="-20" xMax="594" yMax="1098">
      <contour>
        <pt x="127" y="1012" on="1"/>
        <pt x="145" y="1098" on="1"/>
        <pt x="512" y="1098" on="1"/>
        <pt x="373" y="440" on="1"/>
        <pt x="342" y="293" on="0"/>
        <pt x="342" y="213" on="1"/>
        <pt x="342" y="109" on="0"/>
        <pt x="410" y="109" on="1"/>
        <pt x="469" y="109" on="0"/>
        <pt x="557" y="162" on="1"/>
        <pt x="594" y="102" on="1"/>
        <pt x="452" y="-20" on="0"/>
        <pt x="317" y="-20" on="1"/>
        <pt x="241" y="-20" on="0"/>
        <pt x="147" y="90" on="0"/>
        <pt x="147" y="174" on="1"/>
        <pt x="147" y="266" on="0"/>
        <pt x="193" y="496" on="1"/>
        <pt x="272" y="872" on="1"/>
        <pt x="279" y="905" on="0"/>
        <pt x="279" y="926" on="1"/>
        <pt x="279" y="1012" on="0"/>
        <pt x="154" y="1012" on="1"/>
      </contour>
    </TTGlyph>
    <TTGlyph name="e" xMin="88" yMin="-20" xMax="971" yMax="1118">
      <contour>
        <pt x="821" y="256" on="1"/>
        <pt x="842" y="243" on="0"/>
        <pt x="842" y="205" on="1"/>
        <pt x="842" y="123" on="0"/>
        <pt x="649" y="-20" on="0"/>
        <pt x="487" y="-20" on="1"/>
        <pt x="308" y="-20" on="0"/>
        <pt x="88" y="206" on="0"/>
        <pt x="88" y="403" on="1"/>
        <pt x="88" y="671" on="0"/>
        <pt x="434" y="1118" on="0"/>
        <pt x="698" y="1118" on="1"/>
        <pt x="828" y="1118" on="0"/>
        <pt x="971" y="994" on="0"/>
        <pt x="971" y="883" on="1"/>
        <pt x="971" y="717" on="0"/>
        <pt x="626" y="471" on="0"/>
        <pt x="377" y="471" on="1"/>
        <pt x="342" y="471" on="1"/>
        <pt x="324" y="471" on="0"/>
        <pt x="305" y="473" on="1"/>
        <pt x="301" y="445" on="0"/>
        <pt x="301" y="387" on="1"/>
        <pt x="301" y="109" on="0"/>
        <pt x="526" y="109" on="1"/>
        <pt x="701" y="109" on="0"/>
      </contour>
      <contour>
        <pt x="324" y="567" on="1"/>
        <pt x="344" y="567" on="1"/>
        <pt x="525" y="567" on="0"/>
        <pt x="760" y="743" on="0"/>
        <pt x="760" y="883" on="1"/>
        <pt x="760" y="1020" on="0"/>
        <pt x="641" y="1020" on="1"/>
        <pt x="542" y="1020" on="0"/>
        <pt x="370" y="771" on="0"/>
      </contour>
    </TTGlyph>
    <TTGlyph name="eacute" xMin="88" yMin="-20" xMax="1052" yMax="1569">
      <component glyphName="e" x="0" y="0" flags="0x1204"/>
      <component glyphName="acute" x="106" y="0" flags="0x1004"/>
    </TTGlyph>
    <TTGlyph name="ecircumflex" xMin="88" yMin="-20" xMax="991" yMax="1569">
      <component glyphName="e" x="0" y="0" flags="0x1204"/>
      <component glyphName="circumflex" x="6" y="0" flags="0x1004"/>
    </TTGlyph>
    <TTGlyph name="edieresis" xMin="88" yMin="-20" xMax="1009" yMax="1526">
      <component glyphName="e" x="0" y="0" flags="0x1204"/>
      <component glyphName="dieresis" x="-5" y="0" flags="0x1004"/>
    </TTGlyph>
    <TTGlyph name="egrave" xMin="88" yMin="-20" xMax="971" yMax="1569">
      <component glyphName="e" x="0" y="0" flags="0x1204"/>
      <component glyphName="grave" x="-108" y="0" flags="0x1004"/>
    </TTGlyph>
    <TTGlyph name="eight" xMin="20" yMin="-20" xMax="1092" yMax="1483">
      <contour>
        <pt x="426" y="748" on="1"/>
        <pt x="225" y="892" on="0"/>
        <pt x="225" y="1087" on="1"/>
        <pt x="225" y="1274" on="0"/>
        <pt x="478" y="1483" on="0"/>
        <pt x="715" y="1483" on="1"/>
        <pt x="889" y="1483" on="0"/>
        <pt x="1092" y="1318" on="0"/>
        <pt x="1092" y="1184" on="1"/>
        <pt x="1092" y="1052" on="0"/>
        <pt x="931" y="861" on="0"/>
        <pt x="735" y="780" on="1"/>
        <pt x="995" y="629" on="0"/>
        <pt x="995" y="414" on="1"/>
        <pt x="995" y="205" on="0"/>
        <pt x="705" y="-20" on="0"/>
        <pt x="455" y="-20" on="1"/>
        <pt x="257" y="-20" on="0"/>
        <pt x="20" y="176" on="0"/>
        <pt x="20" y="332" on="1"/>
        <pt x="20" y="474" on="0"/>
        <pt x="200" y="666" on="0"/>
      </contour>
      <contour>
        <pt x="637" y="829" on="1"/>
        <pt x="909" y="945" on="0"/>
        <pt x="909" y="1169" on="1"/>
        <pt x="909" y="1269" on="0"/>
        <pt x="797" y="1380" on="0"/>
        <pt x="698" y="1380" on="1"/>
        <pt x="573" y="1380" on="0"/>
        <pt x="422" y="1232" on="0"/>
        <pt x="422" y="1110" on="1"/>
        <pt x="422" y="945" on="0"/>
      </contour>
      <contour>
        <pt x="520" y="694" on="1"/>
        <pt x="217" y="583" on="0"/>
        <pt x="217" y="328" on="1"/>
        <pt x="217" y="213" on="0"/>
        <pt x="359" y="80" on="0"/>
        <pt x="481" y="80" on="1"/>
        <pt x="625" y="80" on="0"/>
        <pt x="801" y="232" on="0"/>
        <pt x="801" y="365" on="1"/>
        <pt x="801" y="471" on="0"/>
        <pt x="665" y="622" on="0"/>
      </contour>
    </TTGlyph>
    <TTGlyph name="emdash" xMin="-6" yMin="489" xMax="2087" yMax="610">
      <contour>
        <pt x="2060" y="489" on="1"/>
        <pt x="-6" y="489" on="1"/>
        <pt x="18" y="610" on="1"/>
        <pt x="2087" y="610" on="1"/>
      </contour>
    </TTGlyph>
    <TTGlyph name="endash" xMin="-6" yMin="489" xMax="1063" yMax="610">
      <contour>
        <pt x="1036" y="489" on="1"/>
        <pt x="-6" y="489" on="1"/>
        <pt x="18" y="610" on="1"/>
        <pt x="1063" y="610" on="1"/>
      </contour>
    </TTGlyph>
    <TTGlyph name="equal" xMin="150" yMin="469" xMax="1028" yMax="993">
      <contour>
        <pt x="1028" y="993" on="1"/>
        <pt x="1028" y="872" on="1"/>
        <pt x="150" y="872" on="1"/>
        <pt x="150" y="993" on="1"/>
      </contour>
      <contour>
        <pt x="1028" y="590" on="1"/>
        <pt x="1028" y="469" on="1"/>
        <pt x="150" y="469" on="1"/>
        <pt x="150" y="590" on="1"/>
      </contour>
    </TTGlyph>
    <TTGlyph name="eth" xMin="88" yMin="-33" xMax="1094" yMax="1561">
      <contour>
        <pt x="877" y="983" on="1"/>
        <pt x="832" y="1168" on="0"/>
        <pt x="733" y="1274" on="1"/>
        <pt x="440" y="1124" on="1"/>
        <pt x="465" y="1239" on="1"/>
        <pt x="664" y="1341" on="1"/>
        <pt x="575" y="1409" on="0"/>
        <pt x="438" y="1456" on="1"/>
        <pt x="473" y="1559" on="1"/>
        <pt x="657" y="1512" on="0"/>
        <pt x="797" y="1407" on="1"/>
        <pt x="1094" y="1561" on="1"/>
        <pt x="1067" y="1444" on="1"/>
        <pt x="866" y="1341" on="1"/>
        <pt x="968" y="1240" on="0"/>
        <pt x="1087" y="918" on="0"/>
        <pt x="1087" y="741" on="1"/>
        <pt x="1087" y="393" on="0"/>
        <pt x="764" y="-33" on="0"/>
        <pt x="481" y="-33" on="1"/>
        <pt x="301" y="-33" on="0"/>
        <pt x="88" y="180" on="0"/>
        <pt x="88" y="369" on="1"/>
        <pt x="88" y="623" on="0"/>
        <pt x="424" y="1038" on="0"/>
        <pt x="698" y="1038" on="1"/>
        <pt x="807" y="1038" on="0"/>
      </contour>
      <contour>
        <pt x="504" y="68" on="1"/>
        <pt x="673" y="68" on="0"/>
        <pt x="874" y="441" on="0"/>
        <pt x="874" y="664" on="1"/>
        <pt x="874" y="932" on="0"/>
        <pt x="674" y="932" on="1"/>
        <pt x="506" y="932" on="0"/>
        <pt x="301" y="559" on="0"/>
        <pt x="301" y="336" on="1"/>
        <pt x="301" y="68" on="0"/>
      </contour>
    </TTGlyph>
    <TTGlyph name="exclam" xMin="123" yMin="-16" xMax="647" yMax="1462">
      <contour>
        <pt x="410" y="1462" on="1"/>
        <pt x="647" y="1462" on="1"/>
        <pt x="352" y="412" on="1"/>
        <pt x="258" y="412" on="1"/>
      </contour>
      <contour>
        <pt x="250" y="-16" on="1"/>
        <pt x="123" y="-16" on="0"/>
        <pt x="123" y="109" on="1"/>
        <pt x="123" y="180" on="0"/>
        <pt x="196" y="266" on="0"/>
        <pt x="258" y="266" on="1"/>
        <pt x="385" y="266" on="0"/>
        <pt x="385" y="141" on="1"/>
        <pt x="385" y="68" on="0"/>
        <pt x="312" y="-16" on="0"/>
      </contour>
    </TTGlyph>
    <TTGlyph name="exclamdown" xMin="23" yMin="-367" xMax="547" yMax="1112">
      <contour>
        <pt x="420" y="1112" on="1"/>
        <pt x="547" y="1112" on="0"/>
        <pt x="547" y="987" on="1"/>
        <pt x="547" y="916" on="0"/>
        <pt x="474" y="829" on="0"/>
        <pt x="412" y="829" on="1"/>
        <pt x="285" y="829" on="0"/>
        <pt x="285" y="954" on="1"/>
        <pt x="285" y="1028" on="0"/>
        <pt x="358" y="1112" on="0"/>
      </contour>
      <contour>
        <pt x="260" y="-367" on="1"/>
        <pt x="23" y="-367" on="1"/>
        <pt x="317" y="684" on="1"/>
        <pt x="412" y="684" on="1"/>
      </contour>
    </TTGlyph>
    <TTGlyph name="f" xMin="-287" yMin="-492" xMax="997" yMax="1577">
      <contour>
        <pt x="719" y="981" on="1"/>
        <pt x="489" y="981" on="1"/>
        <pt x="276" y="-16" on="1"/>
        <pt x="223" y="-263" on="0"/>
        <pt x="19" y="-492" on="0"/>
        <pt x="-168" y="-492" on="1"/>
        <pt x="-226" y="-492" on="0"/>
        <pt x="-287" y="-475" on="1"/>
        <pt x="-268" y="-381" on="1"/>
        <pt x="-217" y="-395" on="0"/>
        <pt x="-174" y="-395" on="1"/>
        <pt x="-75" y="-395" on="0"/>
        <pt x="39" y="-225" on="0"/>
        <pt x="84" y="-18" on="1"/>
        <pt x="299" y="981" on="1"/>
        <pt x="113" y="981" on="1"/>
        <pt x="125" y="1055" on="1"/>
        <pt x="322" y="1098" on="1"/>
        <pt x="344" y="1210" on="1"/>
        <pt x="416" y="1577" on="0"/>
        <pt x="733" y="1577" on="1"/>
        <pt x="864" y="1577" on="0"/>
        <pt x="997" y="1494" on="0"/>
        <pt x="997" y="1425" on="1"/>
        <pt x="997" y="1292" on="0"/>
        <pt x="827" y="1292" on="1"/>
        <pt x="827" y="1483" on="0"/>
        <pt x="723" y="1483" on="1"/>
        <pt x="648" y="1483" on="0"/>
        <pt x="565" y="1359" on="0"/>
        <pt x="541" y="1229" on="1"/>
        <pt x="514" y="1098" on="1"/>
        <pt x="741" y="1098" on="1"/>
      </contour>
    </TTGlyph>
    <TTGlyph name="five" xMin="16" yMin="-20" xMax="1092" yMax="1462">
      <contour>
        <pt x="258" y="717" on="1"/>
        <pt x="188" y="731" on="1"/>
        <pt x="408" y="1462" on="1"/>
        <pt x="1092" y="1462" on="1"/>
        <pt x="1036" y="1153" on="1"/>
        <pt x="950" y="1153" on="1"/>
        <pt x="956" y="1231" on="0"/>
        <pt x="956" y="1249" on="1"/>
        <pt x="956" y="1298" on="0"/>
        <pt x="862" y="1298" on="1"/>
        <pt x="465" y="1298" on="1"/>
        <pt x="330" y="842" on="1"/>
        <pt x="429" y="874" on="0"/>
        <pt x="526" y="874" on="1"/>
        <pt x="728" y="874" on="0"/>
        <pt x="956" y="674" on="0"/>
        <pt x="956" y="498" on="1"/>
        <pt x="956" y="270" on="0"/>
        <pt x="637" y="-20" on="0"/>
        <pt x="375" y="-20" on="1"/>
        <pt x="16" y="-20" on="0"/>
        <pt x="16" y="184" on="1"/>
        <pt x="16" y="311" on="0"/>
        <pt x="170" y="311" on="1"/>
        <pt x="177" y="92" on="0"/>
        <pt x="393" y="92" on="1"/>
        <pt x="558" y="92" on="0"/>
        <pt x="743" y="298" on="0"/>
        <pt x="743" y="483" on="1"/>
        <pt x="743" y="615" on="0"/>
        <pt x="600" y="762" on="0"/>
        <pt x="481" y="762" on="1"/>
        <pt x="371" y="762" on="0"/>
      </contour>
    </TTGlyph>
    <TTGlyph name="four" xMin="-29" yMin="0" xMax="1077" yMax="1462">
      <contour>
        <pt x="262" y="0" on="1"/>
        <pt x="279" y="86" on="1"/>
        <pt x="369" y="86" on="1"/>
        <pt x="466" y="86" on="0"/>
        <pt x="554" y="159" on="0"/>
        <pt x="569" y="233" on="1"/>
        <pt x="602" y="401" on="1"/>
        <pt x="-29" y="401" on="1"/>
        <pt x="-10" y="485" on="1"/>
        <pt x="829" y="1462" on="1"/>
        <pt x="1026" y="1462" on="1"/>
        <pt x="823" y="516" on="1"/>
        <pt x="1077" y="516" on="1"/>
        <pt x="1053" y="401" on="1"/>
        <pt x="799" y="401" on="1"/>
        <pt x="764" y="225" on="1"/>
        <pt x="756" y="185" on="0"/>
        <pt x="756" y="168" on="1"/>
        <pt x="756" y="86" on="0"/>
        <pt x="903" y="86" on="1"/>
        <pt x="950" y="86" on="1"/>
        <pt x="932" y="0" on="1"/>
      </contour>
      <contour>
        <pt x="707" y="899" on="1"/>
        <pt x="756" y="1131" on="0"/>
        <pt x="807" y="1296" on="1"/>
        <pt x="722" y="1167" on="0"/>
        <pt x="627" y="1061" on="1"/>
        <pt x="162" y="516" on="1"/>
        <pt x="627" y="516" on="1"/>
      </contour>
    </TTGlyph>
    <TTGlyph name="foursuperior" xMin="63" yMin="588" xMax="823" yMax="1473">
      <contour>
        <pt x="608" y="848" on="1"/>
        <pt x="590" y="764" on="1"/>
        <pt x="582" y="727" on="0"/>
        <pt x="582" y="709" on="1"/>
        <pt x="582" y="657" on="0"/>
        <pt x="653" y="657" on="1"/>
        <pt x="694" y="657" on="1"/>
        <pt x="680" y="588" on="1"/>
        <pt x="229" y="588" on="1"/>
        <pt x="244" y="657" on="1"/>
        <pt x="301" y="657" on="1"/>
        <pt x="386" y="657" on="0"/>
        <pt x="401" y="735" on="1"/>
        <pt x="426" y="848" on="1"/>
        <pt x="63" y="848" on="1"/>
        <pt x="74" y="918" on="1"/>
        <pt x="575" y="1473" on="1"/>
        <pt x="739" y="1473" on="1"/>
        <pt x="627" y="936" on="1"/>
        <pt x="823" y="936" on="1"/>
        <pt x="805" y="848" on="1"/>
      </contour>
      <contour>
        <pt x="494" y="1159" on="1"/>
        <pt x="519" y="1272" on="0"/>
        <pt x="535" y="1319" on="1"/>
        <pt x="492" y="1260" on="1"/>
        <pt x="201" y="936" on="1"/>
        <pt x="444" y="936" on="1"/>
      </contour>
    </TTGlyph>
    <TTGlyph name="fraction" xMin="-522" yMin="0" xMax="649" yMax="1462">
      <contour>
        <pt x="-379" y="0" on="1"/>
        <pt x="-522" y="0" on="1"/>
        <pt x="510" y="1462" on="1"/>
        <pt x="649" y="1462" on="1"/>
      </contour>
    </TTGlyph>
    <TTGlyph name="g" xMin="-72" yMin="-492" xMax="1225" yMax="1198">
      <contour>
        <pt x="901" y="1053" on="1"/>
        <pt x="998" y="1198" on="0"/>
        <pt x="1122" y="1198" on="1"/>
        <pt x="1225" y="1198" on="0"/>
        <pt x="1225" y="1104" on="1"/>
        <pt x="1225" y="977" on="0"/>
        <pt x="1104" y="977" on="1"/>
        <pt x="1104" y="1051" on="0"/>
        <pt x="1047" y="1051" on="1"/>
        <pt x="1007" y="1051" on="0"/>
        <pt x="946" y="1004" on="1"/>
        <pt x="991" y="940" on="0"/>
        <pt x="991" y="846" on="1"/>
        <pt x="991" y="674" on="0"/>
        <pt x="733" y="387" on="0"/>
        <pt x="522" y="387" on="1"/>
        <pt x="475" y="387" on="0"/>
        <pt x="457" y="391" on="1"/>
        <pt x="311" y="332" on="0"/>
        <pt x="311" y="262" on="1"/>
        <pt x="311" y="211" on="0"/>
        <pt x="416" y="201" on="1"/>
        <pt x="612" y="180" on="1"/>
        <pt x="930" y="146" on="0"/>
        <pt x="930" y="-88" on="1"/>
        <pt x="930" y="-279" on="0"/>
        <pt x="642" y="-492" on="0"/>
        <pt x="375" y="-492" on="1"/>
        <pt x="-72" y="-492" on="0"/>
        <pt x="-72" y="-225" on="1"/>
        <pt x="-72" y="-115" on="0"/>
        <pt x="107" y="40" on="0"/>
        <pt x="262" y="70" on="1"/>
        <pt x="164" y="118" on="0"/>
        <pt x="164" y="211" on="1"/>
        <pt x="164" y="274" on="0"/>
        <pt x="245" y="362" on="0"/>
        <pt x="358" y="420" on="1"/>
        <pt x="215" y="487" on="0"/>
        <pt x="215" y="662" on="1"/>
        <pt x="215" y="835" on="0"/>
        <pt x="476" y="1118" on="0"/>
        <pt x="690" y="1118" on="1"/>
        <pt x="821" y="1118" on="0"/>
      </contour>
      <contour>
        <pt x="545" y="485" on="1"/>
        <pt x="662" y="485" on="0"/>
        <pt x="805" y="718" on="0"/>
        <pt x="805" y="856" on="1"/>
        <pt x="805" y="1024" on="0"/>
        <pt x="664" y="1024" on="1"/>
        <pt x="544" y="1024" on="0"/>
        <pt x="403" y="789" on="0"/>
        <pt x="403" y="653" on="1"/>
        <pt x="403" y="485" on="0"/>
      </contour>
      <contour>
        <pt x="561" y="6" on="1"/>
        <pt x="362" y="25" on="1"/>
        <pt x="347" y="26" on="0"/>
        <pt x="200" y="-16" on="0"/>
        <pt x="94" y="-130" on="0"/>
        <pt x="94" y="-213" on="1"/>
        <pt x="94" y="-391" on="0"/>
        <pt x="383" y="-391" on="1"/>
        <pt x="563" y="-391" on="0"/>
        <pt x="752" y="-258" on="0"/>
        <pt x="752" y="-145" on="1"/>
        <pt x="752" y="-11" on="0"/>
      </contour>
    </TTGlyph>
    <TTGlyph name="germandbls" xMin="-279" yMin="-492" xMax="1229" yMax="1567">
      <contour>
        <pt x="-279" y="-475" on="1"/>
        <pt x="-260" y="-381" on="1"/>
        <pt x="-209" y="-395" on="0"/>
        <pt x="-166" y="-395" on="1"/>
        <pt x="-64" y="-395" on="0"/>
        <pt x="50" y="-220" on="0"/>
        <pt x="92" y="-18" on="1"/>
        <pt x="309" y="1001" on="1"/>
        <pt x="143" y="1001" on="1"/>
        <pt x="164" y="1098" on="1"/>
        <pt x="330" y="1098" on="1"/>
        <pt x="344" y="1159" on="1"/>
        <pt x="438" y="1567" on="0"/>
        <pt x="856" y="1567" on="1"/>
        <pt x="1229" y="1567" on="0"/>
        <pt x="1229" y="1253" on="1"/>
        <pt x="1229" y="1144" on="0"/>
        <pt x="1200" y="1006" on="1"/>
        <pt x="1024" y="1006" on="1"/>
        <pt x="799" y="1006" on="0"/>
        <pt x="799" y="838" on="1"/>
        <pt x="799" y="768" on="0"/>
        <pt x="888" y="674" on="0"/>
        <pt x="969" y="627" on="1"/>
        <pt x="1161" y="514" on="0"/>
        <pt x="1161" y="319" on="1"/>
        <pt x="1161" y="157" on="0"/>
        <pt x="958" y="-20" on="0"/>
        <pt x="766" y="-20" on="1"/>
        <pt x="621" y="-20" on="0"/>
        <pt x="455" y="91" on="0"/>
        <pt x="455" y="188" on="1"/>
        <pt x="455" y="248" on="0"/>
        <pt x="542" y="322" on="0"/>
        <pt x="608" y="322" on="1"/>
        <pt x="608" y="78" on="0"/>
        <pt x="780" y="78" on="1"/>
        <pt x="871" y="78" on="0"/>
        <pt x="981" y="183" on="0"/>
        <pt x="981" y="272" on="1"/>
        <pt x="981" y="410" on="0"/>
        <pt x="825" y="502" on="1"/>
        <pt x="621" y="628" on="0"/>
        <pt x="621" y="795" on="1"/>
        <pt x="621" y="1102" on="0"/>
        <pt x="1028" y="1102" on="1"/>
        <pt x="1051" y="1205" on="0"/>
        <pt x="1051" y="1272" on="1"/>
        <pt x="1051" y="1475" on="0"/>
        <pt x="850" y="1475" on="1"/>
        <pt x="607" y="1475" on="0"/>
        <pt x="543" y="1188" on="1"/>
        <pt x="285" y="-16" on="1"/>
        <pt x="231" y="-266" on="0"/>
        <pt x="26" y="-492" on="0"/>
        <pt x="-160" y="-492" on="1"/>
        <pt x="-218" y="-492" on="0"/>
      </contour>
    </TTGlyph>
    <TTGlyph name="grave" xMin="565" yMin="1241" xMax="913" yMax="1569">
      <contour>
        <pt x="829" y="1241" on="1"/>
        <pt x="675" y="1391" on="0"/>
        <pt x="565" y="1548" on="1"/>
        <pt x="571" y="1569" on="1"/>
        <pt x="776" y="1569" on="1"/>
        <pt x="836" y="1414" on="0"/>
        <pt x="913" y="1268" on="1"/>
        <pt x="907" y="1241" on="1"/>
      </contour>
    </TTGlyph>
    <TTGlyph name="greater" xMin="150" yMin="225" xMax="1028" yMax="1241">
      <contour>
        <pt x="150" y="225" on="1"/>
        <pt x="150" y="362" on="1"/>
        <pt x="838" y="731" on="1"/>
        <pt x="150" y="1104" on="1"/>
        <pt x="150" y="1241" on="1"/>
        <pt x="1028" y="768" on="1"/>
        <pt x="1028" y="696" on="1"/>
      </contour>
    </TTGlyph>
    <TTGlyph name="guillemotleft" xMin="125" yMin="164" xMax="1001" yMax="942">
      <contour>
        <pt x="139" y="586" on="1"/>
        <pt x="528" y="942" on="1"/>
        <pt x="631" y="942" on="1"/>
        <pt x="336" y="543" on="1"/>
        <pt x="465" y="164" on="1"/>
        <pt x="362" y="164" on="1"/>
        <pt x="125" y="520" on="1"/>
      </contour>
      <contour>
        <pt x="510" y="586" on="1"/>
        <pt x="899" y="942" on="1"/>
        <pt x="1001" y="942" on="1"/>
        <pt x="707" y="543" on="1"/>
        <pt x="836" y="164" on="1"/>
        <pt x="733" y="164" on="1"/>
        <pt x="496" y="520" on="1"/>
      </contour>
    </TTGlyph>
    <TTGlyph name="guillemotright" xMin="49" yMin="164" xMax="926" yMax="942">
      <contour>
        <pt x="911" y="520" on="1"/>
        <pt x="522" y="164" on="1"/>
        <pt x="420" y="164" on="1"/>
        <pt x="719" y="563" on="1"/>
        <pt x="586" y="942" on="1"/>
        <pt x="688" y="942" on="1"/>
        <pt x="926" y="586" on="1"/>
      </contour>
      <contour>
        <pt x="541" y="520" on="1"/>
        <pt x="152" y="164" on="1"/>
        <pt x="49" y="164" on="1"/>
        <pt x="348" y="563" on="1"/>
        <pt x="215" y="942" on="1"/>
        <pt x="317" y="942" on="1"/>
        <pt x="555" y="586" on="1"/>
      </contour>
    </TTGlyph>
    <TTGlyph name="guilsinglleft" xMin="125" yMin="164" xMax="631" yMax="942">
      <contour>
        <pt x="139" y="586" on="1"/>
        <pt x="528" y="942" on="1"/>
        <pt x="631" y="942" on="1"/>
        <pt x="336" y="545" on="1"/>
        <pt x="465" y="164" on="1"/>
        <pt x="362" y="164" on="1"/>
        <pt x="125" y="520" on="1"/>
      </contour>
    </TTGlyph>
    <TTGlyph name="guilsinglright" xMin="51" yMin="164" xMax="557" yMax="942">
      <contour>
        <pt x="543" y="520" on="1"/>
        <pt x="154" y="164" on="1"/>
        <pt x="51" y="164" on="1"/>
        <pt x="350" y="561" on="1"/>
        <pt x="217" y="942" on="1"/>
        <pt x="319" y="942" on="1"/>
        <pt x="557" y="586" on="1"/>
      </contour>
    </TTGlyph>
    <TTGlyph name="h" xMin="90" yMin="-20" xMax="1192" yMax="1556">
      <contour>
        <pt x="471" y="840" on="1"/>
        <pt x="641" y="1116" on="0"/>
        <pt x="850" y="1116" on="1"/>
        <pt x="1069" y="1116" on="0"/>
        <pt x="1069" y="889" on="1"/>
        <pt x="1069" y="824" on="0"/>
        <pt x="1032" y="664" on="1"/>
        <pt x="979" y="422" on="1"/>
        <pt x="952" y="299" on="0"/>
        <pt x="952" y="207" on="1"/>
        <pt x="952" y="109" on="0"/>
        <pt x="1024" y="109" on="1"/>
        <pt x="1083" y="109" on="0"/>
        <pt x="1155" y="156" on="1"/>
        <pt x="1192" y="96" on="1"/>
        <pt x="1058" y="-20" on="0"/>
        <pt x="942" y="-20" on="1"/>
        <pt x="857" y="-20" on="0"/>
        <pt x="756" y="90" on="0"/>
        <pt x="756" y="184" on="1"/>
        <pt x="756" y="278" on="0"/>
        <pt x="795" y="461" on="1"/>
        <pt x="842" y="673" on="1"/>
        <pt x="872" y="797" on="0"/>
        <pt x="872" y="864" on="1"/>
        <pt x="872" y="985" on="0"/>
        <pt x="778" y="985" on="1"/>
        <pt x="664" y="985" on="0"/>
        <pt x="423" y="674" on="0"/>
        <pt x="391" y="524" on="1"/>
        <pt x="281" y="0" on="1"/>
        <pt x="90" y="0" on="1"/>
        <pt x="356" y="1266" on="1"/>
        <pt x="375" y="1356" on="0"/>
        <pt x="375" y="1374" on="1"/>
        <pt x="375" y="1470" on="0"/>
        <pt x="231" y="1470" on="1"/>
        <pt x="215" y="1470" on="1"/>
        <pt x="233" y="1556" on="1"/>
        <pt x="610" y="1556" on="1"/>
        <pt x="530" y="1180" on="1"/>
        <pt x="494" y="1012" on="0"/>
        <pt x="449" y="840" on="1"/>
      </contour>
    </TTGlyph>
    <TTGlyph name="hyphen" xMin="29" yMin="481" xMax="594" yMax="635">
      <contour>
        <pt x="29" y="481" on="1"/>
        <pt x="61" y="635" on="1"/>
        <pt x="594" y="635" on="1"/>
        <pt x="561" y="481" on="1"/>
      </contour>
    </TTGlyph>
    <TTGlyph name="i" xMin="127" yMin="-20" xMax="594" yMax="1559">
      <contour>
        <pt x="459" y="1303" on="1"/>
        <pt x="344" y="1303" on="0"/>
        <pt x="344" y="1415" on="1"/>
        <pt x="344" y="1480" on="0"/>
        <pt x="411" y="1559" on="0"/>
        <pt x="467" y="1559" on="1"/>
        <pt x="582" y="1559" on="0"/>
        <pt x="582" y="1446" on="1"/>
        <pt x="582" y="1376" on="0"/>
        <pt x="513" y="1303" on="0"/>
      </contour>
      <contour>
        <pt x="127" y="1012" on="1"/>
        <pt x="145" y="1098" on="1"/>
        <pt x="512" y="1098" on="1"/>
        <pt x="373" y="440" on="1"/>
        <pt x="342" y="293" on="0"/>
        <pt x="342" y="213" on="1"/>
        <pt x="342" y="109" on="0"/>
        <pt x="410" y="109" on="1"/>
        <pt x="469" y="109" on="0"/>
        <pt x="557" y="162" on="1"/>
        <pt x="594" y="102" on="1"/>
        <pt x="452" y="-20" on="0"/>
        <pt x="317" y="-20" on="1"/>
        <pt x="241" y="-20" on="0"/>
        <pt x="147" y="90" on="0"/>
        <pt x="147" y="174" on="1"/>
        <pt x="147" y="266" on="0"/>
        <pt x="193" y="496" on="1"/>
        <pt x="272" y="872" on="1"/>
        <pt x="279" y="905" on="0"/>
        <pt x="279" y="926" on="1"/>
        <pt x="279" y="1012" on="0"/>
        <pt x="154" y="1012" on="1"/>
      </contour>
    </TTGlyph>
    <TTGlyph name="iacute" xMin="127" yMin="-20" xMax="771" yMax="1569">
      <component glyphName="dotlessi" x="0" y="0" flags="0x1204"/>
      <component glyphName="acute" x="-175" y="0" flags="0x1004"/>
    </TTGlyph>
    <TTGlyph name="icircumflex" xMin="73" yMin="-20" xMax="683" yMax="1569">
      <component glyphName="dotlessi" x="0" y="0" flags="0x1204"/>
      <component glyphName="circumflex" x="-302" y="0" flags="0x1004"/>
    </TTGlyph>
    <TTGlyph name="idieresis" xMin="106" yMin="-20" xMax="708" yMax="1526">
      <component glyphName="dotlessi" x="0" y="0" flags="0x1204"/>
      <component glyphName="dieresis" x="-306" y="0" flags="0x1004"/>
    </TTGlyph>
    <TTGlyph name="igrave" xMin="127" yMin="-20" xMax="594" yMax="1569">
      <component glyphName="dotlessi" x="0" y="0" flags="0x1204"/>
      <component glyphName="grave" x="-374" y="0" flags="0x1004"/>
    </TTGlyph>
    <TTGlyph name="j" xMin="-287" yMin="-492" xMax="584" yMax="1559">
      <contour>
        <pt x="461" y="1303" on="1"/>
        <pt x="346" y="1303" on="0"/>
        <pt x="346" y="1415" on="1"/>
        <pt x="346" y="1480" on="0"/>
        <pt x="413" y="1559" on="0"/>
        <pt x="469" y="1559" on="1"/>
        <pt x="584" y="1559" on="0"/>
        <pt x="584" y="1446" on="1"/>
        <pt x="584" y="1376" on="0"/>
        <pt x="515" y="1303" on="0"/>
      </contour>
      <contour>
        <pt x="-287" y="-475" on="1"/>
        <pt x="-268" y="-381" on="1"/>
        <pt x="-217" y="-395" on="0"/>
        <pt x="-174" y="-395" on="1"/>
        <pt x="-71" y="-395" on="0"/>
        <pt x="46" y="-212" on="0"/>
        <pt x="86" y="-16" on="1"/>
        <pt x="274" y="872" on="1"/>
        <pt x="281" y="905" on="0"/>
        <pt x="281" y="926" on="1"/>
        <pt x="281" y="1012" on="0"/>
        <pt x="156" y="1012" on="1"/>
        <pt x="129" y="1012" on="1"/>
        <pt x="147" y="1098" on="1"/>
        <pt x="514" y="1098" on="1"/>
        <pt x="279" y="-16" on="1"/>
        <pt x="227" y="-260" on="0"/>
        <pt x="20" y="-492" on="0"/>
        <pt x="-168" y="-492" on="1"/>
        <pt x="-226" y="-492" on="0"/>
      </contour>
    </TTGlyph>
    <TTGlyph name="k" xMin="90" yMin="-14" xMax="1225" yMax="1556">
      <contour>
        <pt x="694" y="786" on="1"/>
        <pt x="845" y="917" on="0"/>
        <pt x="845" y="979" on="1"/>
        <pt x="845" y="1010" on="0"/>
        <pt x="754" y="1010" on="1"/>
        <pt x="772" y="1096" on="1"/>
        <pt x="1225" y="1096" on="1"/>
        <pt x="1206" y="1010" on="1"/>
        <pt x="1087" y="1010" on="0"/>
        <pt x="877" y="819" on="1"/>
        <pt x="692" y="649" on="1"/>
        <pt x="879" y="244" on="1"/>
        <pt x="958" y="72" on="0"/>
        <pt x="1087" y="72" on="1"/>
        <pt x="1069" y="-14" on="1"/>
        <pt x="899" y="-14" on="0"/>
        <pt x="739" y="65" on="0"/>
        <pt x="684" y="197" on="1"/>
        <pt x="551" y="524" on="1"/>
        <pt x="365" y="406" on="1"/>
        <pt x="281" y="0" on="1"/>
        <pt x="90" y="0" on="1"/>
        <pt x="356" y="1266" on="1"/>
        <pt x="375" y="1356" on="0"/>
        <pt x="375" y="1374" on="1"/>
        <pt x="375" y="1470" on="0"/>
        <pt x="231" y="1470" on="1"/>
        <pt x="215" y="1470" on="1"/>
        <pt x="233" y="1556" on="1"/>
        <pt x="610" y="1556" on="1"/>
        <pt x="530" y="1180" on="1"/>
        <pt x="420" y="663" on="0"/>
        <pt x="371" y="506" on="1"/>
      </contour>
    </TTGlyph>
    <TTGlyph name="l" xMin="150" yMin="-20" xMax="612" yMax="1556">
      <contour>
        <pt x="207" y="1470" on="1"/>
        <pt x="225" y="1556" on="1"/>
        <pt x="612" y="1556" on="1"/>
        <pt x="375" y="440" on="1"/>
        <pt x="344" y="294" on="0"/>
        <pt x="344" y="213" on="1"/>
        <pt x="344" y="109" on="0"/>
        <pt x="412" y="109" on="1"/>
        <pt x="471" y="109" on="0"/>
        <pt x="559" y="162" on="1"/>
        <pt x="596" y="102" on="1"/>
        <pt x="454" y="-20" on="0"/>
        <pt x="319" y="-20" on="1"/>
        <pt x="245" y="-20" on="0"/>
        <pt x="150" y="88" on="0"/>
        <pt x="150" y="174" on="1"/>
        <pt x="150" y="271" on="0"/>
        <pt x="195" y="496" on="1"/>
        <pt x="362" y="1282" on="1"/>
        <pt x="375" y="1343" on="0"/>
        <pt x="375" y="1374" on="1"/>
        <pt x="375" y="1470" on="0"/>
        <pt x="231" y="1470" on="1"/>
      </contour>
    </TTGlyph>
    <TTGlyph name="less" xMin="150" yMin="225" xMax="1028" yMax="1241">
      <contour>
        <pt x="150" y="696" on="1"/>
        <pt x="150" y="768" on="1"/>
        <pt x="1028" y="1241" on="1"/>
        <pt x="1028" y="1104" on="1"/>
        <pt x="340" y="731" on="1"/>
        <pt x="1028" y="362" on="1"/>
        <pt x="1028" y="225" on="1"/>
      </contour>
    </TTGlyph>
    <TTGlyph name="logicalnot" xMin="150" yMin="252" xMax="1028" yMax="793">
      <contour>
        <pt x="1028" y="793" on="1"/>
        <pt x="1028" y="252" on="1"/>
        <pt x="905" y="252" on="1"/>
        <pt x="905" y="672" on="1"/>
        <pt x="150" y="672" on="1"/>
        <pt x="150" y="793" on="1"/>
      </contour>
    </TTGlyph>
    <TTGlyph name="m" xMin="90" yMin="-20" xMax="1800" yMax="1116">
      <contour>
        <pt x="920" y="0" on="1"/>
        <pt x="725" y="0" on="1"/>
        <pt x="725" y="46" on="0"/>
        <pt x="777" y="379" on="0"/>
        <pt x="795" y="461" on="1"/>
        <pt x="842" y="673" on="1"/>
        <pt x="872" y="797" on="0"/>
        <pt x="872" y="864" on="1"/>
        <pt x="872" y="985" on="0"/>
        <pt x="778" y="985" on="1"/>
        <pt x="664" y="985" on="0"/>
        <pt x="423" y="674" on="0"/>
        <pt x="391" y="524" on="1"/>
        <pt x="281" y="0" on="1"/>
        <pt x="90" y="0" on="1"/>
        <pt x="262" y="823" on="1"/>
        <pt x="274" y="880" on="0"/>
        <pt x="274" y="915" on="1"/>
        <pt x="274" y="1012" on="0"/>
        <pt x="131" y="1012" on="1"/>
        <pt x="115" y="1012" on="1"/>
        <pt x="133" y="1098" on="1"/>
        <pt x="512" y="1098" on="1"/>
        <pt x="457" y="840" on="1"/>
        <pt x="477" y="840" on="1"/>
        <pt x="643" y="1116" on="0"/>
        <pt x="850" y="1116" on="1"/>
        <pt x="1069" y="1116" on="0"/>
        <pt x="1069" y="889" on="1"/>
        <pt x="1069" y="864" on="0"/>
        <pt x="1065" y="840" on="1"/>
        <pt x="1085" y="840" on="1"/>
        <pt x="1252" y="1116" on="0"/>
        <pt x="1458" y="1116" on="1"/>
        <pt x="1677" y="1116" on="0"/>
        <pt x="1677" y="889" on="1"/>
        <pt x="1677" y="824" on="0"/>
        <pt x="1640" y="664" on="1"/>
        <pt x="1587" y="422" on="1"/>
        <pt x="1561" y="303" on="0"/>
        <pt x="1561" y="207" on="1"/>
        <pt x="1561" y="109" on="0"/>
        <pt x="1632" y="109" on="1"/>
        <pt x="1691" y="109" on="0"/>
        <pt x="1763" y="156" on="1"/>
        <pt x="1800" y="96" on="1"/>
        <pt x="1670" y="-20" on="0"/>
        <pt x="1550" y="-20" on="1"/>
        <pt x="1466" y="-20" on="0"/>
        <pt x="1364" y="90" on="0"/>
        <pt x="1364" y="184" on="1"/>
        <pt x="1364" y="278" on="0"/>
        <pt x="1403" y="461" on="1"/>
        <pt x="1438" y="621" on="1"/>
        <pt x="1481" y="818" on="0"/>
        <pt x="1481" y="864" on="1"/>
        <pt x="1481" y="985" on="0"/>
        <pt x="1386" y="985" on="1"/>
        <pt x="1281" y="985" on="0"/>
        <pt x="1057" y="716" on="0"/>
        <pt x="1012" y="569" on="1"/>
        <pt x="979" y="422" on="1"/>
        <pt x="966" y="366" on="0"/>
        <pt x="920" y="40" on="0"/>
      </contour>
    </TTGlyph>
    <TTGlyph name="mu" xMin="-4" yMin="-492" xMax="1153" yMax="1098">
      <contour>
        <pt x="223" y="100" on="1"/>
        <pt x="190" y="-70" on="0"/>
        <pt x="190" y="-147" on="1"/>
        <pt x="190" y="-296" on="0"/>
        <pt x="303" y="-313" on="1"/>
        <pt x="284" y="-492" on="0"/>
        <pt x="129" y="-492" on="1"/>
        <pt x="-4" y="-492" on="0"/>
        <pt x="-4" y="-344" on="1"/>
        <pt x="-4" y="-253" on="0"/>
        <pt x="57" y="-34" on="1"/>
        <pt x="144" y="280" on="0"/>
        <pt x="182" y="461" on="1"/>
        <pt x="317" y="1098" on="1"/>
        <pt x="510" y="1098" on="1"/>
        <pt x="375" y="457" on="1"/>
        <pt x="352" y="348" on="0"/>
        <pt x="352" y="268" on="1"/>
        <pt x="352" y="111" on="0"/>
        <pt x="502" y="111" on="1"/>
        <pt x="608" y="111" on="0"/>
        <pt x="772" y="291" on="0"/>
        <pt x="803" y="442" on="1"/>
        <pt x="942" y="1098" on="1"/>
        <pt x="1135" y="1098" on="1"/>
        <pt x="971" y="332" on="1"/>
        <pt x="946" y="215" on="0"/>
        <pt x="946" y="174" on="1"/>
        <pt x="946" y="109" on="0"/>
        <pt x="1006" y="109" on="1"/>
        <pt x="1050" y="109" on="0"/>
        <pt x="1118" y="143" on="1"/>
        <pt x="1153" y="74" on="1"/>
        <pt x="1017" y="-20" on="0"/>
        <pt x="915" y="-20" on="1"/>
        <pt x="770" y="-20" on="0"/>
        <pt x="762" y="176" on="1"/>
        <pt x="752" y="176" on="1"/>
        <pt x="619" y="-20" on="0"/>
        <pt x="455" y="-20" on="1"/>
        <pt x="286" y="-20" on="0"/>
      </contour>
    </TTGlyph>
    <TTGlyph name="multiply" xMin="145" yMin="307" xMax="997" yMax="1161">
      <contour>
        <pt x="571" y="647" on="1"/>
        <pt x="231" y="307" on="1"/>
        <pt x="145" y="395" on="1"/>
        <pt x="485" y="735" on="1"/>
        <pt x="145" y="1073" on="1"/>
        <pt x="231" y="1159" on="1"/>
        <pt x="571" y="819" on="1"/>
        <pt x="911" y="1161" on="1"/>
        <pt x="997" y="1073" on="1"/>
        <pt x="657" y="733" on="1"/>
        <pt x="997" y="393" on="1"/>
        <pt x="911" y="307" on="1"/>
      </contour>
    </TTGlyph>
    <TTGlyph name="n" xMin="90" yMin="-20" xMax="1192" yMax="1116">
      <contour>
        <pt x="281" y="0" on="1"/>
        <pt x="90" y="0" on="1"/>
        <pt x="262" y="823" on="1"/>
        <pt x="274" y="880" on="0"/>
        <pt x="274" y="915" on="1"/>
        <pt x="274" y="1012" on="0"/>
        <pt x="131" y="1012" on="1"/>
        <pt x="115" y="1012" on="1"/>
        <pt x="133" y="1098" on="1"/>
        <pt x="512" y="1098" on="1"/>
        <pt x="457" y="840" on="1"/>
        <pt x="477" y="840" on="1"/>
        <pt x="643" y="1116" on="0"/>
        <pt x="850" y="1116" on="1"/>
        <pt x="1069" y="1116" on="0"/>
        <pt x="1069" y="889" on="1"/>
        <pt x="1069" y="824" on="0"/>
        <pt x="1032" y="664" on="1"/>
        <pt x="979" y="422" on="1"/>
        <pt x="952" y="299" on="0"/>
        <pt x="952" y="207" on="1"/>
        <pt x="952" y="109" on="0"/>
        <pt x="1024" y="109" on="1"/>
        <pt x="1083" y="109" on="0"/>
        <pt x="1155" y="156" on="1"/>
        <pt x="1192" y="96" on="1"/>
        <pt x="1058" y="-20" on="0"/>
        <pt x="942" y="-20" on="1"/>
        <pt x="857" y="-20" on="0"/>
        <pt x="756" y="90" on="0"/>
        <pt x="756" y="184" on="1"/>
        <pt x="756" y="278" on="0"/>
        <pt x="795" y="461" on="1"/>
        <pt x="842" y="673" on="1"/>
        <pt x="872" y="797" on="0"/>
        <pt x="872" y="864" on="1"/>
        <pt x="872" y="985" on="0"/>
        <pt x="778" y="985" on="1"/>
        <pt x="664" y="985" on="0"/>
        <pt x="425" y="677" on="0"/>
        <pt x="391" y="524" on="1"/>
      </contour>
    </TTGlyph>
    <TTGlyph name="nine" xMin="72" yMin="-20" xMax="1065" yMax="1483">
      <contour>
        <pt x="809" y="702" on="1"/>
        <pt x="675" y="563" on="0"/>
        <pt x="496" y="563" on="1"/>
        <pt x="337" y="563" on="0"/>
        <pt x="150" y="749" on="0"/>
        <pt x="150" y="903" on="1"/>
        <pt x="150" y="1153" on="0"/>
        <pt x="465" y="1483" on="0"/>
        <pt x="690" y="1483" on="1"/>
        <pt x="863" y="1483" on="0"/>
        <pt x="1065" y="1271" on="0"/>
        <pt x="1065" y="1079" on="1"/>
        <pt x="1065" y="685" on="0"/>
        <pt x="689" y="-20" on="0"/>
        <pt x="358" y="-20" on="1"/>
        <pt x="72" y="-20" on="0"/>
        <pt x="72" y="164" on="1"/>
        <pt x="72" y="215" on="0"/>
        <pt x="136" y="283" on="0"/>
        <pt x="193" y="283" on="1"/>
        <pt x="197" y="190" on="0"/>
        <pt x="294" y="80" on="0"/>
        <pt x="375" y="80" on="1"/>
        <pt x="517" y="80" on="0"/>
        <pt x="720" y="371" on="0"/>
      </contour>
      <contour>
        <pt x="842" y="850" on="1"/>
        <pt x="874" y="983" on="0"/>
        <pt x="874" y="1092" on="1"/>
        <pt x="874" y="1370" on="0"/>
        <pt x="684" y="1370" on="1"/>
        <pt x="549" y="1370" on="0"/>
        <pt x="354" y="1082" on="0"/>
        <pt x="354" y="897" on="1"/>
        <pt x="354" y="788" on="0"/>
        <pt x="459" y="676" on="0"/>
        <pt x="547" y="676" on="1"/>
        <pt x="711" y="676" on="0"/>
      </contour>
    </TTGlyph>
    <TTGlyph name="ntilde" xMin="90" yMin="-20" xMax="1192" yMax="1503">
      <component glyphName="n" x="0" y="0" flags="0x1204"/>
      <component glyphName="tilde" x="18" y="0" flags="0x1004"/>
    </TTGlyph>
    <TTGlyph name="numbersign" xMin="68" yMin="0" xMax="1116" yMax="1462">
      <contour>
        <pt x="1038" y="537" on="1"/>
        <pt x="1024" y="416" on="1"/>
        <pt x="766" y="416" on="1"/>
        <pt x="645" y="0" on="1"/>
        <pt x="522" y="0" on="1"/>
        <pt x="643" y="416" on="1"/>
        <pt x="358" y="416" on="1"/>
        <pt x="238" y="0" on="1"/>
        <pt x="115" y="0" on="1"/>
        <pt x="236" y="416" on="1"/>
        <pt x="68" y="416" on="1"/>
        <pt x="82" y="537" on="1"/>
        <pt x="272" y="537" on="1"/>
        <pt x="391" y="938" on="1"/>
        <pt x="147" y="938" on="1"/>
        <pt x="160" y="1059" on="1"/>
        <pt x="426" y="1059" on="1"/>
        <pt x="543" y="1462" on="1"/>
        <pt x="668" y="1462" on="1"/>
        <pt x="549" y="1059" on="1"/>
        <pt x="834" y="1059" on="1"/>
        <pt x="952" y="1462" on="1"/>
        <pt x="1075" y="1462" on="1"/>
        <pt x="956" y="1059" on="1"/>
        <pt x="1116" y="1059" on="1"/>
        <pt x="1104" y="938" on="1"/>
        <pt x="922" y="938" on="1"/>
        <pt x="805" y="537" on="1"/>
      </contour>
      <contour>
        <pt x="397" y="537" on="1"/>
        <pt x="682" y="537" on="1"/>
        <pt x="799" y="938" on="1"/>
        <pt x="514" y="938" on="1"/>
      </contour>
    </TTGlyph>
    <TTGlyph name="o" xMin="88" yMin="-20" xMax="1087" yMax="1118">
      <contour>
        <pt x="698" y="1118" on="1"/>
        <pt x="879" y="1118" on="0"/>
        <pt x="1087" y="900" on="0"/>
        <pt x="1087" y="694" on="1"/>
        <pt x="1087" y="421" on="0"/>
        <pt x="753" y="-20" on="0"/>
        <pt x="481" y="-20" on="1"/>
        <pt x="296" y="-20" on="0"/>
        <pt x="88" y="204" on="0"/>
        <pt x="88" y="403" on="1"/>
        <pt x="88" y="679" on="0"/>
        <pt x="425" y="1118" on="0"/>
      </contour>
      <contour>
        <pt x="504" y="80" on="1"/>
        <pt x="673" y="80" on="0"/>
        <pt x="874" y="481" on="0"/>
        <pt x="874" y="725" on="1"/>
        <pt x="874" y="1010" on="0"/>
        <pt x="674" y="1010" on="1"/>
        <pt x="507" y="1010" on="0"/>
        <pt x="301" y="608" on="0"/>
        <pt x="301" y="362" on="1"/>
        <pt x="301" y="80" on="0"/>
      </contour>
    </TTGlyph>
    <TTGlyph name="oacute" xMin="88" yMin="-20" xMax="1087" yMax="1569">
      <component glyphName="o" x="0" y="0" flags="0x1204"/>
      <component glyphName="acute" x="121" y="0" flags="0x1004"/>
    </TTGlyph>
    <TTGlyph name="ocircumflex" xMin="88" yMin="-20" xMax="1087" yMax="1569">
      <component glyphName="o" x="0" y="0" flags="0x1204"/>
      <component glyphName="circumflex" x="18" y="0" flags="0x1004"/>
    </TTGlyph>
    <TTGlyph name="odieresis" xMin="88" yMin="-20" xMax="1087" yMax="1526">
      <component glyphName="o" x="0" y="0" flags="0x1204"/>
      <component glyphName="dieresis" x="4" y="0" flags="0x1004"/>
    </TTGlyph>
    <TTGlyph name="ograve" xMin="88" yMin="-20" xMax="1087" yMax="1569">
      <component glyphName="o" x="0" y="0" flags="0x1204"/>
      <component glyphName="grave" x="-95" y="0" flags="0x1004"/>
    </TTGlyph>
    <TTGlyph name="one" xMin="78" yMin="0" xMax="872" yMax="1470">
      <contour>
        <pt x="872" y="1470" on="1"/>
        <pt x="608" y="225" on="1"/>
        <pt x="600" y="187" on="0"/>
        <pt x="600" y="168" on="1"/>
        <pt x="600" y="86" on="0"/>
        <pt x="748" y="86" on="1"/>
        <pt x="858" y="86" on="1"/>
        <pt x="840" y="0" on="1"/>
        <pt x="78" y="0" on="1"/>
        <pt x="94" y="86" on="1"/>
        <pt x="203" y="86" on="1"/>
        <pt x="300" y="86" on="0"/>
        <pt x="388" y="159" on="0"/>
        <pt x="403" y="233" on="1"/>
        <pt x="563" y="987" on="1"/>
        <pt x="598" y="1151" on="0"/>
        <pt x="639" y="1309" on="1"/>
        <pt x="631" y="1309" on="1"/>
        <pt x="502" y="1182" on="0"/>
        <pt x="376" y="1096" on="0"/>
        <pt x="322" y="1096" on="1"/>
        <pt x="240" y="1096" on="0"/>
        <pt x="240" y="1206" on="1"/>
        <pt x="380" y="1240" on="0"/>
        <pt x="575" y="1364" on="1"/>
        <pt x="741" y="1470" on="1"/>
      </contour>
    </TTGlyph>
    <TTGlyph name="onehalf" xMin="27" yMin="0" xMax="1651" yMax="1473">
      <component glyphName="onesuperior" x="-108" y="0" flags="0x1004"/>
      <component glyphName="fraction" x="778" y="0" flags="0x1004"/>
      <component glyphName="twosuperior" x="881" y="-585" flags="0x1004"/>
    </TTGlyph>
    <TTGlyph name="onequarter" xMin="27" yMin="0" xMax="1652" yMax="1473">
      <component glyphName="onesuperior" x="-108" y="0" flags="0x1004"/>
      <component glyphName="fraction" x="799" y="0" flags="0x1004"/>
      <component glyphName="foursuperior" x="829" y="-587" flags="0x1004"/>
    </TTGlyph>
    <TTGlyph name="onesuperior" xMin="135" yMin="588" xMax="692" yMax="1473">
      <contour>
        <pt x="135" y="588" on="1"/>
        <pt x="150" y="657" on="1"/>
        <pt x="244" y="657" on="1"/>
        <pt x="329" y="657" on="0"/>
        <pt x="344" y="735" on="1"/>
        <pt x="469" y="1325" on="1"/>
        <pt x="279" y="1325" on="1"/>
        <pt x="293" y="1395" on="1"/>
        <pt x="395" y="1395" on="1"/>
        <pt x="538" y="1395" on="0"/>
        <pt x="582" y="1473" on="1"/>
        <pt x="684" y="1473" on="1"/>
        <pt x="541" y="795" on="1"/>
        <pt x="526" y="724" on="0"/>
        <pt x="526" y="709" on="1"/>
        <pt x="526" y="657" on="0"/>
        <pt x="598" y="657" on="1"/>
        <pt x="692" y="657" on="1"/>
        <pt x="678" y="588" on="1"/>
      </contour>
    </TTGlyph>
    <TTGlyph name="ordfeminine" xMin="123" yMin="782" xMax="850" yMax="1466">
      <contour>
        <pt x="573" y="995" on="1"/>
        <pt x="565" y="995" on="1"/>
        <pt x="458" y="782" on="0"/>
        <pt x="303" y="782" on="1"/>
        <pt x="217" y="782" on="0"/>
        <pt x="123" y="902" on="0"/>
        <pt x="123" y="1008" on="1"/>
        <pt x="123" y="1174" on="0"/>
        <pt x="362" y="1466" on="0"/>
        <pt x="543" y="1466" on="1"/>
        <pt x="641" y="1466" on="0"/>
        <pt x="707" y="1423" on="1"/>
        <pt x="770" y="1452" on="1"/>
        <pt x="815" y="1452" on="1"/>
        <pt x="719" y="1073" on="1"/>
        <pt x="698" y="990" on="0"/>
        <pt x="698" y="942" on="1"/>
        <pt x="698" y="881" on="0"/>
        <pt x="739" y="881" on="1"/>
        <pt x="774" y="881" on="0"/>
        <pt x="827" y="913" on="1"/>
        <pt x="850" y="874" on="1"/>
        <pt x="757" y="782" on="0"/>
        <pt x="672" y="782" on="1"/>
        <pt x="559" y="782" on="0"/>
        <pt x="559" y="885" on="1"/>
        <pt x="559" y="942" on="0"/>
      </contour>
      <contour>
        <pt x="629" y="1350" on="1"/>
        <pt x="600" y="1391" on="0"/>
        <pt x="539" y="1391" on="1"/>
        <pt x="437" y="1391" on="0"/>
        <pt x="301" y="1140" on="0"/>
        <pt x="301" y="1012" on="1"/>
        <pt x="301" y="879" on="0"/>
        <pt x="371" y="879" on="1"/>
        <pt x="425" y="879" on="0"/>
        <pt x="548" y="1050" on="0"/>
        <pt x="575" y="1147" on="1"/>
      </contour>
    </TTGlyph>
    <TTGlyph name="ordmasculine" xMin="137" yMin="780" xMax="836" yMax="1468">
      <contour>
        <pt x="420" y="780" on="1"/>
        <pt x="287" y="780" on="0"/>
        <pt x="137" y="917" on="0"/>
        <pt x="137" y="1036" on="1"/>
        <pt x="137" y="1198" on="0"/>
        <pt x="371" y="1468" on="0"/>
        <pt x="557" y="1468" on="1"/>
        <pt x="687" y="1468" on="0"/>
        <pt x="836" y="1335" on="0"/>
        <pt x="836" y="1217" on="1"/>
        <pt x="836" y="1053" on="0"/>
        <pt x="606" y="780" on="0"/>
      </contour>
      <contour>
        <pt x="543" y="1386" on="1"/>
        <pt x="445" y="1386" on="0"/>
        <pt x="317" y="1148" on="0"/>
        <pt x="317" y="1014" on="1"/>
        <pt x="317" y="862" on="0"/>
        <pt x="420" y="862" on="1"/>
        <pt x="519" y="862" on="0"/>
        <pt x="643" y="1099" on="0"/>
        <pt x="643" y="1241" on="1"/>
        <pt x="643" y="1386" on="0"/>
      </contour>
    </TTGlyph>
    <TTGlyph name="oslash" xMin="10" yMin="-82" xMax="1176" yMax="1180">
      <contour>
        <pt x="942" y="1044" on="1"/>
        <pt x="1057" y="1180" on="1"/>
        <pt x="1176" y="1180" on="1"/>
        <pt x="1010" y="977" on="1"/>
        <pt x="1087" y="871" on="0"/>
        <pt x="1087" y="694" on="1"/>
        <pt x="1087" y="419" on="0"/>
        <pt x="753" y="-25" on="0"/>
        <pt x="481" y="-25" on="1"/>
        <pt x="340" y="-25" on="0"/>
        <pt x="238" y="47" on="1"/>
        <pt x="131" y="-82" on="1"/>
        <pt x="10" y="-82" on="1"/>
        <pt x="172" y="113" on="1"/>
        <pt x="88" y="223" on="0"/>
        <pt x="88" y="403" on="1"/>
        <pt x="88" y="679" on="0"/>
        <pt x="425" y="1118" on="0"/>
        <pt x="698" y="1118" on="1"/>
        <pt x="847" y="1118" on="0"/>
      </contour>
      <contour>
        <pt x="305" y="274" on="1"/>
        <pt x="838" y="918" on="1"/>
        <pt x="789" y="1010" on="0"/>
        <pt x="674" y="1010" on="1"/>
        <pt x="507" y="1010" on="0"/>
        <pt x="301" y="608" on="0"/>
        <pt x="301" y="362" on="1"/>
        <pt x="301" y="297" on="0"/>
      </contour>
      <contour>
        <pt x="868" y="809" on="1"/>
        <pt x="338" y="168" on="1"/>
        <pt x="384" y="76" on="0"/>
        <pt x="504" y="76" on="1"/>
        <pt x="672" y="76" on="0"/>
        <pt x="874" y="479" on="0"/>
        <pt x="874" y="725" on="1"/>
        <pt x="874" y="769" on="0"/>
      </contour>
    </TTGlyph>
    <TTGlyph name="otilde" xMin="88" yMin="-20" xMax="1115" yMax="1503">
      <component glyphName="o" x="0" y="0" flags="0x1204"/>
      <component glyphName="tilde" x="-5" y="0" flags="0x1004"/>
    </TTGlyph>
    <TTGlyph name="overscore" xMin="-10" yMin="1556" xMax="950" yMax="1677">
      <contour>
        <pt x="950" y="1556" on="1"/>
        <pt x="-10" y="1556" on="1"/>
        <pt x="-10" y="1677" on="1"/>
        <pt x="950" y="1677" on="1"/>
      </contour>
    </TTGlyph>
    <TTGlyph name="p" xMin="-14" yMin="-492" xMax="1094" yMax="1118">
      <contour>
        <pt x="389" y="-406" on="1"/>
        <pt x="371" y="-492" on="1"/>
        <pt x="-14" y="-492" on="1"/>
        <pt x="258" y="807" on="1"/>
        <pt x="276" y="893" on="0"/>
        <pt x="276" y="915" on="1"/>
        <pt x="276" y="1012" on="0"/>
        <pt x="133" y="1012" on="1"/>
        <pt x="117" y="1012" on="1"/>
        <pt x="135" y="1098" on="1"/>
        <pt x="498" y="1098" on="1"/>
        <pt x="449" y="825" on="1"/>
        <pt x="459" y="825" on="1"/>
        <pt x="607" y="1118" on="0"/>
        <pt x="834" y="1118" on="1"/>
        <pt x="959" y="1118" on="0"/>
        <pt x="1094" y="928" on="0"/>
        <pt x="1094" y="748" on="1"/>
        <pt x="1094" y="473" on="0"/>
        <pt x="751" y="-20" on="0"/>
        <pt x="483" y="-20" on="1"/>
        <pt x="366" y="-20" on="0"/>
        <pt x="283" y="27" on="1"/>
        <pt x="274" y="-39" on="0"/>
        <pt x="266" y="-72" on="1"/>
        <pt x="238" y="-197" on="1"/>
        <pt x="219" y="-282" on="0"/>
        <pt x="219" y="-311" on="1"/>
        <pt x="219" y="-406" on="0"/>
        <pt x="362" y="-406" on="1"/>
      </contour>
      <contour>
        <pt x="315" y="145" on="1"/>
        <pt x="381" y="72" on="0"/>
        <pt x="477" y="72" on="1"/>
        <pt x="648" y="72" on="0"/>
        <pt x="885" y="519" on="0"/>
        <pt x="885" y="750" on="1"/>
        <pt x="885" y="989" on="0"/>
        <pt x="756" y="989" on="1"/>
        <pt x="650" y="989" on="0"/>
        <pt x="434" y="694" on="0"/>
        <pt x="399" y="535" on="1"/>
      </contour>
    </TTGlyph>
    <TTGlyph name="paragraph" xMin="98" yMin="-227" xMax="1196" yMax="1556">
      <contour>
        <pt x="877" y="1452" on="1"/>
        <pt x="682" y="1452" on="1"/>
        <pt x="682" y="-227" on="1"/>
        <pt x="362" y="-227" on="1"/>
        <pt x="362" y="-141" on="1"/>
        <pt x="389" y="-141" on="1"/>
        <pt x="488" y="-141" on="0"/>
        <pt x="557" y="-65" on="0"/>
        <pt x="557" y="6" on="1"/>
        <pt x="557" y="791" on="1"/>
        <pt x="412" y="791" on="1"/>
        <pt x="98" y="791" on="0"/>
        <pt x="98" y="1192" on="1"/>
        <pt x="98" y="1556" on="0"/>
        <pt x="416" y="1556" on="1"/>
        <pt x="1196" y="1556" on="1"/>
        <pt x="1196" y="1470" on="1"/>
        <pt x="1169" y="1470" on="1"/>
        <pt x="1071" y="1470" on="0"/>
        <pt x="1001" y="1395" on="0"/>
        <pt x="1001" y="1323" on="1"/>
        <pt x="1001" y="6" on="1"/>
        <pt x="1001" y="-66" on="0"/>
        <pt x="1071" y="-141" on="0"/>
        <pt x="1169" y="-141" on="1"/>
        <pt x="1196" y="-141" on="1"/>
        <pt x="1196" y="-227" on="1"/>
        <pt x="877" y="-227" on="1"/>
      </contour>
    </TTGlyph>
    <TTGlyph name="parenleft" xMin="86" yMin="-262" xMax="836" yMax="1556">
      <contour>
        <pt x="469" y="-168" on="1"/>
        <pt x="449" y="-262" on="1"/>
        <pt x="86" y="-103" on="0"/>
        <pt x="86" y="381" on="1"/>
        <pt x="86" y="794" on="0"/>
        <pt x="483" y="1460" on="0"/>
        <pt x="836" y="1556" on="1"/>
        <pt x="815" y="1464" on="1"/>
        <pt x="532" y="1310" on="0"/>
        <pt x="279" y="583" on="0"/>
        <pt x="279" y="285" on="1"/>
        <pt x="279" y="-36" on="0"/>
      </contour>
    </TTGlyph>
    <TTGlyph name="parenright" xMin="-100" yMin="-279" xMax="649" yMax="1540">
      <contour>
        <pt x="266" y="1446" on="1"/>
        <pt x="287" y="1540" on="1"/>
        <pt x="649" y="1382" on="0"/>
        <pt x="649" y="897" on="1"/>
        <pt x="649" y="482" on="0"/>
        <pt x="249" y="-185" on="0"/>
        <pt x="-100" y="-279" on="1"/>
        <pt x="-80" y="-186" on="1"/>
        <pt x="204" y="-33" on="0"/>
        <pt x="457" y="700" on="0"/>
        <pt x="457" y="993" on="1"/>
        <pt x="457" y="1313" on="0"/>
      </contour>
    </TTGlyph>
    <TTGlyph name="percent" xMin="135" yMin="-16" xMax="1743" yMax="1481">
      <contour>
        <pt x="565" y="1481" on="1"/>
        <pt x="838" y="1481" on="0"/>
        <pt x="838" y="1155" on="1"/>
        <pt x="838" y="948" on="0"/>
        <pt x="597" y="575" on="0"/>
        <pt x="399" y="575" on="1"/>
        <pt x="274" y="575" on="0"/>
        <pt x="135" y="742" on="0"/>
        <pt x="135" y="901" on="1"/>
        <pt x="135" y="1117" on="0"/>
        <pt x="371" y="1481" on="0"/>
      </contour>
      <contour>
        <pt x="297" y="870" on="1"/>
        <pt x="297" y="659" on="0"/>
        <pt x="408" y="659" on="1"/>
        <pt x="519" y="659" on="0"/>
        <pt x="668" y="1014" on="0"/>
        <pt x="668" y="1188" on="1"/>
        <pt x="668" y="1399" on="0"/>
        <pt x="557" y="1399" on="1"/>
        <pt x="446" y="1399" on="0"/>
        <pt x="297" y="1045" on="0"/>
      </contour>
      <contour>
        <pt x="494" y="0" on="1"/>
        <pt x="342" y="0" on="1"/>
        <pt x="1370" y="1462" on="1"/>
        <pt x="1513" y="1462" on="1"/>
      </contour>
      <contour>
        <pt x="1470" y="889" on="1"/>
        <pt x="1743" y="889" on="0"/>
        <pt x="1743" y="563" on="1"/>
        <pt x="1743" y="356" on="0"/>
        <pt x="1502" y="-16" on="0"/>
        <pt x="1305" y="-16" on="1"/>
        <pt x="1040" y="-16" on="0"/>
        <pt x="1040" y="309" on="1"/>
        <pt x="1040" y="525" on="0"/>
        <pt x="1276" y="889" on="0"/>
      </contour>
      <contour>
        <pt x="1202" y="279" on="1"/>
        <pt x="1202" y="68" on="0"/>
        <pt x="1313" y="68" on="1"/>
        <pt x="1424" y="68" on="0"/>
        <pt x="1573" y="421" on="0"/>
        <pt x="1573" y="596" on="1"/>
        <pt x="1573" y="807" on="0"/>
        <pt x="1462" y="807" on="1"/>
        <pt x="1351" y="807" on="0"/>
        <pt x="1202" y="454" on="0"/>
      </contour>
    </TTGlyph>
    <TTGlyph name="period" xMin="90" yMin="-16" xMax="352" yMax="266">
      <contour>
        <pt x="217" y="-16" on="1"/>
        <pt x="90" y="-16" on="0"/>
        <pt x="90" y="109" on="1"/>
        <pt x="90" y="180" on="0"/>
        <pt x="163" y="266" on="0"/>
        <pt x="225" y="266" on="1"/>
        <pt x="352" y="266" on="0"/>
        <pt x="352" y="141" on="1"/>
        <pt x="352" y="69" on="0"/>
        <pt x="279" y="-16" on="0"/>
      </contour>
    </TTGlyph>
    <TTGlyph name="periodcentered" xMin="188" yMin="588" xMax="450" yMax="870">
      <contour>
        <pt x="315" y="588" on="1"/>
        <pt x="188" y="588" on="0"/>
        <pt x="188" y="713" on="1"/>
        <pt x="188" y="784" on="0"/>
        <pt x="261" y="870" on="0"/>
        <pt x="323" y="870" on="1"/>
        <pt x="450" y="870" on="0"/>
        <pt x="450" y="745" on="1"/>
        <pt x="450" y="672" on="0"/>
        <pt x="377" y="588" on="0"/>
      </contour>
    </TTGlyph>
    <TTGlyph name="plus" xMin="150" yMin="293" xMax="1028" yMax="1171">
      <contour>
        <pt x="649" y="672" on="1"/>
        <pt x="649" y="293" on="1"/>
        <pt x="526" y="293" on="1"/>
        <pt x="526" y="672" on="1"/>
        <pt x="150" y="672" on="1"/>
        <pt x="150" y="793" on="1"/>
        <pt x="526" y="793" on="1"/>
        <pt x="526" y="1171" on="1"/>
        <pt x="649" y="1171" on="1"/>
        <pt x="649" y="793" on="1"/>
        <pt x="1028" y="793" on="1"/>
        <pt x="1028" y="672" on="1"/>
      </contour>
    </TTGlyph>
    <TTGlyph name="plusminus" xMin="150" yMin="0" xMax="1028" yMax="1171">
      <contour>
        <pt x="649" y="672" on="1"/>
        <pt x="649" y="293" on="1"/>
        <pt x="526" y="293" on="1"/>
        <pt x="526" y="672" on="1"/>
        <pt x="150" y="672" on="1"/>
        <pt x="150" y="793" on="1"/>
        <pt x="526" y="793" on="1"/>
        <pt x="526" y="1171" on="1"/>
        <pt x="649" y="1171" on="1"/>
        <pt x="649" y="793" on="1"/>
        <pt x="1028" y="793" on="1"/>
        <pt x="1028" y="672" on="1"/>
      </contour>
      <contour>
        <pt x="1028" y="0" on="1"/>
        <pt x="150" y="0" on="1"/>
        <pt x="150" y="121" on="1"/>
        <pt x="1028" y="121" on="1"/>
      </contour>
    </TTGlyph>
    <TTGlyph name="q" xMin="88" yMin="-492" xMax="1100" yMax="1118">
      <contour>
        <pt x="735" y="309" on="1"/>
        <pt x="586" y="-20" on="0"/>
        <pt x="352" y="-20" on="1"/>
        <pt x="228" y="-20" on="0"/>
        <pt x="88" y="177" on="0"/>
        <pt x="88" y="354" on="1"/>
        <pt x="88" y="636" on="0"/>
        <pt x="439" y="1118" on="0"/>
        <pt x="698" y="1118" on="1"/>
        <pt x="826" y="1118" on="0"/>
        <pt x="926" y="1063" on="1"/>
        <pt x="976" y="1091" on="1"/>
        <pt x="1024" y="1118" on="0"/>
        <pt x="1028" y="1118" on="1"/>
        <pt x="1100" y="1118" on="1"/>
        <pt x="817" y="-217" on="1"/>
        <pt x="805" y="-274" on="0"/>
        <pt x="805" y="-309" on="1"/>
        <pt x="805" y="-406" on="0"/>
        <pt x="946" y="-406" on="1"/>
        <pt x="963" y="-406" on="1"/>
        <pt x="944" y="-492" on="1"/>
        <pt x="571" y="-492" on="1"/>
        <pt x="657" y="-82" on="1"/>
        <pt x="665" y="-43" on="0"/>
        <pt x="748" y="309" on="1"/>
      </contour>
      <contour>
        <pt x="864" y="952" on="1"/>
        <pt x="819" y="1026" on="0"/>
        <pt x="709" y="1026" on="1"/>
        <pt x="532" y="1026" on="0"/>
        <pt x="297" y="574" on="0"/>
        <pt x="297" y="344" on="1"/>
        <pt x="297" y="109" on="0"/>
        <pt x="426" y="109" on="1"/>
        <pt x="527" y="109" on="0"/>
        <pt x="749" y="406" on="0"/>
        <pt x="788" y="590" on="1"/>
      </contour>
    </TTGlyph>
    <TTGlyph name="question" xMin="268" yMin="-16" xMax="1069" yMax="1483">
      <contour>
        <pt x="565" y="649" on="1"/>
        <pt x="514" y="412" on="1"/>
        <pt x="389" y="412" on="1"/>
        <pt x="453" y="715" on="1"/>
        <pt x="868" y="869" on="0"/>
        <pt x="868" y="1159" on="1"/>
        <pt x="868" y="1259" on="0"/>
        <pt x="760" y="1380" on="0"/>
        <pt x="670" y="1380" on="1"/>
        <pt x="459" y="1380" on="0"/>
        <pt x="416" y="1090" on="1"/>
        <pt x="268" y="1090" on="0"/>
        <pt x="268" y="1212" on="1"/>
        <pt x="268" y="1326" on="0"/>
        <pt x="497" y="1483" on="0"/>
        <pt x="682" y="1483" on="1"/>
        <pt x="1069" y="1483" on="0"/>
        <pt x="1069" y="1143" on="1"/>
        <pt x="1069" y="832" on="0"/>
      </contour>
      <contour>
        <pt x="406" y="-16" on="1"/>
        <pt x="279" y="-16" on="0"/>
        <pt x="279" y="109" on="1"/>
        <pt x="279" y="180" on="0"/>
        <pt x="352" y="266" on="0"/>
        <pt x="414" y="266" on="1"/>
        <pt x="474" y="266" on="0"/>
        <pt x="541" y="198" on="0"/>
        <pt x="541" y="141" on="1"/>
        <pt x="541" y="68" on="0"/>
        <pt x="468" y="-16" on="0"/>
      </contour>
    </TTGlyph>
    <TTGlyph name="questiondown" xMin="2" yMin="-389" xMax="803" yMax="1110">
      <contour>
        <pt x="666" y="1110" on="1"/>
        <pt x="793" y="1110" on="0"/>
        <pt x="793" y="985" on="1"/>
        <pt x="793" y="914" on="0"/>
        <pt x="719" y="827" on="0"/>
        <pt x="657" y="827" on="1"/>
        <pt x="597" y="827" on="0"/>
        <pt x="530" y="896" on="0"/>
        <pt x="530" y="952" on="1"/>
        <pt x="530" y="1027" on="0"/>
        <pt x="604" y="1110" on="0"/>
      </contour>
      <contour>
        <pt x="506" y="444" on="1"/>
        <pt x="557" y="682" on="1"/>
        <pt x="682" y="682" on="1"/>
        <pt x="618" y="379" on="1"/>
        <pt x="203" y="227" on="0"/>
        <pt x="203" y="-66" on="1"/>
        <pt x="203" y="-166" on="0"/>
        <pt x="311" y="-287" on="0"/>
        <pt x="401" y="-287" on="1"/>
        <pt x="613" y="-287" on="0"/>
        <pt x="655" y="4" on="1"/>
        <pt x="803" y="4" on="0"/>
        <pt x="803" y="-119" on="1"/>
        <pt x="803" y="-232" on="0"/>
        <pt x="574" y="-389" on="0"/>
        <pt x="389" y="-389" on="1"/>
        <pt x="2" y="-389" on="0"/>
        <pt x="2" y="-49" on="1"/>
        <pt x="2" y="262" on="0"/>
      </contour>
    </TTGlyph>
    <TTGlyph name="quotedbl" xMin="268" yMin="981" xMax="911" yMax="1462">
      <contour>
        <pt x="694" y="1462" on="1"/>
        <pt x="911" y="1462" on="1"/>
        <pt x="748" y="981" on="1"/>
        <pt x="653" y="981" on="1"/>
      </contour>
      <contour>
        <pt x="309" y="1462" on="1"/>
        <pt x="526" y="1462" on="1"/>
        <pt x="362" y="981" on="1"/>
        <pt x="268" y="981" on="1"/>
      </contour>
    </TTGlyph>
    <TTGlyph name="quotedblbase" xMin="-57" yMin="-299" xMax="721" yMax="262">
      <contour>
        <pt x="-57" y="-299" on="1"/>
        <pt x="-49" y="-213" on="1"/>
        <pt x="160" y="-166" on="0"/>
        <pt x="160" y="-41" on="1"/>
        <pt x="160" y="-5" on="0"/>
        <pt x="94" y="37" on="1"/>
        <pt x="27" y="79" on="0"/>
        <pt x="27" y="141" on="1"/>
        <pt x="27" y="196" on="0"/>
        <pt x="97" y="262" on="0"/>
        <pt x="154" y="262" on="1"/>
        <pt x="223" y="262" on="0"/>
        <pt x="313" y="171" on="0"/>
        <pt x="313" y="94" on="1"/>
        <pt x="313" y="-56" on="0"/>
        <pt x="123" y="-263" on="0"/>
      </contour>
      <contour>
        <pt x="350" y="-299" on="1"/>
        <pt x="358" y="-213" on="1"/>
        <pt x="567" y="-166" on="0"/>
        <pt x="567" y="-41" on="1"/>
        <pt x="567" y="-5" on="0"/>
        <pt x="501" y="37" on="1"/>
        <pt x="434" y="79" on="0"/>
        <pt x="434" y="141" on="1"/>
        <pt x="434" y="196" on="0"/>
        <pt x="504" y="262" on="0"/>
        <pt x="561" y="262" on="1"/>
        <pt x="630" y="262" on="0"/>
        <pt x="721" y="169" on="0"/>
        <pt x="721" y="94" on="1"/>
        <pt x="721" y="-57" on="0"/>
        <pt x="528" y="-263" on="0"/>
      </contour>
    </TTGlyph>
    <TTGlyph name="quotedblleft" xMin="215" yMin="901" xMax="995" yMax="1462">
      <contour>
        <pt x="586" y="1462" on="1"/>
        <pt x="578" y="1376" on="1"/>
        <pt x="369" y="1330" on="0"/>
        <pt x="369" y="1204" on="1"/>
        <pt x="369" y="1168" on="0"/>
        <pt x="436" y="1126" on="1"/>
        <pt x="502" y="1084" on="0"/>
        <pt x="502" y="1022" on="1"/>
        <pt x="502" y="967" on="0"/>
        <pt x="432" y="901" on="0"/>
        <pt x="375" y="901" on="1"/>
        <pt x="308" y="901" on="0"/>
        <pt x="215" y="994" on="0"/>
        <pt x="215" y="1069" on="1"/>
        <pt x="215" y="1217" on="0"/>
        <pt x="405" y="1425" on="0"/>
      </contour>
      <contour>
        <pt x="995" y="1462" on="1"/>
        <pt x="987" y="1376" on="1"/>
        <pt x="778" y="1329" on="0"/>
        <pt x="778" y="1204" on="1"/>
        <pt x="778" y="1168" on="0"/>
        <pt x="845" y="1126" on="1"/>
        <pt x="911" y="1084" on="0"/>
        <pt x="911" y="1022" on="1"/>
        <pt x="911" y="967" on="0"/>
        <pt x="842" y="901" on="0"/>
        <pt x="784" y="901" on="1"/>
        <pt x="716" y="901" on="0"/>
        <pt x="625" y="994" on="0"/>
        <pt x="625" y="1069" on="1"/>
        <pt x="625" y="1219" on="0"/>
        <pt x="815" y="1426" on="0"/>
      </contour>
    </TTGlyph>
    <TTGlyph name="quotedblright" xMin="168" yMin="901" xMax="948" yMax="1462">
      <contour>
        <pt x="168" y="901" on="1"/>
        <pt x="176" y="987" on="1"/>
        <pt x="385" y="1034" on="0"/>
        <pt x="385" y="1159" on="1"/>
        <pt x="385" y="1195" on="0"/>
        <pt x="319" y="1237" on="1"/>
        <pt x="252" y="1279" on="0"/>
        <pt x="252" y="1341" on="1"/>
        <pt x="252" y="1396" on="0"/>
        <pt x="322" y="1462" on="0"/>
        <pt x="379" y="1462" on="1"/>
        <pt x="448" y="1462" on="0"/>
        <pt x="539" y="1369" on="0"/>
        <pt x="539" y="1294" on="1"/>
        <pt x="539" y="1143" on="0"/>
        <pt x="346" y="937" on="0"/>
      </contour>
      <contour>
        <pt x="578" y="901" on="1"/>
        <pt x="586" y="987" on="1"/>
        <pt x="795" y="1034" on="0"/>
        <pt x="795" y="1159" on="1"/>
        <pt x="795" y="1195" on="0"/>
        <pt x="729" y="1237" on="1"/>
        <pt x="662" y="1279" on="0"/>
        <pt x="662" y="1341" on="1"/>
        <pt x="662" y="1396" on="0"/>
        <pt x="730" y="1462" on="0"/>
        <pt x="788" y="1462" on="1"/>
        <pt x="857" y="1462" on="0"/>
        <pt x="948" y="1369" on="0"/>
        <pt x="948" y="1294" on="1"/>
        <pt x="948" y="1142" on="0"/>
        <pt x="755" y="936" on="0"/>
      </contour>
    </TTGlyph>
    <TTGlyph name="quoteleft" xMin="215" yMin="901" xMax="586" yMax="1462">
      <contour>
        <pt x="586" y="1462" on="1"/>
        <pt x="578" y="1376" on="1"/>
        <pt x="369" y="1330" on="0"/>
        <pt x="369" y="1204" on="1"/>
        <pt x="369" y="1168" on="0"/>
        <pt x="436" y="1126" on="1"/>
        <pt x="502" y="1084" on="0"/>
        <pt x="502" y="1022" on="1"/>
        <pt x="502" y="967" on="0"/>
        <pt x="432" y="901" on="0"/>
        <pt x="375" y="901" on="1"/>
        <pt x="308" y="901" on="0"/>
        <pt x="215" y="994" on="0"/>
        <pt x="215" y="1069" on="1"/>
        <pt x="215" y="1217" on="0"/>
        <pt x="405" y="1425" on="0"/>
      </contour>
    </TTGlyph>
    <TTGlyph name="quoteright" xMin="168" yMin="901" xMax="539" yMax="1462">
      <contour>
        <pt x="168" y="901" on="1"/>
        <pt x="176" y="987" on="1"/>
        <pt x="385" y="1034" on="0"/>
        <pt x="385" y="1159" on="1"/>
        <pt x="385" y="1195" on="0"/>
        <pt x="319" y="1237" on="1"/>
        <pt x="252" y="1279" on="0"/>
        <pt x="252" y="1341" on="1"/>
        <pt x="252" y="1396" on="0"/>
        <pt x="322" y="1462" on="0"/>
        <pt x="379" y="1462" on="1"/>
        <pt x="448" y="1462" on="0"/>
        <pt x="539" y="1369" on="0"/>
        <pt x="539" y="1294" on="1"/>
        <pt x="539" y="1143" on="0"/>
        <pt x="346" y="937" on="0"/>
      </contour>
    </TTGlyph>
    <TTGlyph name="quotesinglbase" xMin="-57" yMin="-299" xMax="313" yMax="262">
      <contour>
        <pt x="-57" y="-299" on="1"/>
        <pt x="-49" y="-213" on="1"/>
        <pt x="160" y="-166" on="0"/>
        <pt x="160" y="-41" on="1"/>
        <pt x="160" y="-5" on="0"/>
        <pt x="94" y="37" on="1"/>
        <pt x="27" y="79" on="0"/>
        <pt x="27" y="141" on="1"/>
        <pt x="27" y="196" on="0"/>
        <pt x="97" y="262" on="0"/>
        <pt x="154" y="262" on="1"/>
        <pt x="223" y="262" on="0"/>
        <pt x="313" y="171" on="0"/>
        <pt x="313" y="94" on="1"/>
        <pt x="313" y="-56" on="0"/>
        <pt x="123" y="-263" on="0"/>
      </contour>
    </TTGlyph>
    <TTGlyph name="quotesingle" xMin="260" yMin="981" xMax="518" yMax="1462">
      <contour>
        <pt x="301" y="1462" on="1"/>
        <pt x="518" y="1462" on="1"/>
        <pt x="354" y="981" on="1"/>
        <pt x="260" y="981" on="1"/>
      </contour>
    </TTGlyph>
    <TTGlyph name="r" xMin="90" yMin="0" xMax="969" yMax="1118">
      <contour>
        <pt x="799" y="821" on="1"/>
        <pt x="799" y="983" on="0"/>
        <pt x="717" y="983" on="1"/>
        <pt x="622" y="983" on="0"/>
        <pt x="409" y="609" on="0"/>
        <pt x="358" y="373" on="1"/>
        <pt x="281" y="0" on="1"/>
        <pt x="90" y="0" on="1"/>
        <pt x="262" y="823" on="1"/>
        <pt x="274" y="880" on="0"/>
        <pt x="274" y="915" on="1"/>
        <pt x="274" y="1012" on="0"/>
        <pt x="111" y="1012" on="1"/>
        <pt x="94" y="1012" on="1"/>
        <pt x="113" y="1098" on="1"/>
        <pt x="475" y="1098" on="1"/>
        <pt x="432" y="803" on="1"/>
        <pt x="453" y="803" on="1"/>
        <pt x="535" y="986" on="0"/>
        <pt x="695" y="1118" on="0"/>
        <pt x="801" y="1118" on="1"/>
        <pt x="969" y="1118" on="0"/>
        <pt x="969" y="977" on="1"/>
        <pt x="969" y="821" on="0"/>
      </contour>
    </TTGlyph>
    <TTGlyph name="registered" xMin="129" yMin="-20" xMax="1634" yMax="1485">
      <contour>
        <pt x="881" y="1485" on="1"/>
        <pt x="1190" y="1485" on="0"/>
        <pt x="1634" y="1042" on="0"/>
        <pt x="1634" y="731" on="1"/>
        <pt x="1634" y="422" on="0"/>
        <pt x="1192" y="-20" on="0"/>
        <pt x="881" y="-20" on="1"/>
        <pt x="569" y="-20" on="0"/>
        <pt x="129" y="422" on="0"/>
        <pt x="129" y="731" on="1"/>
        <pt x="129" y="1042" on="0"/>
        <pt x="571" y="1485" on="0"/>
      </contour>
      <contour>
        <pt x="881" y="92" on="1"/>
        <pt x="1145" y="92" on="0"/>
        <pt x="1522" y="468" on="0"/>
        <pt x="1522" y="731" on="1"/>
        <pt x="1522" y="995" on="0"/>
        <pt x="1145" y="1372" on="0"/>
        <pt x="881" y="1372" on="1"/>
        <pt x="616" y="1372" on="0"/>
        <pt x="242" y="994" on="0"/>
        <pt x="242" y="731" on="1"/>
        <pt x="242" y="469" on="0"/>
        <pt x="616" y="92" on="0"/>
      </contour>
      <contour>
        <pt x="494" y="358" on="1"/>
        <pt x="520" y="358" on="1"/>
        <pt x="621" y="358" on="0"/>
        <pt x="621" y="430" on="1"/>
        <pt x="621" y="1030" on="1"/>
        <pt x="621" y="1102" on="0"/>
        <pt x="520" y="1102" on="1"/>
        <pt x="494" y="1102" on="1"/>
        <pt x="494" y="1174" on="1"/>
        <pt x="862" y="1174" on="1"/>
        <pt x="1214" y="1174" on="0"/>
        <pt x="1214" y="930" on="1"/>
        <pt x="1214" y="766" on="0"/>
        <pt x="1028" y="705" on="1"/>
        <pt x="1210" y="412" on="1"/>
        <pt x="1230" y="379" on="0"/>
        <pt x="1271" y="358" on="0"/>
        <pt x="1325" y="358" on="1"/>
        <pt x="1325" y="289" on="1"/>
        <pt x="1108" y="289" on="1"/>
        <pt x="883" y="670" on="1"/>
        <pt x="774" y="670" on="1"/>
        <pt x="774" y="430" on="1"/>
        <pt x="774" y="358" on="0"/>
        <pt x="874" y="358" on="1"/>
        <pt x="903" y="358" on="1"/>
        <pt x="903" y="289" on="1"/>
        <pt x="494" y="289" on="1"/>
      </contour>
      <contour>
        <pt x="774" y="748" on="1"/>
        <pt x="860" y="748" on="1"/>
        <pt x="963" y="748" on="0"/>
        <pt x="1053" y="828" on="0"/>
        <pt x="1053" y="928" on="1"/>
        <pt x="1053" y="1019" on="0"/>
        <pt x="961" y="1094" on="0"/>
        <pt x="854" y="1094" on="1"/>
        <pt x="774" y="1094" on="1"/>
      </contour>
    </TTGlyph>
    <TTGlyph name="ring" xMin="258" yMin="1221" xMax="750" yMax="1667">
      <contour>
        <pt x="504" y="1221" on="1"/>
        <pt x="397" y="1221" on="0"/>
        <pt x="258" y="1339" on="0"/>
        <pt x="258" y="1444" on="1"/>
        <pt x="258" y="1548" on="0"/>
        <pt x="396" y="1667" on="0"/>
        <pt x="504" y="1667" on="1"/>
        <pt x="612" y="1667" on="0"/>
        <pt x="750" y="1548" on="0"/>
        <pt x="750" y="1444" on="1"/>
        <pt x="750" y="1339" on="0"/>
        <pt x="611" y="1221" on="0"/>
      </contour>
      <contour>
        <pt x="504" y="1567" on="1"/>
        <pt x="369" y="1567" on="0"/>
        <pt x="369" y="1444" on="1"/>
        <pt x="369" y="1321" on="0"/>
        <pt x="504" y="1321" on="1"/>
        <pt x="639" y="1321" on="0"/>
        <pt x="639" y="1444" on="1"/>
        <pt x="639" y="1567" on="0"/>
      </contour>
    </TTGlyph>
    <TTGlyph name="s" xMin="51" yMin="-20" xMax="895" yMax="1116">
      <contour>
        <pt x="741" y="795" on="1"/>
        <pt x="741" y="898" on="0"/>
        <pt x="644" y="1022" on="0"/>
        <pt x="557" y="1022" on="1"/>
        <pt x="465" y="1022" on="0"/>
        <pt x="358" y="923" on="0"/>
        <pt x="358" y="846" on="1"/>
        <pt x="358" y="778" on="0"/>
        <pt x="460" y="682" on="0"/>
        <pt x="567" y="635" on="1"/>
        <pt x="813" y="525" on="0"/>
        <pt x="813" y="317" on="1"/>
        <pt x="813" y="166" on="0"/>
        <pt x="581" y="-20" on="0"/>
        <pt x="389" y="-20" on="1"/>
        <pt x="234" y="-20" on="0"/>
        <pt x="51" y="105" on="0"/>
        <pt x="51" y="211" on="1"/>
        <pt x="51" y="277" on="0"/>
        <pt x="124" y="346" on="0"/>
        <pt x="180" y="346" on="1"/>
        <pt x="180" y="219" on="0"/>
        <pt x="303" y="78" on="0"/>
        <pt x="414" y="78" on="1"/>
        <pt x="635" y="78" on="0"/>
        <pt x="635" y="268" on="1"/>
        <pt x="635" y="341" on="0"/>
        <pt x="541" y="442" on="0"/>
        <pt x="428" y="494" on="1"/>
        <pt x="281" y="564" on="0"/>
        <pt x="180" y="713" on="0"/>
        <pt x="180" y="811" on="1"/>
        <pt x="180" y="945" on="0"/>
        <pt x="399" y="1116" on="0"/>
        <pt x="575" y="1116" on="1"/>
        <pt x="726" y="1116" on="0"/>
        <pt x="895" y="1004" on="0"/>
        <pt x="895" y="922" on="1"/>
        <pt x="895" y="795" on="0"/>
      </contour>
    </TTGlyph>
    <TTGlyph name="section" xMin="41" yMin="-236" xMax="1071" yMax="1556">
      <contour>
        <pt x="170" y="131" on="1"/>
        <pt x="170" y="11" on="0"/>
        <pt x="304" y="-135" on="0"/>
        <pt x="420" y="-135" on="1"/>
        <pt x="545" y="-135" on="0"/>
        <pt x="700" y="-2" on="0"/>
        <pt x="700" y="106" on="1"/>
        <pt x="700" y="171" on="0"/>
        <pt x="597" y="291" on="0"/>
        <pt x="408" y="393" on="1"/>
        <pt x="180" y="517" on="0"/>
        <pt x="180" y="723" on="1"/>
        <pt x="180" y="889" on="0"/>
        <pt x="360" y="1001" on="1"/>
        <pt x="311" y="1084" on="0"/>
        <pt x="311" y="1186" on="1"/>
        <pt x="311" y="1354" on="0"/>
        <pt x="557" y="1556" on="0"/>
        <pt x="748" y="1556" on="1"/>
        <pt x="891" y="1556" on="0"/>
        <pt x="1071" y="1436" on="0"/>
        <pt x="1071" y="1352" on="1"/>
        <pt x="1071" y="1278" on="0"/>
        <pt x="997" y="1210" on="0"/>
        <pt x="905" y="1210" on="1"/>
        <pt x="905" y="1325" on="0"/>
        <pt x="806" y="1460" on="0"/>
        <pt x="711" y="1460" on="1"/>
        <pt x="611" y="1460" on="0"/>
        <pt x="469" y="1348" on="0"/>
        <pt x="469" y="1251" on="1"/>
        <pt x="469" y="1171" on="0"/>
        <pt x="552" y="1064" on="0"/>
        <pt x="739" y="963" on="1"/>
        <pt x="989" y="829" on="0"/>
        <pt x="989" y="645" on="1"/>
        <pt x="989" y="473" on="0"/>
        <pt x="811" y="336" on="1"/>
        <pt x="852" y="260" on="0"/>
        <pt x="852" y="184" on="1"/>
        <pt x="852" y="1" on="0"/>
        <pt x="598" y="-236" on="0"/>
        <pt x="389" y="-236" on="1"/>
        <pt x="232" y="-236" on="0"/>
        <pt x="41" y="-109" on="0"/>
        <pt x="41" y="-4" on="1"/>
        <pt x="41" y="61" on="0"/>
        <pt x="114" y="131" on="0"/>
      </contour>
      <contour>
        <pt x="406" y="944" on="1"/>
        <pt x="324" y="884" on="0"/>
        <pt x="324" y="799" on="1"/>
        <pt x="324" y="723" on="0"/>
        <pt x="424" y="615" on="0"/>
        <pt x="561" y="539" on="1"/>
        <pt x="682" y="472" on="0"/>
        <pt x="760" y="401" on="1"/>
        <pt x="836" y="484" on="0"/>
        <pt x="836" y="557" on="1"/>
        <pt x="836" y="680" on="0"/>
        <pt x="625" y="795" on="1"/>
        <pt x="480" y="874" on="0"/>
      </contour>
    </TTGlyph>
    <TTGlyph name="semicolon" xMin="37" yMin="-299" xMax="516" yMax="1108">
      <contour>
        <pt x="381" y="825" on="1"/>
        <pt x="254" y="825" on="0"/>
        <pt x="254" y="950" on="1"/>
        <pt x="254" y="1021" on="0"/>
        <pt x="327" y="1108" on="0"/>
        <pt x="389" y="1108" on="1"/>
        <pt x="516" y="1108" on="0"/>
        <pt x="516" y="983" on="1"/>
        <pt x="516" y="909" on="0"/>
        <pt x="443" y="825" on="0"/>
      </contour>
      <contour>
        <pt x="37" y="-299" on="1"/>
        <pt x="45" y="-213" on="1"/>
        <pt x="254" y="-166" on="0"/>
        <pt x="254" y="-41" on="1"/>
        <pt x="254" y="-5" on="0"/>
        <pt x="188" y="37" on="1"/>
        <pt x="121" y="79" on="0"/>
        <pt x="121" y="141" on="1"/>
        <pt x="121" y="196" on="0"/>
        <pt x="191" y="262" on="0"/>
        <pt x="248" y="262" on="1"/>
        <pt x="317" y="262" on="0"/>
        <pt x="408" y="169" on="0"/>
        <pt x="408" y="94" on="1"/>
        <pt x="408" y="-57" on="0"/>
        <pt x="215" y="-263" on="0"/>
      </contour>
    </TTGlyph>
    <TTGlyph name="seven" xMin="184" yMin="0" xMax="1188" yMax="1462">
      <contour>
        <pt x="221" y="0" on="1"/>
        <pt x="979" y="1298" on="1"/>
        <pt x="440" y="1298" on="1"/>
        <pt x="328" y="1298" on="0"/>
        <pt x="299" y="1194" on="1"/>
        <pt x="270" y="1092" on="1"/>
        <pt x="184" y="1092" on="1"/>
        <pt x="272" y="1462" on="1"/>
        <pt x="1188" y="1462" on="1"/>
        <pt x="1176" y="1403" on="1"/>
        <pt x="375" y="0" on="1"/>
      </contour>
    </TTGlyph>
    <TTGlyph name="six" xMin="123" yMin="-20" xMax="1137" yMax="1483">
      <contour>
        <pt x="360" y="782" on="1"/>
        <pt x="512" y="889" on="0"/>
        <pt x="662" y="889" on="1"/>
        <pt x="824" y="889" on="0"/>
        <pt x="1008" y="694" on="0"/>
        <pt x="1008" y="530" on="1"/>
        <pt x="1008" y="292" on="0"/>
        <pt x="739" y="-20" on="0"/>
        <pt x="508" y="-20" on="1"/>
        <pt x="335" y="-20" on="0"/>
        <pt x="123" y="243" on="0"/>
        <pt x="123" y="475" on="1"/>
        <pt x="123" y="888" on="0"/>
        <pt x="520" y="1483" on="0"/>
        <pt x="823" y="1483" on="1"/>
        <pt x="969" y="1483" on="0"/>
        <pt x="1137" y="1377" on="0"/>
        <pt x="1137" y="1298" on="1"/>
        <pt x="1137" y="1145" on="0"/>
        <pt x="958" y="1145" on="1"/>
        <pt x="958" y="1284" on="0"/>
        <pt x="888" y="1384" on="0"/>
        <pt x="819" y="1384" on="1"/>
        <pt x="511" y="1384" on="0"/>
      </contour>
      <contour>
        <pt x="338" y="666" on="1"/>
        <pt x="309" y="502" on="0"/>
        <pt x="309" y="399" on="1"/>
        <pt x="309" y="92" on="0"/>
        <pt x="520" y="92" on="1"/>
        <pt x="644" y="92" on="0"/>
        <pt x="805" y="332" on="0"/>
        <pt x="805" y="518" on="1"/>
        <pt x="805" y="784" on="0"/>
        <pt x="621" y="784" on="1"/>
        <pt x="484" y="784" on="0"/>
      </contour>
    </TTGlyph>
    <TTGlyph name="slash" xMin="-190" yMin="-248" xMax="780" yMax="1556">
      <contour>
        <pt x="-61" y="-248" on="1"/>
        <pt x="-190" y="-248" on="1"/>
        <pt x="651" y="1556" on="1"/>
        <pt x="780" y="1556" on="1"/>
      </contour>
    </TTGlyph>
    <TTGlyph name="sterling" xMin="-2" yMin="-20" xMax="1147" yMax="1483">
      <contour>
        <pt x="530" y="690" on="1"/>
        <pt x="537" y="646" on="0"/>
        <pt x="537" y="582" on="1"/>
        <pt x="537" y="345" on="0"/>
        <pt x="279" y="193" on="1"/>
        <pt x="281" y="184" on="1"/>
        <pt x="365" y="221" on="0"/>
        <pt x="438" y="221" on="1"/>
        <pt x="498" y="221" on="0"/>
        <pt x="617" y="182" on="1"/>
        <pt x="735" y="143" on="0"/>
        <pt x="776" y="143" on="1"/>
        <pt x="890" y="143" on="0"/>
        <pt x="981" y="236" on="1"/>
        <pt x="1036" y="168" on="1"/>
        <pt x="851" y="-20" on="0"/>
        <pt x="688" y="-20" on="1"/>
        <pt x="623" y="-20" on="0"/>
        <pt x="499" y="26" on="1"/>
        <pt x="375" y="72" on="0"/>
        <pt x="301" y="72" on="1"/>
        <pt x="187" y="72" on="0"/>
        <pt x="63" y="12" on="1"/>
        <pt x="35" y="-2" on="1"/>
        <pt x="-2" y="80" on="1"/>
        <pt x="70" y="121" on="1"/>
        <pt x="365" y="289" on="0"/>
        <pt x="365" y="563" on="1"/>
        <pt x="365" y="613" on="0"/>
        <pt x="350" y="690" on="1"/>
        <pt x="123" y="690" on="1"/>
        <pt x="145" y="793" on="1"/>
        <pt x="334" y="793" on="1"/>
        <pt x="307" y="919" on="0"/>
        <pt x="307" y="999" on="1"/>
        <pt x="307" y="1225" on="0"/>
        <pt x="578" y="1483" on="0"/>
        <pt x="807" y="1483" on="1"/>
        <pt x="962" y="1483" on="0"/>
        <pt x="1147" y="1371" on="0"/>
        <pt x="1147" y="1282" on="1"/>
        <pt x="1147" y="1120" on="0"/>
        <pt x="977" y="1120" on="1"/>
        <pt x="977" y="1380" on="0"/>
        <pt x="776" y="1380" on="1"/>
        <pt x="637" y="1380" on="0"/>
        <pt x="487" y="1187" on="0"/>
        <pt x="487" y="1012" on="1"/>
        <pt x="487" y="932" on="0"/>
        <pt x="516" y="793" on="1"/>
        <pt x="864" y="793" on="1"/>
        <pt x="842" y="690" on="1"/>
      </contour>
    </TTGlyph>
    <TTGlyph name="t" xMin="141" yMin="-20" xMax="762" yMax="1350">
      <contour>
        <pt x="616" y="154" on="1"/>
        <pt x="651" y="78" on="1"/>
        <pt x="513" y="-20" on="0"/>
        <pt x="375" y="-20" on="1"/>
        <pt x="152" y="-20" on="0"/>
        <pt x="152" y="219" on="1"/>
        <pt x="152" y="296" on="0"/>
        <pt x="172" y="391" on="1"/>
        <pt x="297" y="981" on="1"/>
        <pt x="141" y="981" on="1"/>
        <pt x="160" y="1063" on="1"/>
        <pt x="360" y="1063" on="0"/>
        <pt x="473" y="1350" on="1"/>
        <pt x="567" y="1350" on="1"/>
        <pt x="514" y="1098" on="1"/>
        <pt x="762" y="1098" on="1"/>
        <pt x="737" y="981" on="1"/>
        <pt x="489" y="981" on="1"/>
        <pt x="365" y="397" on="1"/>
        <pt x="340" y="279" on="0"/>
        <pt x="340" y="221" on="1"/>
        <pt x="340" y="109" on="0"/>
        <pt x="449" y="109" on="1"/>
        <pt x="532" y="109" on="0"/>
      </contour>
    </TTGlyph>
    <TTGlyph name="thorn" xMin="-49" yMin="-492" xMax="1063" yMax="1556">
      <contour>
        <pt x="248" y="27" on="1"/>
        <pt x="239" y="-51" on="0"/>
        <pt x="233" y="-72" on="1"/>
        <pt x="202" y="-223" on="1"/>
        <pt x="188" y="-281" on="0"/>
        <pt x="188" y="-317" on="1"/>
        <pt x="188" y="-406" on="0"/>
        <pt x="332" y="-406" on="1"/>
        <pt x="358" y="-406" on="1"/>
        <pt x="340" y="-492" on="1"/>
        <pt x="-49" y="-492" on="1"/>
        <pt x="324" y="1266" on="1"/>
        <pt x="342" y="1351" on="0"/>
        <pt x="342" y="1374" on="1"/>
        <pt x="342" y="1470" on="0"/>
        <pt x="199" y="1470" on="1"/>
        <pt x="182" y="1470" on="1"/>
        <pt x="201" y="1556" on="1"/>
        <pt x="578" y="1556" on="1"/>
        <pt x="473" y="1065" on="1"/>
        <pt x="456" y="986" on="0"/>
        <pt x="412" y="825" on="1"/>
        <pt x="424" y="825" on="1"/>
        <pt x="572" y="1118" on="0"/>
        <pt x="799" y="1118" on="1"/>
        <pt x="924" y="1118" on="0"/>
        <pt x="1063" y="928" on="0"/>
        <pt x="1063" y="748" on="1"/>
        <pt x="1063" y="473" on="0"/>
        <pt x="717" y="-20" on="0"/>
        <pt x="451" y="-20" on="1"/>
        <pt x="331" y="-20" on="0"/>
      </contour>
      <contour>
        <pt x="281" y="145" on="1"/>
        <pt x="346" y="72" on="0"/>
        <pt x="444" y="72" on="1"/>
        <pt x="615" y="72" on="0"/>
        <pt x="854" y="518" on="0"/>
        <pt x="854" y="750" on="1"/>
        <pt x="854" y="863" on="0"/>
        <pt x="783" y="989" on="0"/>
        <pt x="721" y="989" on="1"/>
        <pt x="614" y="989" on="0"/>
        <pt x="396" y="688" on="0"/>
        <pt x="365" y="535" on="1"/>
      </contour>
    </TTGlyph>
    <TTGlyph name="three" xMin="-6" yMin="-20" xMax="1059" yMax="1483">
      <contour>
        <pt x="362" y="705" on="1"/>
        <pt x="383" y="809" on="1"/>
        <pt x="449" y="809" on="1"/>
        <pt x="623" y="809" on="0"/>
        <pt x="848" y="1023" on="0"/>
        <pt x="848" y="1194" on="1"/>
        <pt x="848" y="1380" on="0"/>
        <pt x="674" y="1380" on="1"/>
        <pt x="446" y="1380" on="0"/>
        <pt x="383" y="1075" on="1"/>
        <pt x="231" y="1075" on="0"/>
        <pt x="231" y="1206" on="1"/>
        <pt x="231" y="1325" on="0"/>
        <pt x="486" y="1483" on="0"/>
        <pt x="682" y="1483" on="1"/>
        <pt x="856" y="1483" on="0"/>
        <pt x="1059" y="1325" on="0"/>
        <pt x="1059" y="1190" on="1"/>
        <pt x="1059" y="1034" on="0"/>
        <pt x="838" y="804" on="0"/>
        <pt x="647" y="770" on="1"/>
        <pt x="794" y="755" on="0"/>
        <pt x="954" y="588" on="0"/>
        <pt x="954" y="461" on="1"/>
        <pt x="954" y="230" on="0"/>
        <pt x="635" y="-20" on="0"/>
        <pt x="391" y="-20" on="1"/>
        <pt x="194" y="-20" on="0"/>
        <pt x="-6" y="97" on="0"/>
        <pt x="-6" y="195" on="1"/>
        <pt x="-6" y="263" on="0"/>
        <pt x="80" y="346" on="0"/>
        <pt x="150" y="346" on="1"/>
        <pt x="150" y="234" on="0"/>
        <pt x="284" y="92" on="0"/>
        <pt x="406" y="92" on="1"/>
        <pt x="552" y="92" on="0"/>
        <pt x="739" y="278" on="0"/>
        <pt x="739" y="438" on="1"/>
        <pt x="739" y="565" on="0"/>
        <pt x="588" y="705" on="0"/>
        <pt x="451" y="705" on="1"/>
      </contour>
    </TTGlyph>
    <TTGlyph name="threequarters" xMin="38" yMin="0" xMax="1673" yMax="1483">
      <component glyphName="threesuperior" x="-42" y="0" flags="0x1004"/>
      <component glyphName="fraction" x="854" y="0" flags="0x1004"/>
      <component glyphName="foursuperior" x="850" y="-587" flags="0x1004"/>
    </TTGlyph>
    <TTGlyph name="threesuperior" xMin="80" yMin="573" xMax="803" yMax="1483">
      <contour>
        <pt x="197" y="842" on="1"/>
        <pt x="197" y="767" on="0"/>
        <pt x="287" y="666" on="0"/>
        <pt x="362" y="666" on="1"/>
        <pt x="557" y="666" on="0"/>
        <pt x="557" y="848" on="1"/>
        <pt x="557" y="917" on="0"/>
        <pt x="459" y="1001" on="0"/>
        <pt x="371" y="1001" on="1"/>
        <pt x="303" y="1001" on="1"/>
        <pt x="319" y="1085" on="1"/>
        <pt x="387" y="1085" on="1"/>
        <pt x="484" y="1085" on="0"/>
        <pt x="614" y="1209" on="0"/>
        <pt x="614" y="1305" on="1"/>
        <pt x="614" y="1401" on="0"/>
        <pt x="520" y="1401" on="1"/>
        <pt x="384" y="1401" on="0"/>
        <pt x="348" y="1223" on="1"/>
        <pt x="213" y="1223" on="0"/>
        <pt x="213" y="1309" on="1"/>
        <pt x="213" y="1382" on="0"/>
        <pt x="382" y="1483" on="0"/>
        <pt x="526" y="1483" on="1"/>
        <pt x="657" y="1483" on="0"/>
        <pt x="803" y="1381" on="0"/>
        <pt x="803" y="1296" on="1"/>
        <pt x="803" y="1107" on="0"/>
        <pt x="541" y="1055" on="1"/>
        <pt x="539" y="1044" on="1"/>
        <pt x="745" y="1017" on="0"/>
        <pt x="745" y="856" on="1"/>
        <pt x="745" y="723" on="0"/>
        <pt x="530" y="573" on="0"/>
        <pt x="348" y="573" on="1"/>
        <pt x="218" y="573" on="0"/>
        <pt x="80" y="659" on="0"/>
        <pt x="80" y="731" on="1"/>
        <pt x="80" y="842" on="0"/>
      </contour>
    </TTGlyph>
    <TTGlyph name="tilde" xMin="344" yMin="1241" xMax="1120" yMax="1503">
      <contour>
        <pt x="1028" y="1483" on="1"/>
        <pt x="1120" y="1483" on="1"/>
        <pt x="1048" y="1241" on="0"/>
        <pt x="854" y="1241" on="1"/>
        <pt x="773" y="1241" on="0"/>
        <pt x="685" y="1306" on="1"/>
        <pt x="596" y="1370" on="0"/>
        <pt x="559" y="1370" on="1"/>
        <pt x="471" y="1370" on="0"/>
        <pt x="436" y="1262" on="1"/>
        <pt x="344" y="1262" on="1"/>
        <pt x="416" y="1503" on="0"/>
        <pt x="612" y="1503" on="1"/>
        <pt x="694" y="1503" on="0"/>
        <pt x="781" y="1439" on="1"/>
        <pt x="868" y="1374" on="0"/>
        <pt x="905" y="1374" on="1"/>
        <pt x="994" y="1374" on="0"/>
      </contour>
    </TTGlyph>
    <TTGlyph name="two" xMin="-35" yMin="0" xMax="1042" yMax="1483">
      <contour>
        <pt x="-35" y="0" on="1"/>
        <pt x="8" y="166" on="1"/>
        <pt x="489" y="600" on="1"/>
        <pt x="680" y="772" on="0"/>
        <pt x="834" y="1024" on="0"/>
        <pt x="834" y="1174" on="1"/>
        <pt x="834" y="1269" on="0"/>
        <pt x="732" y="1380" on="0"/>
        <pt x="645" y="1380" on="1"/>
        <pt x="409" y="1380" on="0"/>
        <pt x="354" y="1071" on="1"/>
        <pt x="209" y="1071" on="0"/>
        <pt x="209" y="1202" on="1"/>
        <pt x="209" y="1316" on="0"/>
        <pt x="456" y="1483" on="0"/>
        <pt x="655" y="1483" on="1"/>
        <pt x="840" y="1483" on="0"/>
        <pt x="1042" y="1327" on="0"/>
        <pt x="1042" y="1184" on="1"/>
        <pt x="1042" y="1062" on="0"/>
        <pt x="868" y="803" on="0"/>
        <pt x="616" y="578" on="1"/>
        <pt x="156" y="164" on="1"/>
        <pt x="631" y="164" on="1"/>
        <pt x="698" y="164" on="0"/>
        <pt x="793" y="225" on="0"/>
        <pt x="834" y="317" on="1"/>
        <pt x="848" y="350" on="1"/>
        <pt x="934" y="350" on="1"/>
        <pt x="852" y="0" on="1"/>
      </contour>
    </TTGlyph>
    <TTGlyph name="twosuperior" xMin="41" yMin="586" xMax="770" yMax="1483">
      <contour>
        <pt x="41" y="586" on="1"/>
        <pt x="51" y="647" on="1"/>
        <pt x="369" y="909" on="1"/>
        <pt x="480" y="1000" on="0"/>
        <pt x="590" y="1169" on="0"/>
        <pt x="590" y="1282" on="1"/>
        <pt x="590" y="1401" on="0"/>
        <pt x="487" y="1401" on="1"/>
        <pt x="425" y="1401" on="0"/>
        <pt x="334" y="1294" on="0"/>
        <pt x="322" y="1206" on="1"/>
        <pt x="260" y="1206" on="0"/>
        <pt x="190" y="1261" on="0"/>
        <pt x="190" y="1305" on="1"/>
        <pt x="190" y="1382" on="0"/>
        <pt x="359" y="1483" on="0"/>
        <pt x="502" y="1483" on="1"/>
        <pt x="626" y="1483" on="0"/>
        <pt x="770" y="1375" on="0"/>
        <pt x="770" y="1288" on="1"/>
        <pt x="770" y="1191" on="0"/>
        <pt x="645" y="1023" on="0"/>
        <pt x="487" y="897" on="1"/>
        <pt x="242" y="702" on="1"/>
        <pt x="524" y="702" on="1"/>
        <pt x="601" y="702" on="0"/>
        <pt x="633" y="786" on="1"/>
        <pt x="649" y="829" on="1"/>
        <pt x="719" y="829" on="1"/>
        <pt x="662" y="586" on="1"/>
      </contour>
    </TTGlyph>
    <TTGlyph name="u" xMin="117" yMin="-20" xMax="1194" yMax="1098">
      <contour>
        <pt x="135" y="1098" on="1"/>
        <pt x="516" y="1098" on="1"/>
        <pt x="381" y="485" on="1"/>
        <pt x="340" y="299" on="0"/>
        <pt x="340" y="238" on="1"/>
        <pt x="340" y="113" on="0"/>
        <pt x="440" y="113" on="1"/>
        <pt x="545" y="113" on="0"/>
        <pt x="788" y="416" on="0"/>
        <pt x="825" y="588" on="1"/>
        <pt x="932" y="1098" on="1"/>
        <pt x="1130" y="1098" on="1"/>
        <pt x="989" y="440" on="1"/>
        <pt x="958" y="295" on="0"/>
        <pt x="958" y="213" on="1"/>
        <pt x="958" y="109" on="0"/>
        <pt x="1026" y="109" on="1"/>
        <pt x="1084" y="109" on="0"/>
        <pt x="1157" y="154" on="1"/>
        <pt x="1194" y="94" on="1"/>
        <pt x="1064" y="-20" on="0"/>
        <pt x="934" y="-20" on="1"/>
        <pt x="857" y="-20" on="0"/>
        <pt x="762" y="90" on="0"/>
        <pt x="762" y="174" on="1"/>
        <pt x="762" y="227" on="0"/>
        <pt x="772" y="295" on="1"/>
        <pt x="756" y="295" on="1"/>
        <pt x="645" y="112" on="0"/>
        <pt x="470" y="-18" on="0"/>
        <pt x="360" y="-18" on="1"/>
        <pt x="141" y="-18" on="0"/>
        <pt x="141" y="209" on="1"/>
        <pt x="141" y="274" on="0"/>
        <pt x="178" y="434" on="1"/>
        <pt x="258" y="793" on="1"/>
        <pt x="276" y="874" on="0"/>
        <pt x="276" y="915" on="1"/>
        <pt x="276" y="1012" on="0"/>
        <pt x="133" y="1012" on="1"/>
        <pt x="117" y="1012" on="1"/>
      </contour>
    </TTGlyph>
    <TTGlyph name="uacute" xMin="117" yMin="-20" xMax="1194" yMax="1569">
      <component glyphName="u" x="0" y="0" flags="0x1204"/>
      <component glyphName="acute" x="139" y="0" flags="0x1004"/>
    </TTGlyph>
    <TTGlyph name="ucircumflex" xMin="117" yMin="-20" xMax="1194" yMax="1569">
      <component glyphName="u" x="0" y="0" flags="0x1204"/>
      <component glyphName="circumflex" x="53" y="0" flags="0x1004"/>
    </TTGlyph>
    <TTGlyph name="udieresis" xMin="117" yMin="-20" xMax="1194" yMax="1526">
      <component glyphName="u" x="0" y="0" flags="0x1204"/>
      <component glyphName="dieresis" x="57" y="0" flags="0x1004"/>
    </TTGlyph>
    <TTGlyph name="ugrave" xMin="117" yMin="-20" xMax="1194" yMax="1569">
      <component glyphName="u" x="0" y="0" flags="0x1204"/>
      <component glyphName="grave" x="-79" y="0" flags="0x1004"/>
    </TTGlyph>
    <TTGlyph name="underscore" xMin="-186" yMin="-291" xMax="799" yMax="-170">
      <contour>
        <pt x="772" y="-291" on="1"/>
        <pt x="-186" y="-291" on="1"/>
        <pt x="-160" y="-170" on="1"/>
        <pt x="799" y="-170" on="1"/>
      </contour>
    </TTGlyph>
    <TTGlyph name="uni00AD" xMin="29" yMin="481" xMax="594" yMax="635">
      <component glyphName="hyphen" x="0" y="0" flags="0x1204"/>
    </TTGlyph>
    <TTGlyph name="v" xMin="35" yMin="-18" xMax="1034" yMax="1108">
      <contour>
        <pt x="197" y="903" on="1"/>
        <pt x="180" y="1012" on="0"/>
        <pt x="55" y="1012" on="1"/>
        <pt x="35" y="1012" on="1"/>
        <pt x="51" y="1098" on="1"/>
        <pt x="358" y="1098" on="1"/>
        <pt x="453" y="492" on="1"/>
        <pt x="489" y="260" on="0"/>
        <pt x="500" y="129" on="1"/>
        <pt x="506" y="129" on="1"/>
        <pt x="659" y="276" on="0"/>
        <pt x="883" y="669" on="0"/>
        <pt x="883" y="788" on="1"/>
        <pt x="883" y="860" on="0"/>
        <pt x="813" y="944" on="0"/>
        <pt x="756" y="944" on="1"/>
        <pt x="756" y="1018" on="0"/>
        <pt x="836" y="1108" on="0"/>
        <pt x="895" y="1108" on="1"/>
        <pt x="1034" y="1108" on="0"/>
        <pt x="1034" y="918" on="1"/>
        <pt x="1034" y="732" on="0"/>
        <pt x="751" y="233" on="0"/>
        <pt x="524" y="2" on="1"/>
        <pt x="340" y="-18" on="1"/>
      </contour>
    </TTGlyph>
    <TTGlyph name="w" xMin="76" yMin="-20" xMax="1636" yMax="1118">
      <contour>
        <pt x="246" y="-18" on="1"/>
        <pt x="231" y="864" on="1"/>
        <pt x="230" y="936" on="0"/>
        <pt x="175" y="1012" on="0"/>
        <pt x="96" y="1012" on="1"/>
        <pt x="76" y="1012" on="1"/>
        <pt x="104" y="1098" on="1"/>
        <pt x="412" y="1098" on="1"/>
        <pt x="418" y="666" on="0"/>
        <pt x="418" y="164" on="1"/>
        <pt x="426" y="164" on="1"/>
        <pt x="693" y="633" on="0"/>
        <pt x="883" y="1079" on="1"/>
        <pt x="1053" y="1087" on="1"/>
        <pt x="1096" y="548" on="0"/>
        <pt x="1096" y="150" on="1"/>
        <pt x="1110" y="150" on="1"/>
        <pt x="1277" y="355" on="0"/>
        <pt x="1495" y="756" on="0"/>
        <pt x="1495" y="874" on="1"/>
        <pt x="1495" y="968" on="0"/>
        <pt x="1407" y="997" on="1"/>
        <pt x="1425" y="1118" on="0"/>
        <pt x="1528" y="1118" on="1"/>
        <pt x="1636" y="1118" on="0"/>
        <pt x="1636" y="965" on="1"/>
        <pt x="1636" y="670" on="0"/>
        <pt x="1122" y="2" on="1"/>
        <pt x="920" y="-20" on="1"/>
        <pt x="889" y="866" on="1"/>
        <pt x="796" y="645" on="0"/>
        <pt x="457" y="6" on="1"/>
      </contour>
    </TTGlyph>
    <TTGlyph name="x" xMin="-41" yMin="0" xMax="1155" yMax="1098">
      <contour>
        <pt x="-41" y="0" on="1"/>
        <pt x="-18" y="86" on="1"/>
        <pt x="8" y="86" on="1"/>
        <pt x="64" y="86" on="0"/>
        <pt x="147" y="137" on="0"/>
        <pt x="221" y="227" on="1"/>
        <pt x="483" y="545" on="1"/>
        <pt x="350" y="864" on="1"/>
        <pt x="311" y="959" on="0"/>
        <pt x="260" y="1012" on="0"/>
        <pt x="203" y="1012" on="1"/>
        <pt x="176" y="1012" on="1"/>
        <pt x="193" y="1098" on="1"/>
        <pt x="465" y="1098" on="1"/>
        <pt x="621" y="684" on="1"/>
        <pt x="893" y="1098" on="1"/>
        <pt x="1155" y="1098" on="1"/>
        <pt x="1122" y="1012" on="1"/>
        <pt x="1096" y="1012" on="1"/>
        <pt x="1036" y="1012" on="0"/>
        <pt x="955" y="954" on="0"/>
        <pt x="883" y="864" on="1"/>
        <pt x="668" y="588" on="1"/>
        <pt x="809" y="233" on="1"/>
        <pt x="845" y="141" on="0"/>
        <pt x="896" y="86" on="0"/>
        <pt x="956" y="86" on="1"/>
        <pt x="983" y="86" on="1"/>
        <pt x="967" y="0" on="1"/>
        <pt x="692" y="0" on="1"/>
        <pt x="526" y="451" on="1"/>
        <pt x="219" y="0" on="1"/>
      </contour>
    </TTGlyph>
    <TTGlyph name="y" xMin="-332" yMin="-492" xMax="1018" yMax="1116">
      <contour>
        <pt x="164" y="903" on="1"/>
        <pt x="146" y="963" on="0"/>
        <pt x="84" y="1012" on="0"/>
        <pt x="23" y="1012" on="1"/>
        <pt x="2" y="1012" on="1"/>
        <pt x="18" y="1098" on="1"/>
        <pt x="317" y="1098" on="1"/>
        <pt x="477" y="545" on="1"/>
        <pt x="551" y="288" on="0"/>
        <pt x="563" y="174" on="1"/>
        <pt x="569" y="174" on="1"/>
        <pt x="846" y="595" on="0"/>
        <pt x="846" y="854" on="1"/>
        <pt x="846" y="965" on="0"/>
        <pt x="745" y="965" on="1"/>
        <pt x="745" y="1034" on="0"/>
        <pt x="825" y="1116" on="0"/>
        <pt x="879" y="1116" on="1"/>
        <pt x="1018" y="1116" on="0"/>
        <pt x="1018" y="944" on="1"/>
        <pt x="1018" y="697" on="0"/>
        <pt x="466" y="-198" on="0"/>
        <pt x="133" y="-492" on="0"/>
        <pt x="-139" y="-492" on="1"/>
        <pt x="-247" y="-492" on="0"/>
        <pt x="-332" y="-455" on="1"/>
        <pt x="-301" y="-352" on="1"/>
        <pt x="-229" y="-375" on="0"/>
        <pt x="-141" y="-375" on="1"/>
        <pt x="152" y="-375" on="0"/>
        <pt x="434" y="-2" on="1"/>
      </contour>
    </TTGlyph>
    <TTGlyph name="yacute" xMin="-332" yMin="-492" xMax="1018" yMax="1569">
      <component glyphName="y" x="0" y="0" flags="0x1204"/>
      <component glyphName="acute" x="27" y="0" flags="0x1004"/>
    </TTGlyph>
    <TTGlyph name="ydieresis" xMin="-332" yMin="-492" xMax="1018" yMax="1526">
      <component glyphName="y" x="0" y="0" flags="0x1204"/>
      <component glyphName="dieresis" x="-101" y="0" flags="0x1004"/>
    </TTGlyph>
    <TTGlyph name="yen" xMin="121" yMin="0" xMax="1300" yMax="1462">
      <contour>
        <pt x="582" y="225" on="1"/>
        <pt x="573" y="181" on="0"/>
        <pt x="573" y="168" on="1"/>
        <pt x="573" y="86" on="0"/>
        <pt x="721" y="86" on="1"/>
        <pt x="768" y="86" on="1"/>
        <pt x="750" y="0" on="1"/>
        <pt x="121" y="0" on="1"/>
        <pt x="139" y="86" on="1"/>
        <pt x="186" y="86" on="1"/>
        <pt x="290" y="86" on="0"/>
        <pt x="370" y="158" on="0"/>
        <pt x="383" y="223" on="1"/>
        <pt x="412" y="362" on="1"/>
        <pt x="125" y="362" on="1"/>
        <pt x="145" y="459" on="1"/>
        <pt x="432" y="459" on="1"/>
        <pt x="463" y="602" on="1"/>
        <pt x="176" y="602" on="1"/>
        <pt x="197" y="698" on="1"/>
        <pt x="444" y="698" on="1"/>
        <pt x="287" y="1268" on="1"/>
        <pt x="271" y="1326" on="0"/>
        <pt x="225" y="1376" on="0"/>
        <pt x="164" y="1376" on="1"/>
        <pt x="158" y="1376" on="1"/>
        <pt x="176" y="1462" on="1"/>
        <pt x="655" y="1462" on="1"/>
        <pt x="637" y="1376" on="1"/>
        <pt x="633" y="1376" on="1"/>
        <pt x="564" y="1376" on="0"/>
        <pt x="492" y="1350" on="0"/>
        <pt x="492" y="1307" on="1"/>
        <pt x="492" y="1264" on="0"/>
        <pt x="516" y="1176" on="1"/>
        <pt x="569" y="956" on="1"/>
        <pt x="604" y="810" on="0"/>
        <pt x="612" y="707" on="1"/>
        <pt x="634" y="746" on="0"/>
        <pt x="719" y="874" on="1"/>
        <pt x="889" y="1124" on="1"/>
        <pt x="981" y="1259" on="0"/>
        <pt x="981" y="1317" on="1"/>
        <pt x="981" y="1376" on="0"/>
        <pt x="870" y="1376" on="1"/>
        <pt x="864" y="1376" on="1"/>
        <pt x="883" y="1462" on="1"/>
        <pt x="1300" y="1462" on="1"/>
        <pt x="1282" y="1376" on="1"/>
        <pt x="1264" y="1376" on="1"/>
        <pt x="1218" y="1376" on="0"/>
        <pt x="1154" y="1329" on="0"/>
        <pt x="1075" y="1217" on="1"/>
        <pt x="715" y="698" on="1"/>
        <pt x="969" y="698" on="1"/>
        <pt x="948" y="602" on="1"/>
        <pt x="662" y="602" on="1"/>
        <pt x="631" y="459" on="1"/>
        <pt x="918" y="459" on="1"/>
        <pt x="897" y="362" on="1"/>
        <pt x="610" y="362" on="1"/>
      </contour>
    </TTGlyph>
    <TTGlyph name="z" xMin="-2" yMin="0" xMax="967" yMax="1098">
      <contour>
        <pt x="616" y="117" on="1"/>
        <pt x="665" y="117" on="0"/>
        <pt x="746" y="179" on="0"/>
        <pt x="791" y="285" on="1"/>
        <pt x="811" y="332" on="1"/>
        <pt x="897" y="332" on="1"/>
        <pt x="817" y="0" on="1"/>
        <pt x="-2" y="0" on="1"/>
        <pt x="14" y="82" on="1"/>
        <pt x="711" y="981" on="1"/>
        <pt x="451" y="981" on="1"/>
        <pt x="380" y="981" on="0"/>
        <pt x="303" y="913" on="0"/>
        <pt x="258" y="815" on="1"/>
        <pt x="254" y="807" on="1"/>
        <pt x="168" y="807" on="1"/>
        <pt x="250" y="1098" on="1"/>
        <pt x="967" y="1098" on="1"/>
        <pt x="950" y="1014" on="1"/>
        <pt x="252" y="117" on="1"/>
      </contour>
    </TTGlyph>
    <TTGlyph name="zero" xMin="82" yMin="-23" xMax="1085" yMax="1485">
      <contour>
        <pt x="696" y="1485" on="1"/>
        <pt x="876" y="1485" on="0"/>
        <pt x="1085" y="1239" on="0"/>
        <pt x="1085" y="1016" on="1"/>
        <pt x="1085" y="622" on="0"/>
        <pt x="751" y="-23" on="0"/>
        <pt x="477" y="-23" on="1"/>
        <pt x="294" y="-23" on="0"/>
        <pt x="82" y="239" on="0"/>
        <pt x="82" y="473" on="1"/>
        <pt x="82" y="867" on="0"/>
        <pt x="422" y="1485" on="0"/>
      </contour>
      <contour>
        <pt x="494" y="90" on="1"/>
        <pt x="672" y="90" on="0"/>
        <pt x="887" y="681" on="0"/>
        <pt x="887" y="1055" on="1"/>
        <pt x="887" y="1374" on="0"/>
        <pt x="676" y="1374" on="1"/>
        <pt x="497" y="1374" on="0"/>
        <pt x="281" y="780" on="0"/>
        <pt x="281" y="414" on="1"/>
        <pt x="281" y="90" on="0"/>
      </contour>
    </TTGlyph>
</ttFont>
